<svg xmlns="http://www.w3.org/2000/svg" width="39.526" height="29.026" viewBox="0 0 39.526 29.026"><g transform="translate(-9.374 -14.5)"><path d="M47,14.5H16.9A1.9,1.9,0,0,0,15,16.4V39.6a1.155,1.155,0,0,0,1.2,1.2H45.8A1.155,1.155,0,0,0,47,39.6V33.9H44.3a4.4,4.4,0,1,1,0-8.8H47V17.7a1.216,1.216,0,0,0-1.2-1.2H17.2a.9.9,0,0,1,0-1.1H46.8A1.155,1.155,0,0,1,48,16.6v8.9l-1,.9H44.2a3.2,3.2,0,1,0,0,6.4l2.8-.2,1-.6v6.6a.756.756,0,0,1-.1.4,1.936,1.936,0,0,0,1-1.7V16.5a1.923,1.923,0,0,0-1.9-2" fill="#8a4094"/><path d="M46,29.7A1.7,1.7,0,1,1,44.3,28,1.685,1.685,0,0,1,46,29.7" fill="#dfcce4"/><path d="M17.8,39.9h0l-.1-22.1a.1.1,0,0,1,.1-.1h28a.1.1,0,0,1,.1.1v6.4H44.2a5.5,5.5,0,1,0,0,11h1.7v4.7a.1.1,0,0,1-.1.1h-28Z" fill="#dfcce4"/><path d="M26.5,34.6a8.2,8.2,0,1,1-8.2-8.2,8.237,8.237,0,0,1,8.2,8.2" fill="#dfcce4"/><path d="M26.5,34.6a8.2,8.2,0,1,1-8.2-8.2A8.237,8.237,0,0,1,26.5,34.6Z" fill="none" stroke="#8a4094" stroke-linecap="round" stroke-linejoin="round" stroke-miterlimit="10" stroke-width="1.453"/><path d="M23.3,33.7h-4v-4a1,1,0,0,0-2,0v4h-4a1,1,0,1,0,0,2h4v4a1,1,0,0,0,2,0v-4h4a1,1,0,0,0,0-2" fill="#8a4094"/></g></svg>