<svg xmlns="http://www.w3.org/2000/svg" width="136.164" height="164.886" viewBox="0 0 136.164 164.886">
  <g id="undraw_home_screen_4n7s" transform="translate(0 0)">
    <path id="Path_15726" data-name="Path 15726" d="M458.592,140.158v18.652a.652.652,0,0,1-.65.65h-.463v97.163a10.138,10.138,0,0,1-10.137,10.138H386.629a10.136,10.136,0,0,1-10.135-10.136V162.867h-.335a.459.459,0,0,1-.46-.457V151.795a.46.46,0,0,1,.46-.46h.335v-4h-.338a.482.482,0,0,1-.48-.483v-10.47a.481.481,0,0,1,.48-.48h.338v-5.458h-.344a.425.425,0,0,1-.426-.425v-5.715a.428.428,0,0,1,.426-.429h.344V112.308a10.135,10.135,0,0,1,10.135-10.135h60.712a10.138,10.138,0,0,1,10.138,10.135v27.2h.463A.652.652,0,0,1,458.592,140.158Z" transform="translate(-360.764 -102.173)" fill="#3f3d56"/>
    <path id="Path_15727" data-name="Path 15727" d="M205.59,21.933h9.865a.722.722,0,0,1,.722.722v.853a.722.722,0,0,1-.722.722H205.59a.722.722,0,0,1-.722-.722v-.853A.722.722,0,0,1,205.59,21.933Z" transform="translate(-156.31 -16.735)" fill="#e6e8ec"/>
    <circle id="Ellipse_1301" data-name="Ellipse 1301" cx="1.303" cy="1.303" r="1.303" transform="translate(61.578 5.044)" fill="#e6e8ec"/>
    <path id="Path_15728" data-name="Path 15728" d="M471.834,132.685V275.841a6.433,6.433,0,0,1-6.432,6.429H407.286a6.422,6.422,0,0,1-6.432-6.412V132.691a6.432,6.432,0,0,1,6.432-6.432h8.7v1.116a5.3,5.3,0,0,0,5.3,5.3h29.556a5.3,5.3,0,0,0,5.3-5.3v-1.116H465.4A6.427,6.427,0,0,1,471.834,132.685Z" transform="translate(-379.974 -120.55)" fill="#fff"/>
    <path id="Path_15729" data-name="Path 15729" d="M471.834,676.284V695.5a6.433,6.433,0,0,1-6.432,6.429H407.286a6.422,6.422,0,0,1-6.432-6.412V676.284Z" transform="translate(-379.974 -540.206)" fill="#f2f2f2"/>
    <path id="Path_15730" data-name="Path 15730" d="M424.44,201.835a.853.853,0,0,0-.852.852v15.335a.853.853,0,0,0,.852.852h15.335a.853.853,0,0,0,.852-.852V202.687a.853.853,0,0,0-.852-.852Z" transform="translate(-397.32 -178.212)" fill="#e6e6e6"/>
    <path id="Path_15731" data-name="Path 15731" d="M515.5,201.835a.853.853,0,0,0-.852.852v15.335a.853.853,0,0,0,.852.852H530.83a.853.853,0,0,0,.852-.852V202.687a.853.853,0,0,0-.852-.852Z" transform="translate(-466.793 -178.212)" fill="#e6e6e6"/>
    <path id="Path_15732" data-name="Path 15732" d="M606.552,201.835a.853.853,0,0,0-.852.852v15.335a.853.853,0,0,0,.852.852h15.335a.853.853,0,0,0,.852-.852V202.687a.853.853,0,0,0-.852-.852Z" transform="translate(-536.267 -178.212)" fill="#e6e6e6"/>
    <path id="Path_15733" data-name="Path 15733" d="M424.59,301.278a.853.853,0,0,0-.852.852v15.335a.853.853,0,0,0,.852.852h15.335a.853.853,0,0,0,.852-.852V302.13a.853.853,0,0,0-.852-.852Z" transform="translate(-397.434 -254.085)" fill="#e6e6e6"/>
    <path id="Path_15734" data-name="Path 15734" d="M515.646,301.278a.853.853,0,0,0-.852.852v15.335a.853.853,0,0,0,.852.852H530.98a.853.853,0,0,0,.852-.852V302.13a.853.853,0,0,0-.852-.852Z" transform="translate(-466.908 -254.085)" fill="#e6e6e6"/>
    <path id="Path_15735" data-name="Path 15735" d="M606.7,301.278a.853.853,0,0,0-.852.852v15.335a.853.853,0,0,0,.852.852h15.335a.853.853,0,0,0,.852-.852V302.13a.853.853,0,0,0-.852-.852Z" transform="translate(-536.381 -254.085)" fill="#e6e6e6"/>
    <path id="Path_15736" data-name="Path 15736" d="M424.74,400.72a.853.853,0,0,0-.852.852v15.335a.853.853,0,0,0,.852.852h15.335a.853.853,0,0,0,.852-.852V401.572a.853.853,0,0,0-.852-.852Z" transform="translate(-397.548 -329.957)" fill="#e6e6e6"/>
    <path id="Path_15737" data-name="Path 15737" d="M515.8,400.72a.853.853,0,0,0-.852.852v15.335a.853.853,0,0,0,.852.852H531.13a.853.853,0,0,0,.852-.852V401.572a.853.853,0,0,0-.852-.852Z" transform="translate(-467.022 -329.957)" fill="#e6e6e6"/>
    <path id="Path_15738" data-name="Path 15738" d="M606.851,400.72a.853.853,0,0,0-.852.852v15.335a.853.853,0,0,0,.852.852h15.335a.853.853,0,0,0,.852-.852V401.572a.853.853,0,0,0-.852-.852Z" transform="translate(-536.495 -329.957)" fill="#e6e6e6"/>
    <path id="Path_15739" data-name="Path 15739" d="M424.59,694.255a.853.853,0,0,0-.852.852v15.335a.853.853,0,0,0,.852.852h15.335a.853.853,0,0,0,.852-.852V695.107a.853.853,0,0,0-.852-.852Z" transform="translate(-397.434 -553.918)" fill="#e2136e"/>
    <path id="Path_15740" data-name="Path 15740" d="M515.646,694.255a.853.853,0,0,0-.852.852v15.335a.853.853,0,0,0,.852.852H530.98a.853.853,0,0,0,.852-.852V695.107a.853.853,0,0,0-.852-.852Z" transform="translate(-466.908 -553.918)" fill="#e2136e"/>
    <path id="Path_15741" data-name="Path 15741" d="M606.7,694.255a.853.853,0,0,0-.852.852v15.335a.853.853,0,0,0,.852.852h15.335a.853.853,0,0,0,.852-.852V695.107a.853.853,0,0,0-.852-.852Z" transform="translate(-536.381 -553.918)" fill="#e2136e"/>
    <path id="Path_15742" data-name="Path 15742" d="M424.89,500.163a.853.853,0,0,0-.852.852V516.35a.853.853,0,0,0,.852.852h15.335a.853.853,0,0,0,.852-.852V501.015a.853.853,0,0,0-.852-.852Z" transform="translate(-397.663 -405.83)" fill="#e6e6e6"/>
    <path id="Path_15743" data-name="Path 15743" d="M764.941,441.3l.777,3.847a3.245,3.245,0,0,0,3.922,2.517h0a3.245,3.245,0,0,0,1.9-5.04l-2.249-3.162L763.729,424.2l1.016-13.072c-3.194-1.2-6.445-2.543-8.208-.174l2.19,14.3Z" transform="translate(-651.352 -336.772)" fill="#ffb9b9"/>
    <path id="Path_15744" data-name="Path 15744" d="M802.568,554.242a.747.747,0,0,0-.746.746v13.433a.747.747,0,0,0,.746.746H816a.747.747,0,0,0,.746-.746V554.988a.747.747,0,0,0-.746-.746Z" transform="translate(-685.903 -447.091)" fill="#e2136e"/>
    <path id="Path_15745" data-name="Path 15745" d="M762.216,304.139c0-.079,0-.157,0-.239a9.014,9.014,0,0,0-9-8.9,8.872,8.872,0,0,0-6.364,2.678,9.182,9.182,0,0,0-2.636,6.464v8.951h18Z" transform="translate(-641.951 -249.293)" fill="#2f2e41"/>
    <path id="Path_15746" data-name="Path 15746" d="M763.194,775.464h0a1.865,1.865,0,0,0-.834-1.829l-5.353-2.627-4.036.509-.953,3.417a1.818,1.818,0,0,0,1.591,2.1l7.53.016A1.865,1.865,0,0,0,763.194,775.464Z" transform="translate(-647.886 -612.479)" fill="#2f2e41"/>
    <path id="Path_15747" data-name="Path 15747" d="M408.248,457.583l.621,3.965.056.363,2.386,15.242.737,4.711.226,1.445.627,4.559,2.923,21.233,5.083-1.152.243-24.479.042-4.2.039-3.552.035-3.125.141-12.567Z" transform="translate(-311.484 -349.125)" fill="#2f2e41"/>
    <circle id="Ellipse_1302" data-name="Ellipse 1302" cx="6.815" cy="6.815" r="6.815" transform="translate(106.336 47.521)" fill="#ffb9b9"/>
    <path id="Path_15748" data-name="Path 15748" d="M758.28,354.21,766,358.071a18.991,18.991,0,0,1,2.385-11.017l-6.7-1.022C761.6,348.723,760.236,351.456,758.28,354.21Z" transform="translate(-652.682 -288.232)" fill="#ffb9b9"/>
    <path id="Path_15749" data-name="Path 15749" d="M736.874,398.336l13.63,2.953,1.136-8.859c.739-3.789,2.073-7.5-.262-10.472l-.342-3.062a9.888,9.888,0,0,0-4.586-7.286l-4.123-2.577C733.779,373.656,734.123,385.076,736.874,398.336Z" transform="translate(-635.024 -305.781)" fill="#e6e6e6"/>
    <path id="Path_15750" data-name="Path 15750" d="M424.278,540.236l.226,1.445.627,4.559,8.249-4.4.042-4.2.039-3.553Z" transform="translate(-323.714 -407.497)" opacity="0.2"/>
    <path id="Path_15751" data-name="Path 15751" d="M721.01,559.755l.621,3.966.056.363a14.927,14.927,0,0,0,3.8,4.217l8.546,6.463.141-12.567Z" transform="translate(-624.246 -451.297)" opacity="0.2"/>
    <path id="Path_15752" data-name="Path 15752" d="M718.376,526.317l1.59,5.338L740.511,520.7a5.5,5.5,0,0,0,1.378-8.394l-11.246-12.795,5-11.245-14.311-3.748-1.59,3.407a12.888,12.888,0,0,0-4.484,10.855,14.61,14.61,0,0,0,5.8,10.456l10.721,8.106Z" transform="translate(-619.82 -393.894)" fill="#2f2e41"/>
    <path id="Path_15753" data-name="Path 15753" d="M716.5,667.943h0a1.849,1.849,0,0,0,1.756-.942l3.079-5.516-.762-3.96-3.441-.725a1.8,1.8,0,0,0-1.98,1.708l-.357,7.5A1.849,1.849,0,0,0,716.5,667.943Z" transform="translate(-619.501 -525.333)" fill="#2f2e41"/>
    <path id="Path_15754" data-name="Path 15754" d="M732.871,445.971l-.123,3.923a3.245,3.245,0,0,0,3.243,3.346h0a3.245,3.245,0,0,0,3-4.472l-1.467-3.593L735.6,429.047l3.975-12.494c-2.835-1.9-5.694-3.948-7.951-2.044l-1.136,14.425Z" transform="translate(-631.476 -339.899)" fill="#ffb9b9"/>
    <path id="Path_15755" data-name="Path 15755" d="M729.528,388.283c4.185-2,7.392-.98,9.768,2.612l1.54-8.592a4.583,4.583,0,0,0-2.546-4.949h0a3.723,3.723,0,0,0-5.036,1.938Z" transform="translate(-630.745 -311.855)" fill="#e6e6e6"/>
    <path id="Path_15756" data-name="Path 15756" d="M758.634,299.316l1.71,5.442,14.789-.263a9.142,9.142,0,0,0-16.5-5.179Z" transform="translate(-652.952 -249.749)" fill="#2f2e41"/>
    <path id="Path_15757" data-name="Path 15757" d="M136.07,693.991H0v-.517H136.164Z" transform="translate(0 -529.105)" fill="#3f3d56"/>
  </g>
</svg>
