<svg xmlns="http://www.w3.org/2000/svg" width="36.62" height="26.839" viewBox="0 0 36.62 26.839"><g transform="translate(-157.097 -188.163)"><path d="M181.149,200.195a12.016,12.016,0,1,0,12.015,12.016A12.03,12.03,0,0,0,181.149,200.195Z" transform="translate(-10.633 -10.629)" fill="#f4dcde"/><g transform="translate(157.097 188.163)"><g transform="translate(0 0)"><path d="M170.516,215a13.42,13.42,0,1,1,13.419-13.42A13.435,13.435,0,0,1,170.516,215Zm0-25.436a12.016,12.016,0,1,0,12.015,12.016A12.03,12.03,0,0,0,170.516,189.566Z" transform="translate(-157.097 -188.163)" fill="#d76a92"/><g transform="translate(8.023 6.181)"><path d="M235.134,247.173l-1.232,1.078a2.456,2.456,0,0,1,1.386,2.157,3.58,3.58,0,0,1-3.542,3.544c-.925,0-1.7-.926-1.7-2.311V248.56H231.9v-1.54h-1.848V244.4c0-2.158-1.387-3.235-2.31-3.235l-.771,1.077a2.015,2.015,0,0,1,1.387,2.158v2.619h-2.465v1.54h2.465v3.081a3.6,3.6,0,0,0,3.389,3.7,5,5,0,0,0,4.928-5.086,3.015,3.015,0,0,0-1.54-3.079" transform="translate(-225.892 -241.167)" fill="#d76a92"/></g><g transform="translate(25.612 5.823)"><path d="M376.72,240.52h3.206v-2.426l7.8,7.692-7.8,7.5V250.8H376.72Z" transform="translate(-376.72 -238.094)" fill="#d76a92"/></g></g></g></g></svg>