<svg xmlns="http://www.w3.org/2000/svg" width="98.568" height="24.496" viewBox="0 0 98.568 24.496"><g transform="translate(24606 23198.496)"><g transform="translate(-24926 -23211.496)"><path d="M12.249,0H86.32a12.249,12.249,0,1,1,0,24.5H12.249a12.249,12.249,0,0,1,0-24.5Z" transform="translate(320 13)" fill="#ff90b5"/><g transform="translate(320 13)" fill="#e2136e"><path d="M 12.24853420257568 23.9970645904541 C 9.110383987426758 23.9970645904541 6.160074234008789 22.77500343322754 3.941064119338989 20.55600357055664 C 1.722064256668091 18.33699417114258 0.5000042319297791 15.38668441772461 0.5000042319297791 12.24853420257568 C 0.5000042319297791 9.110383987426758 1.722064256668091 6.160074234008789 3.941064119338989 3.941064119338989 C 6.160074234008789 1.722064256668091 9.110383987426758 0.5000042319297791 12.24853420257568 0.5000042319297791 C 15.38668441772461 0.5000042319297791 18.33699417114258 1.722064256668091 20.55600357055664 3.941064119338989 C 22.77500343322754 6.160074234008789 23.9970645904541 9.110383987426758 23.9970645904541 12.24853420257568 C 23.9970645904541 15.38668441772461 22.77500343322754 18.33699417114258 20.55600357055664 20.55600357055664 C 18.33699417114258 22.77500343322754 15.38668441772461 23.9970645904541 12.24853420257568 23.9970645904541 Z" stroke="none"/><path d="M 12.24853420257568 1.000003814697266 C 9.24394416809082 1.000003814697266 6.419183731079102 2.170053482055664 4.294624328613281 4.294624328613281 C 2.170053482055664 6.419183731079102 1.000003814697266 9.24394416809082 1.000003814697266 12.24853420257568 C 1.000003814697266 15.25312423706055 2.170053482055664 18.07788467407227 4.294624328613281 20.20244407653809 C 6.419183731079102 22.3270149230957 9.24394416809082 23.4970645904541 12.24853420257568 23.4970645904541 C 15.25312423706055 23.4970645904541 18.07788467407227 22.3270149230957 20.20244407653809 20.20244407653809 C 22.3270149230957 18.07788467407227 23.4970645904541 15.25312423706055 23.4970645904541 12.24853420257568 C 23.4970645904541 9.24394416809082 22.3270149230957 6.419183731079102 20.20244407653809 4.294624328613281 C 18.07788467407227 2.170053482055664 15.25312423706055 1.000003814697266 12.24853420257568 1.000003814697266 M 12.24853420257568 3.814697265625e-06 C 19.01321411132812 3.814697265625e-06 24.4970645904541 5.483854293823242 24.4970645904541 12.24853420257568 C 24.4970645904541 19.01321411132812 19.01321411132812 24.4970645904541 12.24853420257568 24.4970645904541 C 5.483854293823242 24.4970645904541 3.814697265625e-06 19.01321411132812 3.814697265625e-06 12.24853420257568 C 3.814697265625e-06 5.483854293823242 5.483854293823242 3.814697265625e-06 12.24853420257568 3.814697265625e-06 Z" stroke="none" fill="#fff"/></g><g transform="translate(328.166 20.349)"><path d="M7,28.04a.9.9,0,0,0,.268.647,1.12,1.12,0,0,0,.8.265,1.613,1.613,0,0,0,.8-.244,3.258,3.258,0,0,0,.772-.626,3.61,3.61,0,0,0,.6-.848,2.159,2.159,0,0,0,.268-.912l-.247.021A1.386,1.386,0,0,1,9.245,26a1.6,1.6,0,0,1-.33-1.135,1.4,1.4,0,0,1,.113-.594,1.171,1.171,0,0,1,.309-.392,1.147,1.147,0,0,1,.443-.223,1.746,1.746,0,0,1,.5-.074,1.465,1.465,0,0,1,.8.223,1.776,1.776,0,0,1,.577.562,2.394,2.394,0,0,1,.35.774,2.985,2.985,0,0,1,.124.838,3.612,3.612,0,0,1-.35,1.538,4.71,4.71,0,0,1-.927,1.336,4.631,4.631,0,0,1-1.308.944,3.447,3.447,0,0,1-1.5.35,1.58,1.58,0,0,1-.649-.159,3.322,3.322,0,0,1-.639-.392,3.447,3.447,0,0,1-.525-.53,1.571,1.571,0,0,1-.3-.551V25.082H4.93l-.978-1.039H5.939V21.985a.628.628,0,0,0-.2-.53,1.066,1.066,0,0,0-.546-.212.644.644,0,0,0-.443.106q-.124-.223-.2-.361t-.1-.244a.9.9,0,0,1-.051-.17.734.734,0,0,1-.01-.117.4.4,0,0,1,.154-.318,1.352,1.352,0,0,1,.371-.2,2.124,2.124,0,0,1,.659-.148,1.119,1.119,0,0,1,.587.148,1.189,1.189,0,0,1,.433.4,1.914,1.914,0,0,1,.268.626,3.9,3.9,0,0,1,.134.8v2.28h.587l.989,1.039H7V28.04" transform="translate(-3.951 -19.79)" fill="#fff"/></g></g></g></svg>