<svg id="browser" xmlns="http://www.w3.org/2000/svg" width="28" height="28" viewBox="0 0 28 28">
  <g id="Group_7518" data-name="Group 7518">
    <g id="Group_7517" data-name="Group 7517">
      <path id="Path_16095" data-name="Path 16095" d="M25.667,0H2.333A2.336,2.336,0,0,0,0,2.333V25.667A2.336,2.336,0,0,0,2.333,28H25.667A2.336,2.336,0,0,0,28,25.667V2.333A2.336,2.336,0,0,0,25.667,0Zm1.4,25.667a1.4,1.4,0,0,1-1.4,1.4H2.333a1.4,1.4,0,0,1-1.4-1.4v-21H27.067v21Zm0-21.933H.933v-1.4a1.4,1.4,0,0,1,1.4-1.4H25.667a1.4,1.4,0,0,1,1.4,1.4v1.4Z" fill="#e2136e"/>
      <path id="Path_16096" data-name="Path 16096" d="M43.6,34.133h-.467a.467.467,0,0,0,0,.933H43.6a.467.467,0,0,0,0-.933Z" transform="translate(-40.334 -32.266)" fill="#e2136e"/>
      <path id="Path_16097" data-name="Path 16097" d="M85.977,34.15a.427.427,0,0,0-.355,0,.539.539,0,0,0-.154.1.473.473,0,0,0,0,.663.539.539,0,0,0,.154.1.44.44,0,0,0,.355,0,.539.539,0,0,0,.154-.1.473.473,0,0,0,0-.663A.539.539,0,0,0,85.977,34.15Z" transform="translate(-80.666 -32.246)" fill="#e2136e"/>
      <path id="Path_16098" data-name="Path 16098" d="M120.111,34.119a.467.467,0,0,0-.51.1.539.539,0,0,0-.1.154.439.439,0,0,0,0,.355.539.539,0,0,0,.1.154.473.473,0,0,0,.663,0,.539.539,0,0,0,.1-.154.392.392,0,0,0,.037-.177A.467.467,0,0,0,120.111,34.119Z" transform="translate(-112.932 -32.22)" fill="#e2136e"/>
      <path id="Path_16099" data-name="Path 16099" d="M178.467,34.133H162.6a.467.467,0,0,0,0,.933h15.867a.467.467,0,0,0,0-.933Z" transform="translate(-153.267 -32.266)" fill="#e2136e"/>
      <path id="Path_16100" data-name="Path 16100" d="M87.865,135.171a.428.428,0,0,0,.069.052,9.291,9.291,0,0,0,13.54,0,.438.438,0,0,0,.065-.047.456.456,0,0,0,.04-.068,9.277,9.277,0,0,0,0-12.576h0a.454.454,0,0,0-.04-.068.417.417,0,0,0-.07-.052,9.291,9.291,0,0,0-13.533,0,.415.415,0,0,0-.07.052.455.455,0,0,0-.04.068,9.277,9.277,0,0,0,0,12.576A.45.45,0,0,0,87.865,135.171Zm9.381,1.646a8.575,8.575,0,0,0,1.589-2.94h0a8.544,8.544,0,0,1,1.649,1.014A8.4,8.4,0,0,1,97.246,136.817Zm3.882-2.6a9.465,9.465,0,0,0-2.028-1.244,16.636,16.636,0,0,0,.489-3.687h3.488A8.354,8.354,0,0,1,101.127,134.212Zm1.949-5.864H99.588a16.643,16.643,0,0,0-.489-3.687,9.464,9.464,0,0,0,2.028-1.243A8.353,8.353,0,0,1,103.076,128.349Zm-2.593-5.61a8.541,8.541,0,0,1-1.649,1.014,8.576,8.576,0,0,0-1.589-2.941A8.4,8.4,0,0,1,100.483,122.739Zm-5.317-2.258c1.144.3,2.156,1.675,2.793,3.622a9.909,9.909,0,0,1-2.793.532Zm0,5.087a10.792,10.792,0,0,0,3.05-.56,15.8,15.8,0,0,1,.438,3.341H95.167Zm0,3.714h3.488a15.8,15.8,0,0,1-.438,3.34,10.792,10.792,0,0,0-3.05-.559Zm0,3.715a9.909,9.909,0,0,1,2.793.532c-.637,1.947-1.649,3.322-2.793,3.622Zm-6.25,1.892a8.544,8.544,0,0,1,1.649-1.012h0a8.576,8.576,0,0,0,1.589,2.94A8.4,8.4,0,0,1,88.916,134.889Zm5.317,2.261c-1.144-.3-2.155-1.675-2.793-3.622A9.908,9.908,0,0,1,94.233,133Zm0-5.087a10.793,10.793,0,0,0-3.05.56,15.8,15.8,0,0,1-.438-3.341h3.488Zm0-3.714H90.745a15.8,15.8,0,0,1,.438-3.34,10.791,10.791,0,0,0,3.05.559Zm0-7.868v4.154a9.909,9.909,0,0,1-2.793-.532C92.078,122.155,93.089,120.78,94.233,120.48Zm-2.079.33a8.575,8.575,0,0,0-1.589,2.943h0a8.542,8.542,0,0,1-1.649-1.015A8.4,8.4,0,0,1,92.154,120.811Zm-3.882,2.608a9.463,9.463,0,0,0,2.028,1.244,16.637,16.637,0,0,0-.489,3.687H86.324A8.353,8.353,0,0,1,88.272,123.418Zm1.54,5.864a16.642,16.642,0,0,0,.489,3.687,9.464,9.464,0,0,0-2.028,1.243,8.353,8.353,0,0,1-1.949-4.929h3.488Z" transform="translate(-80.7 -112.949)" fill="#e2136e"/>
    </g>
  </g>
</svg>
