<svg xmlns="http://www.w3.org/2000/svg" xmlns:xlink="http://www.w3.org/1999/xlink" width="212.56" height="162.21" viewBox="0 0 212.56 162.21">
  <defs>
    <linearGradient id="linear-gradient" x1="0.871" y1="1" x2="0.871" gradientUnits="objectBoundingBox">
      <stop offset="0" stop-color="gray" stop-opacity="0.251"/>
      <stop offset="0.54" stop-color="gray" stop-opacity="0.122"/>
      <stop offset="1" stop-color="gray" stop-opacity="0.102"/>
    </linearGradient>
  </defs>
  <g id="undraw_Calculator_0evy" transform="translate(-0.023 0.02)">
    <path id="Path_15634" data-name="Path 15634" d="M207.7,93.648c-13.391-.466-26.144-4.788-38.325-9.518s-24.241-9.969-37.311-12.476c-8.407-1.612-18.019-1.839-24.793,2.667-6.517,4.345-8.624,11.825-9.758,18.772-.85,5.226-1.351,10.728.983,15.621,1.62,3.4,4.5,6.253,6.489,9.505,6.923,11.322,2.03,25.292-5.471,36.339C96,159.745,91.913,164.7,89.2,170.212s-3.973,11.845-1.6,17.477c2.357,5.586,7.97,9.774,14.051,12.722,12.348,6,26.9,7.7,41.093,8.673,31.412,2.15,62.994,1.219,94.489.288,11.657-.346,23.364-.7,34.832-2.5,6.366-1,12.942-2.588,17.564-6.414,5.868-4.868,7.322-13.112,3.391-19.217-6.6-10.24-24.828-12.783-29.444-23.771-2.539-6.05.068-12.787,3.755-18.4,7.912-12.034,21.172-22.592,21.872-36.347.48-9.447-5.895-18.909-15.752-23.38-10.333-4.684-24.659-4.095-32.277,3.66C233.315,90.985,219.518,94.061,207.7,93.648Z" transform="translate(-86.32 -68.011)" fill="#e2136e" opacity="0.1"/>
    <ellipse id="Ellipse_1280" data-name="Ellipse 1280" cx="76.757" cy="5.706" rx="76.757" ry="5.706" transform="translate(43.222 144.61)" fill="#e2136e" opacity="0.1"/>
    <path id="Path_15635" data-name="Path 15635" d="M379.26,695.011s4.345-.7,6.952,2.377c0,0-1.912,1.506-6.025-.579Z" transform="translate(-318.631 -563.178)" fill="#e2136e"/>
    <path id="Path_15636" data-name="Path 15636" d="M370.152,695s-2.77,3.418-1.411,7.211c0,0,2.259-.906,2.506-5.512Z" transform="translate(-309.991 -563.222)" fill="#e2136e"/>
    <path id="Path_15637" data-name="Path 15637" d="M365,663.6s1.738-3.186,8.69,1.275a3.9,3.9,0,0,1-4,1.97C366.622,666.674,365.807,665.294,365,663.6Z" transform="translate(-307.322 -537.448)" fill="#e2136e"/>
    <path id="Path_15638" data-name="Path 15638" d="M347.646,666.707s-3.606-.414-3.956,7.844a3.9,3.9,0,0,0,3.91-2.137C349.225,669.8,348.554,668.337,347.646,666.707Z" transform="translate(-290.421 -540.78)" fill="#e2136e"/>
    <path id="Path_15639" data-name="Path 15639" d="M352.66,623.18s2.028-5.62,9.385-1.622c0,0-1.68,5.156-8.632,3.534Z" transform="translate(-297.535 -503.837)" fill="#e2136e"/>
    <path id="Path_15640" data-name="Path 15640" d="M341.73,584.137s3.826-5.68,10.6-.414c0,0-2.375,5.33-10.025,2.433Z" transform="translate(-288.866 -473.194)" fill="#e2136e"/>
    <path id="Path_15641" data-name="Path 15641" d="M337.81,546.767s4.463-5.214,11.183,0c0,0-4.229,4.577-11.183,1.332Z" transform="translate(-285.757 -443.822)" fill="#e2136e"/>
    <path id="Path_15642" data-name="Path 15642" d="M334.45,508.515s4.521-5.446,10.951-.29c0,0-5.1,4.808-10.951,1.564Z" transform="translate(-283.092 -413.332)" fill="#e2136e"/>
    <path id="Path_15643" data-name="Path 15643" d="M336.41,469.816s4.759-7.012,10.778-2.259c0,0-5.1,6.025-10.778,3.592Z" transform="translate(-284.647 -381.528)" fill="#e2136e"/>
    <path id="Path_15644" data-name="Path 15644" d="M341.73,431.954s5.042-6.952,10.893-1.622c0,0-5.967,6.027-10.893,2.9Z" transform="translate(-288.866 -351.721)" fill="#e2136e"/>
    <path id="Path_15645" data-name="Path 15645" d="M348.861,393.676s5.967-6.532,11.173-3.931c0,0-6.22,6.938-11.434,5.663Z" transform="translate(-294.315 -320.64)" fill="#e2136e"/>
    <path id="Path_15646" data-name="Path 15646" d="M358.068,355.605s6.894-7.995,10.891-5.33c0,0-5.073,6.207-11.38,6.828Z" transform="translate(-301.437 -289.391)" fill="#e2136e"/>
    <path id="Path_15647" data-name="Path 15647" d="M371.389,320.05s6.027-6.534,10.43-4.912c0,0-5.156,6.778-11.239,6.952Z" transform="translate(-311.747 -261.75)" fill="#e2136e"/>
    <path id="Path_15648" data-name="Path 15648" d="M386.55,283.82s6.662-6.259,9.559-5.158c0,0-4.808,6.954-9.849,6.549Z" transform="translate(-324.183 -232.923)" fill="#e2136e"/>
    <path id="Path_15649" data-name="Path 15649" d="M400.54,244.451s5.735-7.473,8.864-6.894c0,0-3.476,6.662-8.864,7.655Z" transform="translate(-335.508 -200.401)" fill="#e2136e"/>
    <path id="Path_15650" data-name="Path 15650" d="M413.719,204.587s5.069-5.731,7.806-5.717c0,0-4,7.655-8.015,7.585Z" transform="translate(-345.795 -169.743)" fill="#e2136e"/>
    <path id="Path_15651" data-name="Path 15651" d="M420.413,151.086l4.9-11.936s.246,10.79-5.518,14.15Z" transform="translate(-350.775 -122.38)" fill="#e2136e"/>
    <path id="Path_15652" data-name="Path 15652" d="M432.275,91.916s.811-9.964.29-10.776c0,0,3.5,8.276-.325,15.178Z" transform="translate(-360.649 -76.372)" fill="#e2136e"/>
    <path id="Path_15653" data-name="Path 15653" d="M319.675,631.809s-5.077-3.147-8.365,4.552c0,0,4.519,3,8.961-2.588Z" transform="translate(-264.74 -512.601)" fill="#e2136e"/>
    <path id="Path_15654" data-name="Path 15654" d="M305.541,590.883s-6.228-2.841-9.251,5.2c0,0,4.813,3.311,9.818-3.166Z" transform="translate(-252.828 -480.261)" fill="#e2136e"/>
    <path id="Path_15655" data-name="Path 15655" d="M293.583,549.117s-4.461-5.214-11.173,0c0,0,4.229,4.577,11.173,1.332Z" transform="translate(-241.82 -445.685)" fill="#e2136e"/>
    <path id="Path_15656" data-name="Path 15656" d="M291.741,508.515s-4.519-5.446-10.951-.29c0,0,5.1,4.808,10.951,1.564Z" transform="translate(-240.535 -413.332)" fill="#e2136e"/>
    <path id="Path_15657" data-name="Path 15657" d="M297.85,465.368s-3.17-7.862-10.06-4.475c0,0,3.724,6.962,9.78,5.777Z" transform="translate(-246.087 -376.881)" fill="#e2136e"/>
    <path id="Path_15658" data-name="Path 15658" d="M304.8,425.513s-3.149-7.989-10.138-4.283c0,0,4.279,7.322,9.828,5.518Z" transform="translate(-251.535 -345.319)" fill="#e2136e"/>
    <path id="Path_15659" data-name="Path 15659" d="M326.135,374.712s-1.241-8.758-7.035-9.542c0,0,1.227,9.236,6.253,11.121Z" transform="translate(-270.918 -301.635)" fill="#e2136e"/>
    <path id="Path_15660" data-name="Path 15660" d="M340.434,336.338s-.484-10.552-5.274-10.918c0,0,.161,8.009,4.734,12.414Z" transform="translate(-283.656 -270.11)" fill="#e2136e"/>
    <path id="Path_15661" data-name="Path 15661" d="M353.89,300.659s-1.43-8.775-6-9.849c0,0,.567,8.5,5.549,12Z" transform="translate(-293.752 -242.661)" fill="#e2136e"/>
    <path id="Path_15662" data-name="Path 15662" d="M377.863,264.2s-.05-9.139-2.841-10.484c0,0-1.734,8.276,2.032,11.651Z" transform="translate(-314.954 -213.245)" fill="#e2136e"/>
    <path id="Path_15663" data-name="Path 15663" d="M388.543,229.388s-.391-9.412-3.284-10.738c0,0-.991,7.449,2.849,11.355Z" transform="translate(-323.298 -185.431)" fill="#e2136e"/>
    <path id="Path_15664" data-name="Path 15664" d="M405.9,193.9s-.019-7.655-2.081-9.449c0,0-2.055,8.386,1,10.991Z" transform="translate(-337.575 -158.307)" fill="#e2136e"/>
    <path id="Path_15665" data-name="Path 15665" d="M410.984,146.153l-2.007-12.743s-2.729,10.44,2.1,15.04Z" transform="translate(-341.591 -117.827)" fill="#e2136e"/>
    <path id="Path_15666" data-name="Path 15666" d="M404.154,97.328S399,88.762,399.1,87.81c0,0,.548,8.978,7.035,13.449Z" transform="translate(-334.368 -81.662)" fill="#e2136e"/>
    <path id="Path_15667" data-name="Path 15667" d="M399.348,71.155S394.481,58.989,392.28,58a15.42,15.42,0,0,1,7.473,12.8Z" transform="translate(-328.957 -58.02)" fill="#e2136e"/>
    <path id="Path_15668" data-name="Path 15668" d="M412.111,142.247l-.331-.1c4.107-13.391,5.131-21.932,2.884-24.071l.24-.252C417.286,120.079,416.319,128.525,412.111,142.247Z" transform="translate(-344.423 -105.463)" fill="#444053"/>
    <path id="Path_15669" data-name="Path 15669" d="M356.842,263.445l-.492-.174c.434-1.227.906-2.473,1.4-3.7,4.287-10.691,7.935-20.622,10.275-28.255l.428-.207c-2.344,7.633-5.928,17.957-10.219,28.656C357.742,260.987,357.275,262.224,356.842,263.445Z" transform="translate(-300.461 -195.313)" fill="#444053"/>
    <path id="Path_15670" data-name="Path 15670" d="M347.922,456.7a67.659,67.659,0,0,1-11.363-20.368A75.4,75.4,0,0,1,332.069,413c-.317-9.958,1.771-21.079,5.353-31.178l.389.455c-8.036,22.668-4.844,42.095-.608,53.791a67.047,67.047,0,0,0,11.237,20.169Z" transform="translate(-281.179 -314.84)" fill="#444053"/>
    <path id="Path_15671" data-name="Path 15671" d="M241.692,735.781s-7.873-.474-6.944,5.042a1.345,1.345,0,0,0,.7,1.417s.012-.414.807-.271a3.629,3.629,0,0,0,.855.041,1.783,1.783,0,0,0,1.047-.43h0s2.212-.914,3.073-4.531c0,0,.637-.788.61-.991l-1.328.567a2.376,2.376,0,0,1,.1,1.755s-.043-1.719-.3-1.68c-.052,0-.691.333-.691.333a3.923,3.923,0,0,1,.192,2.882s.223-2.057-.434-2.762l-.935.546a4.128,4.128,0,0,1,.294,3.13s.157-2.158-.49-3l-.848.662a4.044,4.044,0,0,1,.335,2.866s-.068-2.512-.519-2.7a5.191,5.191,0,0,0-.854.923s.588,1.241.223,1.885c0,0-.223-1.674-.414-1.682a5.571,5.571,0,0,0-.815,1.862,4.026,4.026,0,0,1,.635-1.974,2.216,2.216,0,0,0-1.13.586s.114-.784,1.312-.852a5.659,5.659,0,0,1,.774-.894,4.853,4.853,0,0,0-1.914.221,2.168,2.168,0,0,1,2.133-.414l.828-.683a7.141,7.141,0,0,0-2.235.023,2.72,2.72,0,0,1,2.46-.178l.91-.544a8.283,8.283,0,0,0-2.135-.184,3.28,3.28,0,0,1,2.4.037l.652-.292s-.981-.192-1.266-.224-.3-.11-.3-.11a3.392,3.392,0,0,1,1.841.207A8.428,8.428,0,0,0,241.692,735.781Z" transform="translate(-203.959 -595.557)" fill="#e2136e"/>
    <path id="Path_15672" data-name="Path 15672" d="M131.1,748.151s-7.862-.474-6.942,5.042a1.343,1.343,0,0,0,.7,1.417s.014-.414.809-.271a3.521,3.521,0,0,0,.855.041,1.77,1.77,0,0,0,1.045-.43h0s2.214-.914,3.075-4.531c0,0,.635-.788.621-.991l-1.328.567a2.376,2.376,0,0,1,.1,1.755s-.043-1.719-.3-1.68c-.052,0-.691.333-.691.333a3.923,3.923,0,0,1,.192,2.882s.223-2.057-.437-2.762l-.935.546a4.127,4.127,0,0,1,.294,3.13s.159-2.158-.49-3l-.846.662a4.044,4.044,0,0,1,.335,2.866s-.068-2.512-.519-2.7a5.191,5.191,0,0,0-.854.923s.588,1.241.223,1.885c0,0-.223-1.674-.414-1.682a5.615,5.615,0,0,0-.815,1.862,4.039,4.039,0,0,1,.637-1.974,2.227,2.227,0,0,0-1.132.586s.116-.784,1.314-.852a5.564,5.564,0,0,1,.774-.892,4.835,4.835,0,0,0-1.914.219,2.168,2.168,0,0,1,2.133-.414l.828-.683a7.141,7.141,0,0,0-2.235.023,2.72,2.72,0,0,1,2.46-.178l.91-.544a8.288,8.288,0,0,0-2.135-.184,3.28,3.28,0,0,1,2.4.037l.652-.292s-.981-.192-1.268-.223-.3-.11-.3-.11a3.416,3.416,0,0,1,1.841.207A8.513,8.513,0,0,0,131.1,748.151Z" transform="translate(-116.255 -605.368)" fill="#e2136e"/>
    <path id="Path_15673" data-name="Path 15673" d="M192.737,777.191s-7.862-.474-6.944,5.042a1.346,1.346,0,0,0,.7,1.417s.014-.414.807-.271a3.63,3.63,0,0,0,.857.041,1.784,1.784,0,0,0,1.045-.43h0s2.212-.914,3.073-4.531c0,0,.637-.788.621-.991l-1.328.567a2.387,2.387,0,0,1,.1,1.755s-.043-1.719-.3-1.68c-.052,0-.689.333-.689.333a3.925,3.925,0,0,1,.19,2.882s.223-2.057-.434-2.762l-.935.546a4.127,4.127,0,0,1,.294,3.13s.159-2.158-.49-3l-.848.662a4.032,4.032,0,0,1,.335,2.866s-.068-2.512-.517-2.7a5.112,5.112,0,0,0-.855.923s.588,1.241.221,1.885c0,0-.223-1.674-.414-1.682a5.57,5.57,0,0,0-.815,1.862,4.026,4.026,0,0,1,.635-1.974,2.216,2.216,0,0,0-1.13.586s.114-.784,1.314-.852a5.142,5.142,0,0,1,.772-.894,4.853,4.853,0,0,0-1.914.221,2.155,2.155,0,0,1,2.133-.4l.828-.683a7.139,7.139,0,0,0-2.235.023,2.722,2.722,0,0,1,2.46-.178l.912-.544a8.325,8.325,0,0,0-2.129-.178,3.278,3.278,0,0,1,2.4.037l.65-.292s-.979-.192-1.266-.224-.3-.11-.3-.11a3.392,3.392,0,0,1,1.841.207A8.353,8.353,0,0,0,192.737,777.191Z" transform="translate(-165.135 -628.4)" fill="#e2136e"/>
    <ellipse id="Ellipse_1281" data-name="Ellipse 1281" cx="5.572" cy="0.941" rx="5.572" ry="0.941" transform="translate(15.894 154.889)" fill="#e2136e" opacity="0.1"/>
    <ellipse id="Ellipse_1282" data-name="Ellipse 1282" cx="5.572" cy="0.941" rx="5.572" ry="0.941" transform="translate(192.627 154.889)" fill="#e2136e" opacity="0.1"/>
    <ellipse id="Ellipse_1283" data-name="Ellipse 1283" cx="5.572" cy="0.941" rx="5.572" ry="0.941" transform="translate(139.269 160.308)" fill="#e2136e" opacity="0.1"/>
    <ellipse id="Ellipse_1284" data-name="Ellipse 1284" cx="5.572" cy="0.941" rx="5.572" ry="0.941" transform="translate(201.439 146.729)" fill="#e2136e" opacity="0.1"/>
    <ellipse id="Ellipse_1285" data-name="Ellipse 1285" cx="5.572" cy="0.941" rx="5.572" ry="0.941" transform="translate(26.738 146.141)" fill="#e2136e" opacity="0.1"/>
    <ellipse id="Ellipse_1286" data-name="Ellipse 1286" cx="5.572" cy="0.941" rx="5.572" ry="0.941" transform="translate(3.848 148.783)" fill="#e2136e" opacity="0.1"/>
    <rect id="Rectangle_5846" data-name="Rectangle 5846" width="89.248" height="132.704" rx="9.8" transform="translate(62.657 16.483)" fill="#c13171"/>
    <rect id="Rectangle_5847" data-name="Rectangle 5847" width="74.016" height="26.089" rx="13.044" transform="translate(70.825 27.889)" opacity="0.1"/>
    <rect id="Rectangle_5848" data-name="Rectangle 5848" width="72.894" height="25.232" rx="10.2" transform="translate(71.301 28.398)" fill="#e6e8ec"/>
    <rect id="Rectangle_5849" data-name="Rectangle 5849" width="14.719" height="16.354" rx="7.36" transform="translate(73.403 64.844)" opacity="0.1"/>
    <rect id="Rectangle_5850" data-name="Rectangle 5850" width="14.719" height="16.354" rx="7.36" transform="translate(91.393 64.844)" opacity="0.1"/>
    <rect id="Rectangle_5851" data-name="Rectangle 5851" width="14.719" height="16.354" rx="7.36" transform="translate(109.384 64.844)" opacity="0.1"/>
    <rect id="Rectangle_5852" data-name="Rectangle 5852" width="14.719" height="16.354" rx="7.36" transform="translate(127.374 65.192)" opacity="0.1"/>
    <rect id="Rectangle_5853" data-name="Rectangle 5853" width="14.719" height="16.354" rx="7.36" transform="translate(127.374 64.844)" fill="#e2136e"/>
    <rect id="Rectangle_5854" data-name="Rectangle 5854" width="14.719" height="16.354" rx="7.36" transform="translate(73.403 82.835)" opacity="0.1"/>
    <rect id="Rectangle_5855" data-name="Rectangle 5855" width="14.719" height="16.354" rx="7.36" transform="translate(91.393 82.835)" opacity="0.1"/>
    <rect id="Rectangle_5856" data-name="Rectangle 5856" width="14.719" height="16.354" rx="7.36" transform="translate(109.384 82.835)" opacity="0.1"/>
    <rect id="Rectangle_5857" data-name="Rectangle 5857" width="14.719" height="16.354" rx="7.36" transform="translate(73.403 102.693)" opacity="0.1"/>
    <rect id="Rectangle_5858" data-name="Rectangle 5858" width="14.719" height="16.354" rx="7.36" transform="translate(91.393 102.693)" opacity="0.1"/>
    <rect id="Rectangle_5859" data-name="Rectangle 5859" width="14.719" height="16.354" rx="7.36" transform="translate(109.384 102.693)" opacity="0.1"/>
    <rect id="Rectangle_5860" data-name="Rectangle 5860" width="14.719" height="16.354" rx="7.36" transform="translate(109.384 122.552)" opacity="0.1"/>
    <rect id="Rectangle_5861" data-name="Rectangle 5861" width="14.719" height="16.354" rx="7.36" transform="translate(127.374 83.182)" opacity="0.1"/>
    <rect id="Rectangle_5862" data-name="Rectangle 5862" width="14.719" height="16.354" rx="7.36" transform="translate(127.374 82.835)" fill="#e2136e"/>
    <rect id="Rectangle_5863" data-name="Rectangle 5863" width="14.719" height="16.354" rx="7.36" transform="translate(127.374 82.835)" opacity="0.2"/>
    <rect id="Rectangle_5864" data-name="Rectangle 5864" width="32.709" height="16.354" rx="8.177" transform="translate(73.403 122.552)" opacity="0.1"/>
    <rect id="Rectangle_5865" data-name="Rectangle 5865" width="16.12" height="36.214" rx="8.06" transform="translate(125.971 102.693)" opacity="0.1"/>
    <rect id="Rectangle_5866" data-name="Rectangle 5866" width="6.443" height="0.697" transform="translate(134.479 49.223)" fill="#e2136e"/>
    <rect id="Rectangle_5867" data-name="Rectangle 5867" width="6.443" height="0.697" transform="translate(125.046 49.223)" fill="#e2136e"/>
    <rect id="Rectangle_5868" data-name="Rectangle 5868" width="6.443" height="0.697" transform="translate(115.612 49.223)" fill="#e2136e"/>
    <rect id="Rectangle_5869" data-name="Rectangle 5869" width="6.443" height="0.697" transform="translate(106.179 49.223)" fill="#e2136e"/>
    <path id="Path_15674" data-name="Path 15674" d="M802.768,418.466a8.778,8.778,0,0,0,0-4.469v-2.108a7.362,7.362,0,0,0-2.63-6.766l-2.247-1.982a8.386,8.386,0,0,0-1.626-1.15,1.641,1.641,0,0,0-.207-.031l-.066-.039a6.759,6.759,0,0,1-.492-1.035.958.958,0,0,0,.8-.273,1.035,1.035,0,0,0,.188-.317h0c.13-.292.153-.646.263-.956a2.278,2.278,0,0,1,.414-.687c-.023.037-.048.072-.068.112.319-.4.734-.737,1.035-1.155a2.579,2.579,0,0,0,.163-.259c-.012.019-.029.035-.043.054a5.883,5.883,0,0,0,.66-2.245,2.019,2.019,0,0,0,.012-.8,2.916,2.916,0,0,0-.223-.509c-.488-1.008-.48-2.276-1.26-3.081a3.8,3.8,0,0,0-2.315-.89,6.017,6.017,0,0,1-2.439-.6,2.575,2.575,0,0,0-.66-.362.542.542,0,0,0-.648.24.426.426,0,0,1-.087.176.282.282,0,0,1-.248.014l-1.115-.3.012.056h-.029l.041.176a.1.1,0,0,1,.105.06l-.18.277a2.8,2.8,0,0,1-1.006-.207.233.233,0,0,0,0,.054h-.016c-.021.314.337.519.447.815a.62.62,0,0,1,0,.4.873.873,0,0,1-.207.319c-.4.391-.9.315-1.357.561a.294.294,0,0,0-.166.184.135.135,0,0,0-.014.1.24.24,0,0,0,.093.116,2.071,2.071,0,0,0,.432.269c-.046.041-.089.083-.13.126a4.986,4.986,0,0,0,1.723,8.135c.017.087.029.176.042.269v.027l.012.12-1.5.639a1.2,1.2,0,0,1-1.076-.693c-.35-.722-1.585,0-1.585,0s-3.768-.281-5.173.414c0,0-2.249-.943-2.566-1.008s-.79-.314-1.012-.25-.507-.414-.666-.379-.221-.314-.728-.441-.7.033-1.266-.534a50.286,50.286,0,0,0-5.2-2.8l-2.077-1.709-2.216-1.763-.039.072c-.014-.052-.029-.105-.044-.163a21.226,21.226,0,0,0-.828-2.584c-.143-.341-.207-.772-.4-.544-.118.137-.319-.163-.621-.366a.523.523,0,0,0-.78.228h0c-1.726,2.706-2.344,2.9-1.345,3.892.892.883,1.484,1.655,2.21,1.9l.087.027a.093.093,0,0,1-.048,0l4.213,5.036a25.18,25.18,0,0,0,5.131,3.493c2.092.848,1.93,1.1,1.93,1.1s6.335,3.209,7.316,3.147.792,6.577.381,7.655-1.076,8.812-1.076,8.812a3.685,3.685,0,0,0,.031,2.768,17.489,17.489,0,0,1,.015,2.69,9.245,9.245,0,0,0-1.535,3.954,2.292,2.292,0,0,1-.025.24.558.558,0,0,1-.149.122l.141-.041a7.965,7.965,0,0,1-.414,1.9,7.719,7.719,0,0,0-.524,2.7v5l-.414,3.1s-.507,2.348,0,2.9a1.341,1.341,0,0,1,.277.964,1.8,1.8,0,0,0,.323,1.126.842.842,0,0,1,.207.722c-.168.544.248,6.335.248,6.335a6.442,6.442,0,0,1-.29,1.68c-.168.085.29,1.846.29,1.846s-1.711,1.428-1.274,2.183l.437.67-.116.114-.07.072a.674.674,0,0,0-.437-.083,16.677,16.677,0,0,1-1.721,1.533,18.7,18.7,0,0,1-2.872,1.364l-1.655.134H771.2s-.792-.074-.348,1.152,4.422.85,4.422.85l2.322-.366a44.126,44.126,0,0,0,5.324-.242c.495-.11.621-.374.579-.641h0l-.012-.012a1.655,1.655,0,0,0-.339-.693.264.264,0,0,0-.029-.037l.075-.848c1.757-1.012-.5-3-.5-3a20.834,20.834,0,0,1,1.167-2.222c.4-.544.4-8.562.4-8.562s.207-2.9-.337-3.567a1.206,1.206,0,0,1,.592-1.09c.391-.267,1.572-3.944,2.5-7l.583,3.6a5.119,5.119,0,0,0,.252,2.224.857.857,0,0,1,.157.67,3.02,3.02,0,0,0,.085,1.448.959.959,0,0,0,.308.517c.337.168.358.766.484.892s.908-.178.95.283a10.453,10.453,0,0,1,0,1.217l.254,7.469a4.962,4.962,0,0,0-.507,2.276,2.927,2.927,0,0,1-.3,1.337.685.685,0,0,0,.062.8l.072.085-.312.24a.689.689,0,0,0-.194.85.668.668,0,0,0-.193.724.5.5,0,0,0,.054.118,1.175,1.175,0,0,0-.631.312,5.17,5.17,0,0,1-1.115,1.121,21.477,21.477,0,0,0-1.777,1.523,2.552,2.552,0,0,1-1.035.828,1.708,1.708,0,0,1-.312.093c-.828.17-.569,1.035.106,1.177a11.25,11.25,0,0,0,4.655.428,1.644,1.644,0,0,0,1.277-.178,18.751,18.751,0,0,1,2.454-.857s.95,0,1.078-.377a1.477,1.477,0,0,0,.054-.368l.027-.027-.025-.023a5.014,5.014,0,0,0-.064-.842c-.025-.145-.052-.273-.077-.377-.081-.314-.232-.722-.3-.894a.308.308,0,0,0,.029-.043c.362-.621-.24-2.094-.24-2.094a4.014,4.014,0,0,1,.714-.846c.337-.252,1.225-6.8,1.225-6.8a5.942,5.942,0,0,1,.414-2.433c.457-.755-.633-5.328-.633-5.328s-.466-1.049-.3-1.428a5.017,5.017,0,0,0-.17-1.763v-1.655a1.828,1.828,0,0,0-.1-.579,2.742,2.742,0,0,1-.114-1.672c.3-.755.97-5.413.97-5.413a6.232,6.232,0,0,1,.246-3.691,3.2,3.2,0,0,1,.207-.379c.573-.9.4-2.5.118-3.788-.041-.207-.089-.393-.137-.573-.019-.079-.039-.153-.06-.228l.091-.037a2.683,2.683,0,0,1,.029-.331,2.326,2.326,0,0,0,1.523-1.053,17.031,17.031,0,0,1,3.641-3.085,3.166,3.166,0,0,0,1.837-2.235c-.252-.441.453-2.235.453-2.235Zm-6.735-16.476Zm1.161,19.372-1.829,2.121v-.012c-.476-.662.443-2.141.443-2.141l1.521-3.393a1.919,1.919,0,0,1-.207,1c-.414.567.761,1.513.761,1.513C797.256,420.451,797.194,421.363,797.194,421.363Z" transform="translate(-620.701 -320.298)" fill="url(#linear-gradient)"/>
    <path id="Path_15675" data-name="Path 15675" d="M766.784,396.26l-1,1.939a3.932,3.932,0,0,1-.929-.194,3.517,3.517,0,0,1-2.183-1.887,2.744,2.744,0,0,1,1.27-3.619c.687-.377,1.326-.8,1.841.43a21.353,21.353,0,0,1,.809,2.568C766.713,395.949,766.784,396.26,766.784,396.26Z" transform="translate(-622.493 -323)" fill="#cc818c"/>
    <path id="Path_15676" data-name="Path 15676" d="M906.812,437.1l-1.6,2.375s-7.537,3.6-6.1-.621a9.475,9.475,0,0,0,.594-4.163v-.027a3.349,3.349,0,0,0-.592-1.688s7.347-3.762,6.253-1.19a3.542,3.542,0,0,0-.259,1.693,5.768,5.768,0,0,0,.79,2.348A7.8,7.8,0,0,0,906.812,437.1Z" transform="translate(-730.784 -353.752)" fill="#cc818c"/>
    <path id="Path_15677" data-name="Path 15677" d="M861.471,603.11s1.084,4.552.621,5.295a5.753,5.753,0,0,0-.414,2.419s-.875,6.505-1.208,6.753a3.97,3.97,0,0,0-.71.828s.6,1.473.238,2.081a.505.505,0,0,1-.238.207c-.559.236-2.624-.811-3.8-1.448a.67.67,0,0,1-.12-1.092.683.683,0,0,1,.19-.844l.31-.24-.072-.085a.685.685,0,0,1-.062-.8,2.9,2.9,0,0,0,.3-1.326,4.858,4.858,0,0,1,.5-2.251l-.25-7.424a10.337,10.337,0,0,0,0-1.208c-.041-.457-.813-.155-.937-.281s-.147-.718-.48-.886a.949.949,0,0,1-.3-.515,2.976,2.976,0,0,1-.085-1.448.855.855,0,0,0-.155-.666,5.1,5.1,0,0,1-.25-2.208l-.575-3.575c-.917,3.033-2.081,6.687-2.468,6.952a1.2,1.2,0,0,0-.583,1.082c.542.668.333,3.546.333,3.546s0,7.962-.391,8.506a20.579,20.579,0,0,0-1.148,2.218s2.235,1.988.476,2.992h-.019c-1.794,1-5.5-1.792-5.5-1.792l.387-.387.114-.114-.439-.654c-.43-.751,1.258-2.168,1.258-2.168s-.451-1.752-.286-1.835a6.406,6.406,0,0,0,.286-1.668s-.414-5.754-.244-6.3a.849.849,0,0,0-.207-.718,1.785,1.785,0,0,1-.319-1.117,1.328,1.328,0,0,0-.275-.958c-.5-.542,0-2.876,0-2.876l.414-3.087v-4.9a7.814,7.814,0,0,1,.523-2.766,8.278,8.278,0,0,0,.455-2.22,9.308,9.308,0,0,1,1.558-3.991c.3-.464.528-.741.528-.741l13.341-.521s.207.594.43,1.419c.045.18.091.37.134.569.279,1.283.447,2.872-.118,3.766a3.507,3.507,0,0,0-.207.377,6.234,6.234,0,0,0-.242,3.668s-.666,4.626-.958,5.38a2.7,2.7,0,0,0,.114,1.655,1.883,1.883,0,0,1,.093.577v1.649a5.016,5.016,0,0,1,.168,1.752C861.01,602.069,861.471,603.11,861.471,603.11Z" transform="translate(-687.738 -472.714)" fill="#444053"/>
    <path id="Path_15678" data-name="Path 15678" d="M923.527,594.9a3.167,3.167,0,0,0-.207.375l-.751-.041c.072-.387-.439-4.014-.439-4.014l1.512-.085C923.922,592.411,924.091,594,923.527,594.9Z" transform="translate(-749.179 -480.843)" opacity="0.1"/>
    <path id="Path_15679" data-name="Path 15679" d="M924.127,594.286a3.485,3.485,0,0,0-.207.377l-.751-.043c.072-.385-.439-4.014-.439-4.014l1.512-.085C924.524,591.8,924.691,593.392,924.127,594.286Z" transform="translate(-749.655 -480.359)" fill="#444053"/>
    <path id="Path_15680" data-name="Path 15680" d="M924.127,594.286a3.485,3.485,0,0,0-.207.377l-.751-.043c.072-.385-.439-4.014-.439-4.014l1.512-.085C924.524,591.8,924.691,593.392,924.127,594.286Z" transform="translate(-749.655 -480.359)" opacity="0.05"/>
    <path id="Path_15681" data-name="Path 15681" d="M902.129,766.1a.505.505,0,0,1-.238.207c-.559.236-2.624-.811-3.8-1.448a.676.676,0,0,1-.312-.372c.67-.122,1.109.621,1.109.621a.989.989,0,0,1,1.376.333c.573.844,1.8.488,1.8.488Z" transform="translate(-729.867 -618.322)" opacity="0.1"/>
    <path id="Path_15682" data-name="Path 15682" d="M882.259,769.157c-.124.377-1.064.377-1.064.377a20.026,20.026,0,0,0-2.429.854,1.661,1.661,0,0,1-1.26.178,11.157,11.157,0,0,1-4.6-.428c-.666-.137-.927-1-.1-1.167a1.666,1.666,0,0,0,.308-.1,2.517,2.517,0,0,0,1.034-.828,21.162,21.162,0,0,1,1.757-1.512,5.133,5.133,0,0,0,1.1-1.115,1.062,1.062,0,0,1,1.678.323.989.989,0,0,1,1.376.335c.573.844,1.8.486,1.8.486s.221.565.325.97c.025.1.052.232.076.377A3.418,3.418,0,0,1,882.259,769.157Z" transform="translate(-709.652 -618.822)" fill="#ff748f"/>
    <circle id="Ellipse_1287" data-name="Ellipse 1287" cx="0.114" cy="0.114" r="0.114" transform="translate(169.626 147.471)" fill="#575988"/>
    <circle id="Ellipse_1288" data-name="Ellipse 1288" cx="0.114" cy="0.114" r="0.114" transform="translate(168.647 148.388)" fill="#575988"/>
    <circle id="Ellipse_1289" data-name="Ellipse 1289" cx="0.114" cy="0.114" r="0.114" transform="translate(167.652 149.211)" fill="#575988"/>
    <circle id="Ellipse_1290" data-name="Ellipse 1290" cx="0.114" cy="0.114" r="0.114" transform="translate(168.167 148.843)" fill="#575988"/>
    <circle id="Ellipse_1291" data-name="Ellipse 1291" cx="0.114" cy="0.114" r="0.114" transform="translate(169.158 147.902)" fill="#575988"/>
    <path id="Path_15683" data-name="Path 15683" d="M882.259,779.9c-.124.377-1.064.377-1.064.377a20.019,20.019,0,0,0-2.429.855,1.661,1.661,0,0,1-1.26.178,11.157,11.157,0,0,1-4.6-.428c-.666-.137-.927-1-.1-1.167a1.666,1.666,0,0,0,.308-.1,8,8,0,0,0,2.255.428c1.7.072,3.044,0,3.044,0l1.719-.552a2.87,2.87,0,0,1,1.063-.385,2.782,2.782,0,0,0,1.057-.459A3.246,3.246,0,0,1,882.259,779.9Z" transform="translate(-709.652 -629.565)" fill="#dce6f2"/>
    <path id="Path_15684" data-name="Path 15684" d="M898.7,783.928a1.429,1.429,0,0,1-.286-.027l.025-.122a1.82,1.82,0,0,0,1.035-.145c.153-.06.306-.132.455-.207a5.764,5.764,0,0,1,.544-.236l.17-.058c.093-.033.188-.064.279-.1.052-.021.1-.046.153-.07a1.754,1.754,0,0,1,.385-.147,1.871,1.871,0,0,1,.207-.027,1.883,1.883,0,0,0,.19-.023,1.793,1.793,0,0,0,.362-.135,1.754,1.754,0,0,1,.389-.145l.091-.014a.445.445,0,0,0,.269-.1l.093.085a.561.561,0,0,1-.341.139l-.087.014a1.673,1.673,0,0,0-.362.135,1.892,1.892,0,0,1-.389.143,1.4,1.4,0,0,1-.207.025,1.829,1.829,0,0,0-.194.025,1.658,1.658,0,0,0-.358.139l-.157.072c-.1.039-.194.072-.29.106l-.166.058c-.182.066-.36.151-.534.232s-.306.145-.464.207A2.259,2.259,0,0,1,898.7,783.928Z" transform="translate(-730.367 -632.515)" fill="#575988" opacity="0.5"/>
    <path id="Path_15685" data-name="Path 15685" d="M901.73,684.379a3.1,3.1,0,0,1,2.346-1.241,9.359,9.359,0,0,0,2.115-.168,5.294,5.294,0,0,1-1.6.635A27.989,27.989,0,0,0,901.73,684.379Z" transform="translate(-733 -553.681)" opacity="0.1"/>
    <path id="Path_15686" data-name="Path 15686" d="M904.15,688.795a3.483,3.483,0,0,1,1.229-.563c.447-.021.828-.062.828-.062a2.392,2.392,0,0,1-.687.333C905.154,688.607,904.15,688.795,904.15,688.795Z" transform="translate(-734.919 -557.805)" opacity="0.1"/>
    <path id="Path_15687" data-name="Path 15687" d="M905,693s1.177.093,1.188.414" transform="translate(-735.593 -561.636)" opacity="0.1"/>
    <path id="Path_15688" data-name="Path 15688" d="M851.93,599.546a4.67,4.67,0,0,0,1.188-1.531,1.07,1.07,0,0,1,.457-.675s.679.271.075,1.1A3.349,3.349,0,0,1,851.93,599.546Z" transform="translate(-693.504 -485.768)" opacity="0.1"/>
    <path id="Path_15689" data-name="Path 15689" d="M906.017,431.763c-.24.567-.451.621-.414,1.161a4.14,4.14,0,0,1-.954.751c-.745.443-1.556,1.31-2.483,1.31a4.947,4.947,0,0,1-1.815-.343,3.348,3.348,0,0,0-.592-1.688S907.109,429.191,906.017,431.763Z" transform="translate(-731.438 -353.736)" opacity="0.1"/>
    <path id="Path_15690" data-name="Path 15690" d="M897.371,406.506a4.966,4.966,0,1,1-4.966-4.966,4.966,4.966,0,0,1,4.966,4.966Z" transform="translate(-721.667 -330.48)" fill="#cc818c"/>
    <path id="Path_15691" data-name="Path 15691" d="M906.812,451.678l-1.6,2.375s-7.537,3.6-6.1-.621a9.475,9.475,0,0,0,.594-4.163h.012a3.988,3.988,0,0,1,.151.958c.023.65.039,1.471,1.655,1.742a4.494,4.494,0,0,0,4.378-1.558A7.807,7.807,0,0,0,906.812,451.678Z" transform="translate(-730.784 -368.335)" opacity="0.1"/>
    <path id="Path_15692" data-name="Path 15692" d="M775.885,409.109l-1,1.939a3.933,3.933,0,0,1-.929-.194l-.087-.1c.414.157,1.781-2.439,1.781-2.439l.043.035C775.815,408.8,775.885,409.109,775.885,409.109Z" transform="translate(-631.595 -335.849)" opacity="0.1"/>
    <path id="Path_15693" data-name="Path 15693" d="M874.375,582.329c-3.22,1.4-14.355.207-14.355.207a1.526,1.526,0,0,0,.056-.364c.3-.463.528-.741.528-.741l13.341-.521S874.162,581.5,874.375,582.329Z" transform="translate(-699.92 -472.738)" opacity="0.1"/>
    <path id="Path_15694" data-name="Path 15694" d="M801.011,417.408l-1.486.635a1.177,1.177,0,0,1-1.062-.689c-.345-.718-1.564,0-1.564,0s-3.724-.281-5.1.414c0,0-2.22-.939-2.532-1s-.782-.312-1-.25-.5-.414-.656-.375-.219-.312-.72-.439-.687.031-1.241-.532a48.889,48.889,0,0,0-5.129-2.783l-2.069-1.688-2.189-1.75s-1.376,2.595-1.783,2.437l4.159,5.005a24.946,24.946,0,0,0,5.067,3.47c2.065.844,1.908,1.095,1.908,1.095s6.255,3.19,7.223,3.128.786,6.528.372,7.591-1.061,8.756-1.061,8.756a3.718,3.718,0,0,0,.031,2.752,15.735,15.735,0,0,1,0,2.721s11.2,1.2,14.384-.219c0,0,.47-5.191,0-5.847s.438-2.119.438-2.119l2-4.471,4.879-4.91a7.345,7.345,0,0,0-2.6-6.722l-2.22-1.972a8.222,8.222,0,0,0-1.606-1.142c-.364-.068-.23,0-.23,0a4.479,4.479,0,0,1-4.419,1.612c-1.61-.271-1.626-1.092-1.655-1.74A4.06,4.06,0,0,0,801.011,417.408Z" transform="translate(-632.079 -336.357)" fill="#67647e"/>
    <path id="Path_15695" data-name="Path 15695" d="M900.616,531.19s-6.882.281-8.256,2.444a6.775,6.775,0,0,1,3.377-.6C897.33,533.288,900.616,531.19,900.616,531.19Z" transform="translate(-725.569 -433.305)" opacity="0.1"/>
    <path id="Path_15696" data-name="Path 15696" d="M895.53,561.614s3.253.219,3.941-.47.691-1.095.691-1.095Z" transform="translate(-728.083 -456.194)" opacity="0.1"/>
    <path id="Path_15697" data-name="Path 15697" d="M931.356,499.14s-2.754,3.253.594,4.659Z" transform="translate(-755.652 -407.886)" opacity="0.1"/>
    <path id="Path_15698" data-name="Path 15698" d="M856.69,468.77s1,2.042,1.5,2.177Z" transform="translate(-697.279 -383.8)" opacity="0.1"/>
    <path id="Path_15699" data-name="Path 15699" d="M840.37,464.53a37.024,37.024,0,0,0,2.971,2.47S840.744,464.53,840.37,464.53Z" transform="translate(-684.336 -380.437)" opacity="0.1"/>
    <path id="Path_15700" data-name="Path 15700" d="M883.32,454.11s-2.408,3.6-.844,5.793A7.791,7.791,0,0,1,883.32,454.11Z" transform="translate(-717.31 -372.173)" opacity="0.1"/>
    <path id="Path_15701" data-name="Path 15701" d="M888.025,578.081l-.737.693-.1.1-.852.807c-.06.046-.12.091-.182.132-3.47,2.483-4.165-1.291-4.165-1.291s-1.531,1-1.75.188,3.565-1.97,4.138-1.908a.743.743,0,0,0,.151,0,2.369,2.369,0,0,0,.778-.275l.168-.089a6.6,6.6,0,0,0,.561-.354Z" transform="translate(-715.945 -468.907)" fill="#cc818c"/>
    <path id="Path_15702" data-name="Path 15702" d="M903.332,406.5a4.966,4.966,0,0,1-2.421,4.275,2.819,2.819,0,0,1-.182-.362c-.178-.414-.288-.861-.468-1.277a3.931,3.931,0,0,0-.828-1.217.528.528,0,0,0-.221-.153.6.6,0,0,0-.455.126,2.094,2.094,0,0,1-.693.3.737.737,0,0,1-.7-.207,1.04,1.04,0,0,1-.112-.867,10.789,10.789,0,0,0,.327-1.943,1.9,1.9,0,0,0-.828-1.693,7.424,7.424,0,0,0-1.693-.368,1.851,1.851,0,0,1-.254-.087,4.966,4.966,0,0,1,8.522,3.468Z" transform="translate(-727.512 -330.47)" opacity="0.1"/>
    <path id="Path_15703" data-name="Path 15703" d="M892.534,394.767c-.089.048-.188.134-.161.234a.236.236,0,0,0,.091.116,2.169,2.169,0,0,0,.786.4,7.023,7.023,0,0,1,1.695.368,1.918,1.918,0,0,1,.828,1.693,10.929,10.929,0,0,1-.325,1.941,1.044,1.044,0,0,0,.11.869.743.743,0,0,0,.7.207,2.069,2.069,0,0,0,.693-.3.6.6,0,0,1,.457-.128.562.562,0,0,1,.221.153,3.93,3.93,0,0,1,.828,1.219c.182.414.29.859.468,1.277a2.069,2.069,0,0,0,.828,1.035,1.043,1.043,0,0,0,1.254-.132c.306-.339.281-.8.426-1.212.248-.71.941-1.155,1.376-1.767a5.553,5.553,0,0,0,.753-2.388,1.96,1.96,0,0,0,.012-.8,2.866,2.866,0,0,0-.219-.5c-.484-1-.474-2.261-1.241-3.06a3.728,3.728,0,0,0-2.286-.886,5.891,5.891,0,0,1-2.406-.6,2.618,2.618,0,0,0-.652-.36.534.534,0,0,0-.641.24.426.426,0,0,1-.085.174.275.275,0,0,1-.246.015l-1.1-.3.126.555a2.757,2.757,0,0,1-1.169-.207c-.021.314.333.517.443.811a.751.751,0,0,1-.207.761C893.484,394.6,892.985,394.521,892.534,394.767Z" transform="translate(-725.575 -323.004)" fill="#585268"/>
    <path id="Path_15704" data-name="Path 15704" d="M850.268,759.62l-.046.5H850.2c-1.794,1-5.5-1.792-5.5-1.792l.387-.387a.675.675,0,0,1,.17.523l.757.041.906.979a17.215,17.215,0,0,0,3.116.126Z" transform="translate(-687.77 -613.14)" opacity="0.1"/>
    <path id="Path_15705" data-name="Path 15705" d="M823.915,762.323a43.382,43.382,0,0,1-5.253.242l-2.292.362s-3.931.377-4.368-.844.343-1.144.343-1.144h.031l1.637-.132a18.721,18.721,0,0,0,2.837-1.355,16.47,16.47,0,0,0,1.7-1.523s.683-.132.67.658l.757.041.906.981a17.065,17.065,0,0,0,3.116.124h.232l-.106,1.21.029.035C824.31,761.168,824.957,762.091,823.915,762.323Z" transform="translate(-661.731 -613.124)" fill="#ff748f"/>
    <circle id="Ellipse_1292" data-name="Ellipse 1292" cx="0.114" cy="0.114" r="0.114" transform="translate(157.839 146.052)" fill="#575988"/>
    <circle id="Ellipse_1293" data-name="Ellipse 1293" cx="0.114" cy="0.114" r="0.114" transform="translate(154.898 147.327)" fill="#575988"/>
    <circle id="Ellipse_1294" data-name="Ellipse 1294" cx="0.114" cy="0.114" r="0.114" transform="translate(153.384 147.786)" fill="#575988"/>
    <circle id="Ellipse_1295" data-name="Ellipse 1295" cx="0.114" cy="0.114" r="0.114" transform="translate(155.67 147.082)" fill="#575988"/>
    <circle id="Ellipse_1296" data-name="Ellipse 1296" cx="0.114" cy="0.114" r="0.114" transform="translate(154.139 147.556)" fill="#575988"/>
    <circle id="Ellipse_1297" data-name="Ellipse 1297" cx="0.114" cy="0.114" r="0.114" transform="translate(156.45 146.72)" fill="#575988"/>
    <circle id="Ellipse_1298" data-name="Ellipse 1298" cx="0.114" cy="0.114" r="0.114" transform="translate(157.222 146.385)" fill="#575988"/>
    <path id="Path_15706" data-name="Path 15706" d="M823.915,773.891a43.4,43.4,0,0,1-5.253.242l-2.292.362s-3.931.377-4.368-.844.343-1.144.343-1.144h.031a2.1,2.1,0,0,0,1.74.712l2.826.114,2.928-.207s2.744-.081,3.19-.176a6.54,6.54,0,0,0,1.093-.4C824.31,772.736,824.957,773.659,823.915,773.891Z" transform="translate(-661.731 -624.691)" fill="#dce6f2"/>
    <path id="Path_15707" data-name="Path 15707" d="M832.914,776.7a1.692,1.692,0,0,1-.463-.058l.033-.12a2.3,2.3,0,0,0,1.163-.052c.139-.037.275-.077.414-.118a6.509,6.509,0,0,1,.764-.192,6.321,6.321,0,0,1,1.258-.037h.089a19.37,19.37,0,0,0,3.753-.168,1.4,1.4,0,0,0,.8-.323l.089.089a1.523,1.523,0,0,1-.871.358,19.471,19.471,0,0,1-3.778.168h-.091a4.645,4.645,0,0,0-1.988.226c-.139.041-.277.083-.414.118A3.143,3.143,0,0,1,832.914,776.7Z" transform="translate(-678.054 -627.169)" fill="#575988" opacity="0.5"/>
    <path id="Path_15708" data-name="Path 15708" d="M908.086,578.073l-.737.693-1.829-2.342a6.609,6.609,0,0,0,.561-.354Z" transform="translate(-736.006 -468.899)" opacity="0.1"/>
    <path id="Path_15709" data-name="Path 15709" d="M915.934,493l1.448,2v2.1a8.773,8.773,0,0,1,0,4.44l.07,1.939s-.7,1.781-.447,2.22a3.136,3.136,0,0,1-1.812,2.22,17.039,17.039,0,0,0-3.6,3.054,2.452,2.452,0,0,1-2.659,1.063l-1.846.782-2.125-2.721,2.876-1.564s1-1.343,1.6-1.281l2.439-2.847s.062-.906.687-.906c0,0-1.156-.937-.751-1.5s.064-3.066.064-3.066Z" transform="translate(-735.562 -403.017)" fill="#67647e"/>
    <path id="Path_15710" data-name="Path 15710" d="M945,536.814s3.284-.062,3.689.782S945.991,536.344,945,536.814Z" transform="translate(-767.317 -437.71)" opacity="0.1"/>
    <path id="Path_15711" data-name="Path 15711" d="M903.626,580.387a.869.869,0,0,1-.014.163,1.105,1.105,0,0,1-1.035.939h-.058a1.1,1.1,0,0,1-1.1-1.1,1.075,1.075,0,0,1,.062-.358,1.9,1.9,0,0,1-.536-1.552,2.366,2.366,0,0,0,.778-.275,5.142,5.142,0,0,0,.544,1.111,1.163,1.163,0,0,1,.257-.031A1.107,1.107,0,0,1,903.626,580.387Z" transform="translate(-732.371 -470.589)" opacity="0.1"/>
    <path id="Path_15712" data-name="Path 15712" d="M902.3,577s-.741.168-.741.3-.168,1.355.645,1.862.73-.7.73-.7S902.232,577.393,902.3,577Z" transform="translate(-732.85 -469.637)" fill="#575988"/>
    <circle id="Ellipse_1299" data-name="Ellipse 1299" cx="1.105" cy="1.105" r="1.105" transform="translate(169.167 108.693)" fill="#e4aab4"/>
    <circle id="Ellipse_1300" data-name="Ellipse 1300" cx="0.948" cy="0.948" r="0.948" transform="translate(169.324 108.851)" fill="#dce6f2"/>
    <path id="Path_15713" data-name="Path 15713" d="M888.315,590.84a5.474,5.474,0,0,0,5.336.708v.939s-2,1.376-3.813.542S888.315,590.84,888.315,590.84Z" transform="translate(-722.347 -480.613)" opacity="0.1"/>
    <path id="Path_15714" data-name="Path 15714" d="M888.315,589.63a5.468,5.468,0,0,0,5.336.708v.939s-2,1.376-3.813.542S888.315,589.63,888.315,589.63Z" transform="translate(-722.347 -479.654)" opacity="0.1"/>
    <path id="Path_15715" data-name="Path 15715" d="M888.315,589.63a5.468,5.468,0,0,0,5.336.708v.939s-2,1.376-3.813.542S888.315,589.63,888.315,589.63Z" transform="translate(-722.347 -479.654)" fill="#444053"/>
    <path id="Path_15716" data-name="Path 15716" d="M888.614,589.63a5.471,5.471,0,0,0,5.338.708v.939s-2,1.376-3.815.542S888.614,589.63,888.614,589.63Z" transform="translate(-722.584 -479.654)" opacity="0.05"/>
    <path id="Path_15717" data-name="Path 15717" d="M852.91,757.94s3.128.575,3.586.7-.124.343-.124.343S853.516,758.472,852.91,757.94Z" transform="translate(-694.281 -613.14)" opacity="0.1"/>
    <path id="Path_15718" data-name="Path 15718" d="M852.56,743.863c.052,0,2.127-.583,2.574-1.583" transform="translate(-694.003 -600.72)" opacity="0.1"/>
    <path id="Path_15719" data-name="Path 15719" d="M867.19,692.1s.84,1.1,1.382,1.074S867.682,692.054,867.19,692.1Z" transform="translate(-705.607 -560.918)" opacity="0.1"/>
    <path id="Path_15720" data-name="Path 15720" d="M869.44,701s.354.78.875.53" transform="translate(-707.391 -567.981)" opacity="0.1"/>
    <path id="Path_15721" data-name="Path 15721" d="M879,617.966l2.218,5.849s.312-3.763-.348-4.889A1.951,1.951,0,0,0,879,617.966Z" transform="translate(-714.973 -502.12)" opacity="0.05"/>
    <g id="Group_6938" data-name="Group 6938" transform="translate(166.779 69.32)" opacity="0.1">
      <path id="Path_15722" data-name="Path 15722" d="M903.9,393.31l-.019-.085-.356-.1.039.174A3.017,3.017,0,0,0,903.9,393.31Z" transform="translate(-901.207 -393.13)"/>
      <path id="Path_15723" data-name="Path 15723" d="M898.894,396.109l.037-.033a.749.749,0,0,0,.207-.761,1,1,0,0,0-.178-.283,2.92,2.92,0,0,1-.513-.151c-.021.312.331.515.441.809a.621.621,0,0,1,.006.42Z" transform="translate(-897.175 -394.518)"/>
      <path id="Path_15724" data-name="Path 15724" d="M899.936,413.671a2.069,2.069,0,0,1-.838-1.034c-.176-.414-.286-.861-.465-1.275a3.932,3.932,0,0,0-.828-1.219.541.541,0,0,0-.221-.153.6.6,0,0,0-.455.126,2.09,2.09,0,0,1-.693.3.74.74,0,0,1-.7-.207,1.045,1.045,0,0,1-.112-.869,10.789,10.789,0,0,0,.327-1.941,1.9,1.9,0,0,0-.828-1.692,7.419,7.419,0,0,0-1.692-.368,2.177,2.177,0,0,1-.788-.4.373.373,0,0,1-.041-.039,1.042,1.042,0,0,0-.137.064c-.091.048-.188.135-.163.234a.253.253,0,0,0,.093.116,2.154,2.154,0,0,0,.786.4,7.006,7.006,0,0,1,1.692.368,1.917,1.917,0,0,1,.828,1.692,10.748,10.748,0,0,1-.327,1.941,1.044,1.044,0,0,0,.112.869.741.741,0,0,0,.7.207,2.069,2.069,0,0,0,.693-.3.6.6,0,0,1,.455-.128.547.547,0,0,1,.221.153,3.973,3.973,0,0,1,.828,1.219c.182.414.29.859.468,1.277a2.069,2.069,0,0,0,.828,1.035,1.023,1.023,0,0,0,1.241-.132.973.973,0,0,0,.186-.314A1.068,1.068,0,0,1,899.936,413.671Z" transform="translate(-892.301 -402.465)"/>
      <path id="Path_15725" data-name="Path 15725" d="M937.84,434.223c.312-.4.724-.732,1.018-1.146.058-.083.112-.17.161-.257A10.159,10.159,0,0,0,937.84,434.223Z" transform="translate(-928.418 -424.608)"/>
    </g>
  </g>
</svg>
