<svg xmlns="http://www.w3.org/2000/svg" width="44.218" height="23.414" viewBox="0 0 44.218 23.414"><g transform="translate(-119.5 -184.689)"><path d="M29.085,32.407a5.809,5.809,0,0,1-3-1.324,2.949,2.949,0,0,1-1.324-2.471,3.483,3.483,0,0,1,1.147-2.648,9.774,9.774,0,0,1,3.265-1.324c2.912-.53,3.618-.971,3.971-1.677a1.263,1.263,0,0,0-.618-2.03c-1.236-.53-3.37,4.6-5.841,4.248-2.736-.441-2.995,1.3-6,3.157-1.059.618-6.651-1.525-7.445-1.348-.177,0-1.857.2-1.857.469L11.7,33.2a.417.417,0,0,0,.441.441c4.942,0,10.414,3.177,11.208,3.53,1.589.618,4.324-.088,6.707-.794a15.214,15.214,0,0,0,4.766-2.471l-4.589-1.677A7.339,7.339,0,0,1,29.085,32.407Z" transform="translate(115.272 169.163)" fill="#96d9db" stroke="#058485" stroke-width="0.7"/><g transform="translate(134.302 185.067)"><path d="M49.212,28.69a4.85,4.85,0,0,0-.794-.618c-.353,1.147-.618,2.03-.883,2.824a55,55,0,0,1-2.206,6.089c-.088.088-.177.265-.265.265h-.177a.324.324,0,0,1-.265-.088C36.68,32.926,28.3,30.719,21.148,29.131c-.177,0-.265-.088-.353-.265a.394.394,0,0,1,0-.441c.706-1.942,1.324-3.795,1.853-5.383.177-.706.441-1.324.618-1.942a65.682,65.682,0,0,0-3.177,6.619c-.353.794.53,1.853.618,2.471a.671.671,0,0,0,.706.529c6.8,0,16.591,4.413,23.563,8.207h0s.706.441,1.147-.618c1.5-3.795,1.765-4.677,3.265-8.913A.733.733,0,0,0,49.212,28.69Z" transform="translate(-20.006 -15.981)" fill="#17b5b7"/><path d="M44.363,34.827c-7.5-4.06-15.356-6.266-23.563-8.031,1.853-4.942,2.736-9,4.06-11.3,7.325.618,17.827,3.089,23.386,8.384C46.3,28.826,46.3,29.973,44.363,34.827" transform="translate(-20.099 -15.323)" fill="#80ccce"/><path d="M46.364,21.3c-.971,2.648.794,5.648,3.707,6.972a37.62,37.62,0,0,1,1.059-3.795c-2.03-1.147-2.648-2.206-4.766-3.177" transform="translate(-23.072 -16.005)" fill="#bee3e4"/><path d="M48.66,32.116c-3.089-1.236-6.266-.706-7.06,1.942a57.249,57.249,0,0,0,5.207,2.559c.706-1.765,1.147-2.648,1.853-4.5" transform="translate(-22.543 -17.201)" fill="#bee3e4"/><path d="M23.7,18.565c3.089,1.147,6.354-.177,7.237-2.383-2.383-.53-3.707-.088-5.825-.883A21.673,21.673,0,0,0,23.7,18.565" transform="translate(-20.44 -15.3)" fill="#bee3e4"/><path d="M22.389,22.5c-.618,2.03-.971,3.177-1.589,5.119a39,39,0,0,0,5.56,1.236c.971-2.824-.971-5.3-3.971-6.354" transform="translate(-20.099 -16.146)" fill="#bee3e4"/><path d="M44.363,34.827c-7.5-4.06-15.356-6.266-23.563-8.031,1.853-4.942,2.736-9,4.06-11.3,7.325.618,17.827,3.089,23.386,8.384C46.3,28.826,46.3,29.973,44.363,34.827Z" transform="translate(-20.099 -15.323)" fill="none" stroke="#17b5b7" stroke-linecap="round" stroke-linejoin="round" stroke-miterlimit="10" stroke-width="1.109"/><path d="M37.634,20.449c-2.912-1.059-6.266.177-7.06,2.471s.883,5.119,3.971,6.089c3,1.059,6.089-.265,6.884-2.383s-.882-5.119-3.795-6.178" transform="translate(-21.225 -15.86)" fill="#bee3e4"/><path d="M39.2,24.76a8.329,8.329,0,0,0-.794.265,1.262,1.262,0,0,1,.441,1.147,2.172,2.172,0,0,1-2.559.971,1.028,1.028,0,0,1-.618-1.236,8.282,8.282,0,0,1,.53-1.324,4.975,4.975,0,0,0,1.059.353c.088-.265.176-.441.265-.706a4.975,4.975,0,0,0-1.059-.353c.176-.53.265-.794.441-1.236a1.536,1.536,0,0,0-.618-1.942,2.212,2.212,0,0,1-.618.353.975.975,0,0,1,.353,1.236c-.177.53-.265.794-.441,1.236a14.641,14.641,0,0,1-1.412-.53c-.088.265-.177.441-.265.706.529.177.794.353,1.324.53l-.441,1.324a1.8,1.8,0,0,0,1.236,2.206,3.022,3.022,0,0,0,3.618-1.324A1.717,1.717,0,0,0,39.2,24.76" transform="translate(-21.639 -15.934)" fill="#17b5b7"/></g><path d="M26.085,31.084a2.949,2.949,0,0,1-1.324-2.471,3.483,3.483,0,0,1,1.147-2.648,9.774,9.774,0,0,1,3.265-1.324c2.912-.53,3.618-.971,3.971-1.677a1.263,1.263,0,0,0-.618-2.03c-1.236-.53-6.266,0-8.737-.353-2.736-.441-5.03.177-8.031,2.03a15.172,15.172,0,0,1-3.707,1.236.4.4,0,0,0-.353.441V33.2a.417.417,0,0,0,.441.441c3.177,0,8.267,1.935,10.473,2.994l.381-.3.349-.276,1.17-.925.782-.618,1.034-.818,1.794-1.418S26.7,31.525,26.085,31.084Z" transform="translate(115.272 169.163)" fill="#96d9db" stroke="#058485" stroke-width="0.7"/><path d="M10.507,22.8c-.618-.088-6,.177-6.266.177s-.441.088-.441.883V35.594c0,.529.353.618.794.618s5.736-.177,6.089-.177c.353.088.441-.353.441-.882-.088-.53-.088-11.384,0-11.826,0-.441-.618-.53-.618-.53" transform="translate(116.2 168.888)" fill="#80ccce" stroke="#058485" stroke-width="1"/><path d="M-.115-.2A5.12,5.12,0,0,0,1.253.551a10.667,10.667,0,0,0,1.9.442" transform="translate(141.5 201.5)" fill="none" stroke="#96d9db" stroke-width="1"/><path d="M.152,1.424a4.945,4.945,0,0,0,1.527.809,7.654,7.654,0,0,0,2.108,0" transform="translate(137.5 203.5)" fill="#80ccce" stroke="#96d9db" stroke-width="0.7"/><g transform="translate(137 202)" fill="#96d9db"><path d="M 2.96112322807312 3.240697145462036 L 0.5334311127662659 2.620261430740356 L 0.7825096845626831 -0.3641960322856903 L 5.64962911605835 0.2520148456096649 L 5.520926475524902 2.603939056396484 L 2.96112322807312 3.240697145462036 Z" stroke="none"/><path d="M 1.237381935119629 0.1973848342895508 L 1.066864967346191 2.240517377853394 L 2.96276330947876 2.725044727325439 L 5.041845321655273 2.207867383956909 L 5.124929428100586 0.6895751953125 L 1.237381935119629 0.1973848342895508 M 0.3276381492614746 -0.9257767200469971 L 6.174318313598633 -0.185546875 L 5.999998092651367 3.000003099441528 L 2.959468126296997 3.756343126296997 L -1.9073486328125e-06 3.000003099441528 L 0.3276381492614746 -0.9257767200469971 Z" stroke="none" fill="#96d9db"/></g></g></svg>