<svg xmlns="http://www.w3.org/2000/svg" xmlns:xlink="http://www.w3.org/1999/xlink" width="858.08" height="804.724" viewBox="0 0 858.08 804.724"><defs><linearGradient id="a" x1="0.5" y1="1" x2="0.5" gradientUnits="objectBoundingBox"><stop offset="0" stop-color="gray" stop-opacity="0.251"/><stop offset="0.54" stop-color="gray" stop-opacity="0.122"/><stop offset="1" stop-color="gray" stop-opacity="0.102"/></linearGradient></defs><g transform="translate(21888 16861)"><g transform="translate(-21888 -16860.887)" opacity="0.5"><rect width="3.33" height="18.87" transform="translate(107.3 37.85)" fill="#47e6b1"/><rect width="3.33" height="18.87" transform="translate(118.4 45.62) rotate(90)" fill="#47e6b1"/></g><g transform="translate(-21888 -16860.887)" opacity="0.5"><rect width="3.33" height="18.87" transform="translate(811.66 769.53)" fill="#47e6b1"/><rect width="3.33" height="18.87" transform="translate(822.76 777.3) rotate(90)" fill="#47e6b1"/></g><g transform="translate(-21888 -16860.887)" opacity="0.5"><rect width="3.33" height="18.87" transform="translate(812.98 215.34)" fill="#47e6b1"/><rect width="3.33" height="18.87" transform="translate(824.08 223.11) rotate(90)" fill="#47e6b1"/></g><g transform="translate(-21888 -16860.887)" opacity="0.5"><rect width="3.33" height="18.87" transform="translate(846.98 45.34)" fill="#47e6b1"/><rect width="3.33" height="18.87" transform="translate(858.08 53.11) rotate(90)" fill="#47e6b1"/></g><g transform="translate(-21888 -16860.887)" opacity="0.5"><rect width="3.33" height="18.87" transform="translate(267.08 36.27)" fill="#47e6b1"/><rect width="3.33" height="18.87" transform="translate(278.17 44.04) rotate(90)" fill="#47e6b1"/></g><path d="M230.44,357.88a4.08,4.08,0,0,1-2.27-4.93,2,2,0,0,0,.09-.45h0a2,2,0,0,0-3.67-1.36h0a2,2,0,0,0-.23.4,4.08,4.08,0,0,1-4.93,2.27,2,2,0,0,0-.45-.09h0a2,2,0,0,0-1.36,3.67h0a2,2,0,0,0,.4.23,4.08,4.08,0,0,1,2.27,4.93,2,2,0,0,0-.09.45h0a2,2,0,0,0,3.67,1.36h0a2,2,0,0,0,.23-.4,4.08,4.08,0,0,1,4.93-2.27,2,2,0,0,0,.45.09h0a2,2,0,0,0,1.36-3.67h0a2,2,0,0,0-.4-.23Z" transform="translate(-22057.23 -16900.566)" fill="#4d8af0" opacity="0.5"/><path d="M291.92,736.22a4.08,4.08,0,0,1-2.27-4.93,2,2,0,0,0,.09-.45h0a2,2,0,0,0-3.67-1.36h0a2,2,0,0,0-.23.4,4.08,4.08,0,0,1-4.93,2.27,2,2,0,0,0-.45-.09h0a2,2,0,0,0-1.36,3.67h0a2,2,0,0,0,.4.23,4.08,4.08,0,0,1,2.27,4.93,2,2,0,0,0-.09.45h0a2,2,0,0,0,3.67,1.36h0a2,2,0,0,0,.23-.4,4.08,4.08,0,0,1,4.93-2.27,2,2,0,0,0,.45.09h0a2,2,0,0,0,1.36-3.67h0A2,2,0,0,0,291.92,736.22Z" transform="translate(-22057.23 -16900.566)" fill="#4d8af0" opacity="0.5"/><path d="M850.92,235.22a4.08,4.08,0,0,1-2.27-4.93,2,2,0,0,0,.09-.45h0a2,2,0,0,0-3.67-1.36h0a2,2,0,0,0-.23.4,4.08,4.08,0,0,1-4.93,2.27,2,2,0,0,0-.45-.09h0a2,2,0,0,0-1.36,3.67h0a2,2,0,0,0,.4.23,4.08,4.08,0,0,1,2.27,4.93,2,2,0,0,0-.09.45h0a2,2,0,0,0,3.67,1.36h0a2,2,0,0,0,.23-.4,4.08,4.08,0,0,1,4.93-2.27,2,2,0,0,0,.45.09h0a2,2,0,0,0,1.36-3.67h0A2,2,0,0,0,850.92,235.22Z" transform="translate(-22057.23 -16900.566)" fill="#4d8af0" opacity="0.5"/><path d="M844,47.24a4.08,4.08,0,0,1-2.27-4.93,2,2,0,0,0,.09-.45h0a2,2,0,0,0-3.67-1.36h0a2,2,0,0,0-.23.4A4.08,4.08,0,0,1,833,43.18a2,2,0,0,0-.45-.09h0a2,2,0,0,0-1.36,3.67h0a2,2,0,0,0,.4.23,4.08,4.08,0,0,1,2.27,4.93,2,2,0,0,0-.09.45h0a2,2,0,0,0,3.67,1.36h0a2,2,0,0,0,.23-.4A4.08,4.08,0,0,1,842.56,51a2,2,0,0,0,.45.09h0a2,2,0,0,0,1.36-3.67h0a2,2,0,0,0-.37-.18Z" transform="translate(-22057.23 -16900.566)" fill="#4d8af0" opacity="0.5"/><path d="M1012.16,504.28a4.08,4.08,0,0,1-2.27-4.93,2,2,0,0,0,.09-.45h0a2,2,0,0,0-3.67-1.36h0a2,2,0,0,0-.23.4,4.08,4.08,0,0,1-4.93,2.27,2,2,0,0,0-.45-.09h0a2,2,0,0,0-1.36,3.67h0a2,2,0,0,0,.4.23A4.08,4.08,0,0,1,1002,509a2,2,0,0,0-.09.45h0a2,2,0,0,0,3.67,1.36h0a2,2,0,0,0,.23-.4,4.08,4.08,0,0,1,4.93-2.27,2,2,0,0,0,.45.09h0a2,2,0,0,0,1.36-3.67h0A2,2,0,0,0,1012.16,504.28Z" transform="translate(-22057.23 -16900.566)" fill="#4d8af0" opacity="0.5"/><circle cx="6.66" cy="6.66" r="6.66" transform="translate(-21832.891 -16701.426)" fill="#f55f44" opacity="0.5"/><circle cx="6.66" cy="6.66" r="6.66" transform="translate(-21881.721 -16223.117)" fill="#f55f44" opacity="0.5"/><circle cx="6.66" cy="6.66" r="6.66" transform="translate(-21455 -16821.867)" fill="#f55f44" opacity="0.5"/><circle cx="6.66" cy="6.66" r="6.66" transform="translate(-21388 -16694.867)" fill="#f55f44" opacity="0.5"/><circle cx="6.66" cy="6.66" r="6.66" transform="translate(-21888 -16388.867)" fill="#f55f44" opacity="0.5"/><circle cx="6.66" cy="6.66" r="6.66" transform="translate(-21627.16 -16712.207)" fill="#47e6b1" opacity="0.5"/><circle cx="6.66" cy="6.66" r="6.66" transform="translate(-21169.061 -16269.797)" fill="#f55f44" opacity="0.5"/><g transform="translate(-21888 -16860.887)" opacity="0.5"><path d="M713.77,253.75c-12.9-12.94-31.71-18.09-53-14.5-19.89,3.36-39.79,14.13-56,30.33a65.49,65.49,0,0,0-11.72,16.08A65.638,65.638,0,0,0,581.43,269h0c-16-16.47-35.67-27.58-55.5-31.29-21.19-4-40.08.86-53.2,13.58S454.18,282.74,457.48,304c3.08,20,13.52,40,29.52,56.49C520.58,395.13,587.59,381.6,590.43,381l.84-.17,2.58.59c2.83.64,69.59,15.32,103.75-18.73,16.25-16.19,27.08-36.06,30.51-55.94C731.76,285.52,726.67,266.69,713.77,253.75ZM579.08,361c-16.19,2.18-56.55,5.14-76.59-15.53-12.88-13.29-21.31-29.19-23.71-44.75-2.2-14.2,1-26.27,8.94-34a29.93,29.93,0,0,1,10.92-6.69c6.68-2.37,14.63-2.81,23.32-1.18,15.48,2.89,31.1,11.81,44,25.1C586,304.67,581.76,344.92,579.08,361Zm127.78-57.93c-2.67,15.52-11.37,31.26-24.48,44.33-20.4,20.33-60.7,16.67-76.84,14.21-2.41-16.16-5.94-56.47,14.45-76.8,13.11-13.07,28.88-21.71,44.41-24.34,8.72-1.47,16.66-.9,23.3,1.58a29.931,29.931,0,0,1,10.8,6.88c7.83,7.89,10.8,20.01,8.36,34.16Z" transform="translate(-169.23 -39.68)" fill="url(#a)"/></g><path d="M596.91,376.65,590.53,378c-2.71.57-66.83,13.51-99-19.63-15.28-15.76-25.31-34.95-28.26-54-3.15-20.38,2-38.31,14.58-50.48s30.64-16.78,50.91-13c19,3.55,37.84,14.18,53.11,29.94h0c32.12,33.15,17.18,96.83,16.52,99.52ZM502.7,262.26a28.64,28.64,0,0,0-10.45,6.4c-7.62,7.38-10.66,18.93-8.56,32.52,2.3,14.89,10.36,30.1,22.69,42.82,19.17,19.78,57.79,17,73.28,14.86,2.57-15.41,6.61-53.93-12.56-73.71h0c-12.33-12.72-27.28-21.25-42.09-24C516.71,259.57,509.1,260,502.7,262.26Z" transform="translate(-22057.23 -16900.566)" fill="#e2136e"/><path d="M587.45,376.93,586,370.57c-.61-2.71-14.45-66.64,18.24-99.22h0c15.54-15.5,34.59-25.8,53.62-29,20.33-3.44,38.33,1.49,50.68,13.87s17.21,30.4,13.71,50.72c-3.28,19-13.65,38-29.19,53.53C660.39,393,596.51,379,593.8,378.38Zm96.17-112.75c-6.36-2.38-14-2.93-22.29-1.52-14.86,2.51-30,10.78-42.5,23.29h0c-19.51,19.45-16.14,58-13.83,73.49,15.45,2.35,54,5.86,73.53-13.6,12.55-12.51,20.87-27.57,23.43-42.42,2.34-13.55-.5-25.15-8-32.66a28.639,28.639,0,0,0-10.35-6.58Z" transform="translate(-22057.23 -16900.566)" fill="#e2136e"/><g transform="translate(-21888 -16860.887)" opacity="0.5"><path d="M730.87,320.21H109.21V444.6h32.3V804.61H698.57V444.6h32.3Z" fill="url(#a)"/></g><rect width="542.96" height="440.67" transform="translate(-21739.439 -16503.066)" fill="#f5f5f5"/><rect width="102.3" height="361.98" transform="translate(-21519.109 -16424.377)" fill="#e2136e"/><rect width="542.96" height="110.17" transform="translate(-21739.439 -16526.676)" opacity="0.1"/><rect width="605.91" height="110.17" transform="translate(-21770.92 -16534.547)" fill="#f5f5f5"/><rect width="102.3" height="110.17" transform="translate(-21519.109 -16534.547)" fill="#e2136e"/><path d="M700.12,269.13l4.39,3.3L712.73,256l-10.32-10.32C702.63,249.18,703.25,262.76,700.12,269.13Z" transform="translate(-22057.23 -16900.566)" opacity="0.1"/><ellipse cx="2.28" cy="4" rx="2.28" ry="4" transform="translate(-21333.051 -16674.396)" fill="#fda57d"/><path d="M544.67,241.3l1.14-3.43,3.42,2.29Z" transform="translate(-21888 -16860.887)" opacity="0.1"/></g></svg>