<svg xmlns="http://www.w3.org/2000/svg" width="25.015" height="19.055" viewBox="0 0 25.015 19.055"><g transform="translate(0 -61)"><g transform="translate(0 61)"><path d="M22.817,61H2.2A2.2,2.2,0,0,0,0,63.2V77.856a2.2,2.2,0,0,0,2.2,2.2H22.817a2.2,2.2,0,0,0,2.2-2.2V63.2A2.2,2.2,0,0,0,22.817,61Zm-.3,1.466-9.959,9.959L2.509,62.466ZM1.466,77.553V63.5l7.059,7ZM2.5,78.589l7.063-7.063,2.475,2.454a.733.733,0,0,0,1.034,0l2.413-2.413,7.025,7.025ZM23.55,77.553l-7.025-7.025L23.55,63.5Z" transform="translate(0 -61)" fill="#e2136e"/></g><g transform="matrix(1, -0.017, 0.017, 1, 16.492, 63.602)"><g transform="translate(0 0)"><path d="M3.264.7.661,2.985a.4.4,0,0,1-.526-.6L2.739.1a.4.4,0,0,1,.526.6Z" fill="#e2136e"/></g></g><g transform="matrix(1, -0.017, 0.017, 1, 15.505, 66.718)"><g transform="translate(0 0)"><path d="M.781.7.661.8A.4.4,0,0,1,.135.2L.255.1A.4.4,0,0,1,.781.7Z" fill="#e2136e"/></g></g></g></svg>