<svg xmlns="http://www.w3.org/2000/svg" width="29.743" height="29.743" viewBox="0 0 29.743 29.743">
  <g id="latest_month" transform="translate(-3414 7880.743)">
    <g id="time-and-date" transform="translate(3408 -7886.743)">
      <g id="Group_6876" data-name="Group 6876" transform="translate(6 8.702)">
        <g id="Group_6871" data-name="Group 6871" transform="translate(0.62 0.62)">
          <g id="Group_6870" data-name="Group 6870">
            <g id="Group_6869" data-name="Group 6869">
              <g id="Group_6868" data-name="Group 6868">
                <path id="Path_15419" data-name="Path 15419" d="M35.5,13.219V35.3a1.856,1.856,0,0,1-1.859,1.859H8.859A1.856,1.856,0,0,1,7,35.3V13.219A1.856,1.856,0,0,1,8.859,11.36H33.645A1.856,1.856,0,0,1,35.5,13.219Z" transform="translate(-7 -11.36)" fill="#fff"/>
              </g>
            </g>
          </g>
        </g>
        <g id="Group_6875" data-name="Group 6875" transform="translate(0 0)">
          <g id="Group_6874" data-name="Group 6874">
            <g id="Group_6873" data-name="Group 6873">
              <g id="Group_6872" data-name="Group 6872">
                <path id="Path_15420" data-name="Path 15420" d="M33.265,37.4H8.479A2.478,2.478,0,0,1,6,34.923V12.839A2.478,2.478,0,0,1,8.479,10.36H33.265a2.478,2.478,0,0,1,2.479,2.479V34.923A2.478,2.478,0,0,1,33.265,37.4ZM8.479,11.6a1.243,1.243,0,0,0-1.239,1.239V34.923a1.243,1.243,0,0,0,1.239,1.239H33.265A1.243,1.243,0,0,0,34.5,34.923V12.839A1.243,1.243,0,0,0,33.265,11.6Z" transform="translate(-6 -10.36)" fill="#e2136e"/>
              </g>
            </g>
          </g>
        </g>
      </g>
      <g id="Group_6885" data-name="Group 6885" transform="translate(6 8.695)">
        <g id="Group_6880" data-name="Group 6880" transform="translate(0.62 0.62)">
          <g id="Group_6879" data-name="Group 6879">
            <g id="Group_6878" data-name="Group 6878">
              <g id="Group_6877" data-name="Group 6877">
                <path id="Path_15421" data-name="Path 15421" d="M35.5,17.162V13.209a1.856,1.856,0,0,0-1.859-1.859H8.859A1.856,1.856,0,0,0,7,13.209v3.953Z" transform="translate(-7 -11.35)" fill="#ffe3ec"/>
              </g>
            </g>
          </g>
        </g>
        <g id="Group_6884" data-name="Group 6884">
          <g id="Group_6883" data-name="Group 6883">
            <g id="Group_6882" data-name="Group 6882">
              <g id="Group_6881" data-name="Group 6881">
                <path id="Path_15422" data-name="Path 15422" d="M35.124,17.4H6.62a.621.621,0,0,1-.62-.62V12.829A2.478,2.478,0,0,1,8.479,10.35H33.265a2.478,2.478,0,0,1,2.479,2.479v3.953A.621.621,0,0,1,35.124,17.4ZM7.239,16.162H34.5V12.829a1.243,1.243,0,0,0-1.239-1.239H8.479a1.243,1.243,0,0,0-1.239,1.239Z" transform="translate(-6 -10.35)" fill="#e2136e"/>
              </g>
            </g>
          </g>
        </g>
      </g>
      <g id="Group_6896" data-name="Group 6896" transform="translate(9.458 6)">
        <g id="Group_6890" data-name="Group 6890" transform="translate(1.642)">
          <g id="Group_6889" data-name="Group 6889">
            <g id="Group_6888" data-name="Group 6888">
              <g id="Group_6887" data-name="Group 6887">
                <g id="Group_6886" data-name="Group 6886">
                  <path id="Path_15423" data-name="Path 15423" d="M14.85,12.841a.621.621,0,0,1-.62-.62V6.62a.62.62,0,1,1,1.239,0v5.6A.618.618,0,0,1,14.85,12.841Z" transform="translate(-14.23 -6)" fill="#e2136e"/>
                </g>
              </g>
            </g>
          </g>
        </g>
        <g id="Group_6895" data-name="Group 6895" transform="translate(0 5.602)">
          <g id="Group_6894" data-name="Group 6894">
            <g id="Group_6893" data-name="Group 6893">
              <g id="Group_6892" data-name="Group 6892">
                <g id="Group_6891" data-name="Group 6891">
                  <path id="Path_15424" data-name="Path 15424" d="M15.484,16.279H12.2a.62.62,0,1,1,0-1.239h3.284a.62.62,0,1,1,0,1.239Z" transform="translate(-11.58 -15.04)" fill="#e2136e"/>
                </g>
              </g>
            </g>
          </g>
        </g>
      </g>
      <g id="Group_6907" data-name="Group 6907" transform="translate(15.555 6)">
        <g id="Group_6901" data-name="Group 6901" transform="translate(1.648)">
          <g id="Group_6900" data-name="Group 6900">
            <g id="Group_6899" data-name="Group 6899">
              <g id="Group_6898" data-name="Group 6898">
                <g id="Group_6897" data-name="Group 6897">
                  <path id="Path_15425" data-name="Path 15425" d="M24.7,12.841a.621.621,0,0,1-.62-.62V6.62a.62.62,0,0,1,1.239,0v5.6A.618.618,0,0,1,24.7,12.841Z" transform="translate(-24.08 -6)" fill="#e2136e"/>
                </g>
              </g>
            </g>
          </g>
        </g>
        <g id="Group_6906" data-name="Group 6906" transform="translate(0 5.602)">
          <g id="Group_6905" data-name="Group 6905">
            <g id="Group_6904" data-name="Group 6904">
              <g id="Group_6903" data-name="Group 6903">
                <g id="Group_6902" data-name="Group 6902">
                  <path id="Path_15426" data-name="Path 15426" d="M25.324,16.279H22.04a.62.62,0,0,1,0-1.239h3.284a.62.62,0,0,1,0,1.239Z" transform="translate(-21.42 -15.04)" fill="#e2136e"/>
                </g>
              </g>
            </g>
          </g>
        </g>
      </g>
      <g id="Group_6918" data-name="Group 6918" transform="translate(21.659 6)">
        <g id="Group_6912" data-name="Group 6912" transform="translate(1.642)">
          <g id="Group_6911" data-name="Group 6911">
            <g id="Group_6910" data-name="Group 6910">
              <g id="Group_6909" data-name="Group 6909">
                <g id="Group_6908" data-name="Group 6908">
                  <path id="Path_15427" data-name="Path 15427" d="M34.54,12.841a.621.621,0,0,1-.62-.62V6.62a.62.62,0,1,1,1.239,0v5.6A.614.614,0,0,1,34.54,12.841Z" transform="translate(-33.92 -6)" fill="#e2136e"/>
                </g>
              </g>
            </g>
          </g>
        </g>
        <g id="Group_6917" data-name="Group 6917" transform="translate(0 5.602)">
          <g id="Group_6916" data-name="Group 6916">
            <g id="Group_6915" data-name="Group 6915">
              <g id="Group_6914" data-name="Group 6914">
                <g id="Group_6913" data-name="Group 6913">
                  <path id="Path_15428" data-name="Path 15428" d="M35.174,16.279H31.89a.62.62,0,0,1,0-1.239h3.284a.62.62,0,1,1,0,1.239Z" transform="translate(-31.27 -15.04)" fill="#e2136e"/>
                </g>
              </g>
            </g>
          </g>
        </g>
      </g>
      <g id="Group_6929" data-name="Group 6929" transform="translate(27.762 6)">
        <g id="Group_6923" data-name="Group 6923" transform="translate(1.642)">
          <g id="Group_6922" data-name="Group 6922">
            <g id="Group_6921" data-name="Group 6921">
              <g id="Group_6920" data-name="Group 6920">
                <g id="Group_6919" data-name="Group 6919">
                  <path id="Path_15429" data-name="Path 15429" d="M44.39,12.841a.621.621,0,0,1-.62-.62V6.62a.62.62,0,0,1,1.239,0v5.6A.614.614,0,0,1,44.39,12.841Z" transform="translate(-43.77 -6)" fill="#e2136e"/>
                </g>
              </g>
            </g>
          </g>
        </g>
        <g id="Group_6928" data-name="Group 6928" transform="translate(0 5.602)">
          <g id="Group_6927" data-name="Group 6927">
            <g id="Group_6926" data-name="Group 6926">
              <g id="Group_6925" data-name="Group 6925">
                <g id="Group_6924" data-name="Group 6924">
                  <path id="Path_15430" data-name="Path 15430" d="M45.024,16.279H41.74a.62.62,0,0,1,0-1.239h3.284a.62.62,0,0,1,0,1.239Z" transform="translate(-41.12 -15.04)" fill="#e2136e"/>
                </g>
              </g>
            </g>
          </g>
        </g>
      </g>
    </g>
    <path id="Path_16102" data-name="Path 16102" d="M8.47-9.871a2.875,2.875,0,0,1-.513,1.336,1.675,1.675,0,0,1-1.319.414L4.5-8.176a2.845,2.845,0,0,0-1.528.366,1.145,1.145,0,0,0-.584,1.022,1.072,1.072,0,0,0,.745.964q.253.116.253.212a.779.779,0,0,1-.277.475,1.745,1.745,0,0,1-.639.42,1.13,1.13,0,0,1-.923-1.189,3.739,3.739,0,0,1,.52-1.644A4.558,4.558,0,0,1,3.466-9.164a3.262,3.262,0,0,1,1.941-.625q.089,0,.974.072t1.07.072q.554,0,.67-.226ZM8.176-5.7,8.053-4.5a1.057,1.057,0,0,1-.452.29A10.952,10.952,0,0,1,6.4-3.849,4.694,4.694,0,0,1,5.2-.961,3.414,3.414,0,0,1,2.6.137,2.718,2.718,0,0,1,.892-.342,1.286,1.286,0,0,1,.28-1.285q0-.219.475-.643a1.369,1.369,0,0,1,.7-.424.2.2,0,0,1,.212.126,2.893,2.893,0,0,1,.044.636,1.41,1.41,0,0,0,.26.854.839.839,0,0,0,.714.345q1.381,0,1.764-2.857a5.272,5.272,0,0,0-1.429.588l.294-.923a3.893,3.893,0,0,1,1.236-.732,6.2,6.2,0,0,1,.374-1.75A4.039,4.039,0,0,1,5.81-7.335q.813-.1,1.107-.116a3.478,3.478,0,0,0-.321.875,10.113,10.113,0,0,0-.116,1.552A14.135,14.135,0,0,0,8.176-5.7Zm5.544,4.19A8.444,8.444,0,0,1,12.161-.25a2.948,2.948,0,0,1-1.524.407,1.985,1.985,0,0,1-1.5-.595A2.166,2.166,0,0,1,8.565-2a3.928,3.928,0,0,1,1-2.622A2.913,2.913,0,0,1,11.8-5.8a1.511,1.511,0,0,1,1.019.328,1.08,1.08,0,0,1,.383.861q0,1.415-3.008,2.3.273,1.333,1.429,1.333a1.666,1.666,0,0,0,.861-.243A7.47,7.47,0,0,0,13.72-2.3ZM10.138-2.775q1.75-.492,1.75-1.818,0-.656-.479-.656-.451,0-.861.687A3.454,3.454,0,0,0,10.138-2.775Zm9.721,1.265A1.511,1.511,0,0,1,18.71-1a1.812,1.812,0,0,1-1.135-.506,8,8,0,0,1-1.3,1.244,2.066,2.066,0,0,1-1.227.4,1.242,1.242,0,0,1-1-.492,1.867,1.867,0,0,1-.4-1.224,12.652,12.652,0,0,1,.834-3.852A17.692,17.692,0,0,1,16.119-9.1q.9-.287,1.589-.465a6.249,6.249,0,0,1,.79-.178q.2,0,.345.263a1.277,1.277,0,0,1,.147.632,3.552,3.552,0,0,1-.637,1.794A11.357,11.357,0,0,1,16.7-5.012l-.9.9a9.124,9.124,0,0,0-.42,2.2,1,1,0,0,0,.178.622.559.559,0,0,0,.465.233.958.958,0,0,0,.606-.212,3.591,3.591,0,0,0,.606-.656,2.366,2.366,0,0,1-.342-1.2,3.339,3.339,0,0,1,.537-1.832q.537-.841,1.145-.841a.467.467,0,0,1,.393.212.933.933,0,0,1,.154.561,6.323,6.323,0,0,1-1.258,3.063,1.087,1.087,0,0,0,.854.465.942.942,0,0,0,.52-.14,3.087,3.087,0,0,0,.615-.646ZM16.152-5.174a11.309,11.309,0,0,0,1.677-2A3.054,3.054,0,0,0,18.4-8.566a.537.537,0,0,0-.086-.314A.25.25,0,0,0,18.108-9Q17.306-9,16.152-5.174Z" transform="translate(3418 -7857.994)" fill="#e2136e"/>
  </g>
</svg>
