<svg xmlns="http://www.w3.org/2000/svg" width="35.981" height="36.303" viewBox="0 0 35.981 36.303">
  <g id="map" transform="translate(0.65 0.65)">
    <ellipse id="Ellipse_804" data-name="Ellipse 804" cx="17.341" cy="4.828" rx="17.341" ry="4.828" transform="translate(0 25.347)" fill="none" stroke="#e11f6f" stroke-width="1.3"/>
    <path id="Path_13383" data-name="Path 13383" d="M38.062,17.213h0a10.8,10.8,0,0,0-15.372,0h0c-3.824,3.86-4.254,11.128-1.009,15.5l8.695,12.674,8.7-12.674C42.316,28.341,41.886,21.073,38.062,17.213Zm-7.58,11.271a3.621,3.621,0,0,1,0-7.242,3.767,3.767,0,0,1,2.783,1.336,3.374,3.374,0,0,1,.8,2.285A3.6,3.6,0,0,1,30.481,28.484Z" transform="translate(-13.141 -14.001)" fill="none" stroke="#e11f6f" stroke-width="1.3"/>
    <g id="Ellipse_1166" data-name="Ellipse 1166" transform="translate(13.749 7.219)" fill="#e11f6f" stroke="#e11f6f" stroke-width="1.3">
      <circle cx="4" cy="4" r="4" stroke="none"/>
      <circle cx="4" cy="4" r="3.35" fill="none"/>
    </g>
  </g>
</svg>
