<svg xmlns="http://www.w3.org/2000/svg" width="19.554" height="30" viewBox="0 0 19.554 30"><g transform="translate(-16.6 -10.4)"><path d="M17.436,15.751v2.507a.267.267,0,0,1-.251.251h-.334a.267.267,0,0,1-.251-.251V15.751a.267.267,0,0,1,.251-.251h.334a.222.222,0,0,1,.251.251" transform="translate(0 -0.838)" fill="#6ea688"/><path d="M39.836,15.751v2.507a.267.267,0,0,1-.251.251h-.334A.267.267,0,0,1,39,18.258V15.751a.267.267,0,0,1,.251-.251h.334a.222.222,0,0,1,.251.251" transform="translate(-3.681 -0.838)" fill="#6ea688"/><path d="M17.452,20.146v4.513a.267.267,0,0,1-.251.251h-.251a.267.267,0,0,1-.251-.251V20.146a.267.267,0,0,1,.251-.251h.167c.167-.084.334.084.334.251" transform="translate(-0.016 -1.557)" fill="#6ea688"/><path d="M34.482,40.4H18.6a1.5,1.5,0,0,1-1.5-1.5V11.9a1.5,1.5,0,0,1,1.5-1.5H34.482a1.5,1.5,0,0,1,1.5,1.5V38.9a1.5,1.5,0,0,1-1.5,1.5" transform="translate(-0.082)" fill="#6ea688"/><path d="M34.662,36.746H18.7a.539.539,0,0,1-.5-.5V14.6a.539.539,0,0,1,.5-.5H34.662a.539.539,0,0,1,.5.5V36.245a.539.539,0,0,1-.5.5" transform="translate(-0.263 -0.608)" fill="#d0ebe7"/><path d="M29.744,12.5H26.151a.251.251,0,0,1,0-.5h3.593a.222.222,0,0,1,.251.251.267.267,0,0,1-.251.251" transform="translate(-1.528 -0.263)" fill="#fff"/><path d="M29.474,43.437A1.337,1.337,0,1,1,28.137,42.1a1.32,1.32,0,0,1,1.337,1.337" transform="translate(-1.676 -5.21)" fill="#fff"/><path d="M27.018,20.6a6.518,6.518,0,1,0,6.518,6.518A6.526,6.526,0,0,0,27.018,20.6" transform="translate(-0.641 -1.676)" fill="#d0ebe7"/><path d="M27.018,20.6a6.518,6.518,0,1,0,6.518,6.518A6.526,6.526,0,0,0,27.018,20.6Z" transform="translate(-0.641 -1.676)" fill="none" stroke="#6ea688" stroke-miterlimit="10" stroke-width="1.524"/><path d="M29.814,26.959l-.669.585a1.333,1.333,0,0,1,.752,1.17,1.941,1.941,0,0,1-1.922,1.922c-.5,0-.919-.5-.919-1.253V27.711h1v-.836h-1V25.455c0-1.17-.752-1.755-1.253-1.755l-.418.585a1.092,1.092,0,0,1,.752,1.17v1.421H24.8v.836h1.337v1.671a1.95,1.95,0,0,0,1.838,2.006A2.71,2.71,0,0,0,30.65,28.63a1.634,1.634,0,0,0-.836-1.671" transform="translate(-1.348 -2.186)" fill="#6ea688"/></g></svg>