<svg xmlns="http://www.w3.org/2000/svg" xmlns:xlink="http://www.w3.org/1999/xlink" width="28" height="26" viewBox="0 0 28 26">
  <defs>
    <filter id="Rectangle_1733" x="0" y="0" width="14" height="13" filterUnits="userSpaceOnUse">
      <feOffset dx="1" dy="1" input="SourceAlpha"/>
      <feGaussianBlur result="blur"/>
      <feFlood flood-opacity="0.149"/>
      <feComposite operator="in" in2="blur"/>
      <feComposite in="SourceGraphic"/>
    </filter>
    <filter id="Rectangle_1733-2" x="15" y="0" width="13" height="13" filterUnits="userSpaceOnUse">
      <feOffset dx="1" dy="1" input="SourceAlpha"/>
      <feGaussianBlur result="blur-2"/>
      <feFlood flood-opacity="0.149"/>
      <feComposite operator="in" in2="blur-2"/>
      <feComposite in="SourceGraphic"/>
    </filter>
    <filter id="Rectangle_1733-3" x="0" y="14" width="14" height="12" filterUnits="userSpaceOnUse">
      <feOffset dx="1" dy="1" input="SourceAlpha"/>
      <feGaussianBlur result="blur-3"/>
      <feFlood flood-opacity="0.149"/>
      <feComposite operator="in" in2="blur-3"/>
      <feComposite in="SourceGraphic"/>
    </filter>
    <filter id="Rectangle_1733-4" x="15" y="14" width="13" height="12" filterUnits="userSpaceOnUse">
      <feOffset dx="1" dy="1" input="SourceAlpha"/>
      <feGaussianBlur result="blur-4"/>
      <feFlood flood-opacity="0.149"/>
      <feComposite operator="in" in2="blur-4"/>
      <feComposite in="SourceGraphic"/>
    </filter>
  </defs>
  <g id="more" transform="translate(0.166 -0.249)">
    <g transform="matrix(1, 0, 0, 1, -0.17, 0.25)" filter="url(#Rectangle_1733)">
      <g id="Rectangle_1733-5" data-name="Rectangle 1733" transform="translate(0 0)" fill="#ffbfe0" stroke="#dd147a" stroke-width="1">
        <path d="M0,0H11a2,2,0,0,1,2,2V12a0,0,0,0,1,0,0H2a2,2,0,0,1-2-2V0A0,0,0,0,1,0,0Z" stroke="none"/>
        <path d="M1,.5H11A1.5,1.5,0,0,1,12.5,2v9a.5.5,0,0,1-.5.5H2A1.5,1.5,0,0,1,.5,10V1A.5.5,0,0,1,1,.5Z" fill="none"/>
      </g>
    </g>
    <g transform="matrix(1, 0, 0, 1, -0.17, 0.25)" filter="url(#Rectangle_1733-2)">
      <g id="Rectangle_1733-6" data-name="Rectangle 1733" transform="translate(15 0)" fill="#ffbfe0" stroke="#dd147a" stroke-width="1">
        <path d="M0,0H10a2,2,0,0,1,2,2V12a0,0,0,0,1,0,0H2a2,2,0,0,1-2-2V0A0,0,0,0,1,0,0Z" stroke="none"/>
        <path d="M1,.5h9A1.5,1.5,0,0,1,11.5,2v9a.5.5,0,0,1-.5.5H2A1.5,1.5,0,0,1,.5,10V1A.5.5,0,0,1,1,.5Z" fill="none"/>
      </g>
    </g>
    <g transform="matrix(1, 0, 0, 1, -0.17, 0.25)" filter="url(#Rectangle_1733-3)">
      <g id="Rectangle_1733-7" data-name="Rectangle 1733" transform="translate(0 14)" fill="#ffbfe0" stroke="#dd147a" stroke-width="1">
        <path d="M0,0H11a2,2,0,0,1,2,2v9a0,0,0,0,1,0,0H2A2,2,0,0,1,0,9V0A0,0,0,0,1,0,0Z" stroke="none"/>
        <path d="M1,.5H11A1.5,1.5,0,0,1,12.5,2v8a.5.5,0,0,1-.5.5H2A1.5,1.5,0,0,1,.5,9V1A.5.5,0,0,1,1,.5Z" fill="none"/>
      </g>
    </g>
    <g transform="matrix(1, 0, 0, 1, -0.17, 0.25)" filter="url(#Rectangle_1733-4)">
      <g id="Rectangle_1733-8" data-name="Rectangle 1733" transform="translate(15 14)" fill="#ffbfe0" stroke="#dd147a" stroke-width="1">
        <path d="M0,0H10a2,2,0,0,1,2,2v9a0,0,0,0,1,0,0H2A2,2,0,0,1,0,9V0A0,0,0,0,1,0,0Z" stroke="none"/>
        <path d="M1,.5h9A1.5,1.5,0,0,1,11.5,2v8a.5.5,0,0,1-.5.5H2A1.5,1.5,0,0,1,.5,9V1A.5.5,0,0,1,1,.5Z" fill="none"/>
      </g>
    </g>
  </g>
</svg>
