<svg xmlns="http://www.w3.org/2000/svg" width="20.158" height="30" viewBox="0 0 20.158 30"><g transform="translate(-228 -104)"><path d="M28.575,46.9c-.258-.086-.515-.172-.859-.258A2.375,2.375,0,0,1,26.6,45.7h4.723a.266.266,0,0,0-.086.172A2.98,2.98,0,0,1,29.606,46.9c-.086,0-.086.086-.172.086h-.859Z" transform="translate(209.129 87.012)" fill="#5a7468" fill-rule="evenodd"/><path d="M28.678,44.46H25.071A.711.711,0,0,1,24.3,43.6c.086-.429.344-.6.859-.6H32.2a.853.853,0,0,1,.859.6.711.711,0,0,1-.773.859H28.678" transform="translate(209.456 87.393)" fill="#5a7468" fill-rule="evenodd"/><path d="M28.68,39.36H25.073a.7.7,0,0,1-.773-.687.683.683,0,0,1,.773-.773H32.2c.515,0,.859.258.859.687a.793.793,0,0,1-.859.773H28.68" transform="translate(209.454 88.113)" fill="#5a7468" fill-rule="evenodd"/><path d="M28.68,40.5h3.607a.68.68,0,0,1,.687.429.807.807,0,0,1-.086.773.975.975,0,0,1-.687.258H25.073a.721.721,0,0,1-.773-.773.7.7,0,0,1,.773-.687H28.68" transform="translate(209.454 87.746)" fill="#5a7468" fill-rule="evenodd"/><path d="M1.519.721,6.027-.261,10.954.988l3.5,4.465.61,4.332-1.14,3.874-4.12,6.687H2.394L-.361,15.071l-2.573-3.279V6.617L-.993,3.43Z" transform="translate(232 105)" fill="#d1ddd7"/><path d="M28.005,25.472H26.03c-.429,0-.515-.086-.344-.515.6-2.233,1.2-4.38,1.8-6.613.086-.258.172-.344.429-.344H31.7a1.948,1.948,0,0,1,.344.086c.086.086,0,.258-.086.344-.859,1.288-1.718,2.662-2.576,3.951-.086.086-.086.172-.172.344h1.8c.515,0,.515.172.344.515-.429.773-.859,1.46-1.288,2.233-1.031,1.8-2.061,3.521-3.092,5.325a.084.084,0,0,1-.086.086c-.086.086-.172.086-.258.172,0-.086-.086-.258-.086-.344.172-.773.429-1.46.6-2.233l.773-2.834a.266.266,0,0,1,.086-.172" transform="translate(209.27 90.923)" fill="#5a7468" fill-rule="evenodd"/><path d="M17.6,22.344a10.087,10.087,0,0,1,20.01-1.8,10.747,10.747,0,0,1-2.147,8.33,9.193,9.193,0,0,1-1.2,1.374,9.464,9.464,0,0,0-1.718,2.4c-.086.258-.258.429-.344.687a.691.691,0,0,1-.945.258.7.7,0,0,1-.344-.859,11.948,11.948,0,0,1,2.147-3.263,10.963,10.963,0,0,0,3.092-5.153,8.694,8.694,0,1,0-17-3.607A9.054,9.054,0,0,0,20.692,27.5a11.727,11.727,0,0,0,1.632,1.975,11.948,11.948,0,0,1,2.147,3.263.6.6,0,0,1-.344.859.75.75,0,0,1-.945-.344c-.258-.515-.515-1.031-.773-1.46A4.865,4.865,0,0,0,21.379,30.5a11.921,11.921,0,0,1-3.435-5.84,12.114,12.114,0,0,1-.344-2.319" transform="translate(210.4 91.732)" fill="#5a7468" fill-rule="evenodd"/></g></svg>