<svg xmlns="http://www.w3.org/2000/svg" width="23.788" height="31.524" viewBox="0 0 23.788 31.524"><g transform="translate(-14.638 -10.638)"><path d="M31.537,21.285s.43-9.885-4.986-9.885C21.307,11.4,22,21.285,22,21.285" transform="translate(-0.922)" fill="none" stroke="#ef8857" stroke-linecap="round" stroke-linejoin="round" stroke-miterlimit="10" stroke-width="1.524"/><path d="M37.664,42.579l-.43-5.587L37.148,19.8H15.916L15.83,36.992l-.43,5.587Z" transform="translate(0 -1.179)" fill="#f8ddc6"/><path d="M37.664,42.579l-.43-5.587L37.148,19.8H15.916L15.83,36.992l-.43,5.587Z" transform="translate(0 -1.179)" fill="none" stroke="#ef8857" stroke-linecap="round" stroke-linejoin="round" stroke-miterlimit="10" stroke-width="1.524"/><path d="M23.735,23.117A1.117,1.117,0,1,1,22.617,22a1.084,1.084,0,0,1,1.117,1.117" transform="translate(-0.856 -1.488)" fill="#ef8857"/><path d="M34.935,23.117A1.117,1.117,0,1,1,33.817,22a1.138,1.138,0,0,1,1.117,1.117" transform="translate(-2.429 -1.488)" fill="#ef8857"/><path d="M32.437,21.285s.43-9.885-4.986-9.885c-5.244,0-4.556,9.885-4.556,9.885" transform="translate(-1.048)" fill="none" stroke="#ef8857" stroke-linecap="round" stroke-linejoin="round" stroke-miterlimit="10" stroke-width="1.524"/></g></svg>