<svg xmlns="http://www.w3.org/2000/svg" width="38.111" height="37.849" viewBox="0 0 38.111 37.849">
  <g id="qr_code" transform="translate(-6.102 -6.027)">
    <g id="qr-code_9_" data-name="qr-code (9)" transform="translate(6.102 6.027)">
      <g id="Group_3973" data-name="Group 3973">
        <g id="Group_3972" data-name="Group 3972">
          <rect id="Rectangle_1591" data-name="Rectangle 1591" width="4.764" height="4.886" transform="translate(4.764 4.886)" fill="#e2136e"/>
          <path id="Path_5276" data-name="Path 5276" d="M14.292,0H0V14.658H14.292ZM11.91,12.215H2.382V2.443H11.91Z" fill="#e2136e"/>
          <rect id="Rectangle_1592" data-name="Rectangle 1592" width="4.764" height="4.886" transform="translate(28.584 4.886)" fill="#e2136e"/>
          <path id="Path_5277" data-name="Path 5277" d="M320,0V14.658h14.292V0Zm11.91,12.215h-9.528V2.443h9.528Z" transform="translate(-296.18)" fill="#e2136e"/>
          <rect id="Rectangle_1593" data-name="Rectangle 1593" width="4.764" height="4.886" transform="translate(4.764 28.078)" fill="#e2136e"/>
          <path id="Path_5278" data-name="Path 5278" d="M.031,334.658H14.32V320H.031Zm2.382-12.215h9.528v9.774H2.413v-9.774Z" transform="translate(-0.029 -296.808)" fill="#e2136e"/>
          <path id="Path_5279" data-name="Path 5279" d="M226.384,322.443H224v2.443h2.384v4.886h2.382V320h-2.382Z" transform="translate(-207.326 -296.808)" fill="#e2136e"/>
          <path id="Path_5280" data-name="Path 5280" d="M240.674,172.212H238.29v2.443h2.384v4.888H238.29v-4.888h-4.762v-4.883h2.382v2.441h2.38v-2.441h2.384v-2.443H238.29v-2.443h-2.38v2.443h-2.382v-2.443h-4.764V160h-2.382v2.443H224v2.443h2.382v4.886h4.764v12.215h2.382v2.443h-2.382v2.443h4.764v-2.443h2.38v-2.443h2.384v2.443h-2.084v2.443h6.848v-4.886h-2.382V177.1h2.382v-2.445h-2.382v-4.883h-2.382Zm-4.764,7.331h-2.382V177.1h2.382Z" transform="translate(-207.326 -149.023)" fill="#e2136e"/>
          <path id="Path_5281" data-name="Path 5281" d="M228.764,7.329V0H224V2.443h2.382V4.886H224v7.329h2.382V7.329Z" transform="translate(-207.326)" fill="#e2136e"/>
          <path id="Path_5282" data-name="Path 5282" d="M100.793,226.443h-2.38V224H96.031v2.443h2.38v2.443h4.764v-2.443h2.382V224h-4.764Z" transform="translate(-88.883 -207.518)" fill="#e2136e"/>
          <path id="Path_5283" data-name="Path 5283" d="M448,226.443h2.382v2.443h2.382V224H448Z" transform="translate(-414.653 -207.518)" fill="#e2136e"/>
          <rect id="Rectangle_1594" data-name="Rectangle 1594" width="2.382" height="2.443" transform="translate(16.674 21.244)" fill="#e2136e"/>
          <rect id="Rectangle_1595" data-name="Rectangle 1595" width="2.382" height="2.443" transform="translate(16.674 32.964)" fill="#e2136e"/>
          <rect id="Rectangle_1596" data-name="Rectangle 1596" width="2.382" height="2.443" transform="translate(19.056 35.406)" fill="#e2136e"/>
          <path id="Path_5284" data-name="Path 5284" d="M7.146,226.443H4.764V224H0v4.886H7.146Z" transform="translate(0 -207.518)" fill="#e2136e"/>
        </g>
      </g>
    </g>
  </g>
</svg>
