<svg xmlns="http://www.w3.org/2000/svg" width="38.754" height="26.095" viewBox="0 0 38.754 26.095">
  <g id="refer_friend" transform="translate(0.243 -48.93)">
    <path id="Path_4913" data-name="Path 4913" d="M.491,0A.491.491,0,1,0,.982.491.491.491,0,0,0,.491,0Zm0,0" transform="translate(3.498 72.12) rotate(-3)" fill="#e2136e"/>
    <path id="Path_5196" data-name="Path 5196" d="M0,4.914H0A7.77,7.77,0,0,1,1.013,2.7,8.393,8.393,0,0,1,3.954,0" transform="translate(5.238 66.159) rotate(8)" fill="none" stroke="#e2136e" stroke-linecap="round" stroke-width="0.7"/>
    <path id="Path_11183" data-name="Path 11183" d="M-.672-22.378s.429-10.76,11.27-10.589S21.24-22.378,21.24-22.378" transform="translate(1.125 96.706)" fill="none" stroke="#e2136e" stroke-linecap="round" stroke-width="1.34"/>
    <path id="Path_11184" data-name="Path 11184" d="M1.536-31.083c1.049-.973,3.125-1.928,6.289-1.884,8.839.122,9.669,7.07,9.669,7.07" transform="translate(20.271 96.706)" fill="none" stroke="#e2136e" stroke-linecap="round" stroke-width="1.34"/>
    <g id="Ellipse_943" data-name="Ellipse 943" transform="translate(4.9 48.93)" fill="none" stroke="#e2136e" stroke-width="1.34">
      <circle cx="6.31" cy="6.31" r="6.31" stroke="none"/>
      <circle cx="6.31" cy="6.31" r="5.64" fill="none"/>
    </g>
    <g id="Ellipse_944" data-name="Ellipse 944" transform="translate(21.728 48.93)" fill="none" stroke="#e2136e" stroke-width="1.34">
      <circle cx="6.31" cy="6.31" r="6.31" stroke="none"/>
      <circle cx="6.31" cy="6.31" r="5.64" fill="none"/>
    </g>
  </g>
</svg>
