<svg id="send_gift" xmlns="http://www.w3.org/2000/svg" width="37.056" height="30.327" viewBox="0 0 37.056 30.327">
  <g id="bg" transform="translate(1.364 10.728)" opacity="0.59">
    <path id="Path_15860" data-name="Path 15860" d="M12.034,78.042S8.624,73.1,10.693,68.007c1.348-3.318,6.4-5.137,9.256-3.318,1.215.774,5.113.026,7.2-3.179,4.045-6.231,18.165-2.446,15.594,7.118-1.243,4.629,3.785,4.8,1.224,9.423Z" transform="translate(-10.027 -58.46)" fill="#fae1e3"/>
    <g id="Group_7498" data-name="Group 7498" transform="translate(18.32 5.906)">
      <g id="Group_7493" data-name="Group 7493" transform="translate(6.047 7.007)">
        <path id="Path_15861" data-name="Path 15861" d="M138.151,121.257s-.635-1.746.742-2.184a3.227,3.227,0,0,1,1.569.1s-1.461,1.164-1.228,1.424,1.535-1.416,1.535-1.416a7.578,7.578,0,0,1,2.294.981s-1.972.667-1.682.859a8.059,8.059,0,0,0,2.375-.405s1.537.9,1.073,1.866-1.147,1.066-1.386.945-1.484-1.224-1.593-1.032.516,1.188,1.117,1.45c0,0-1.638.84-2.269.183s-.476-1.267-.874-1.667-.806-.552-.693-.256.9.842.992,1.431.215,1.009-.537.589-1.825-1.488-1.631-2.177Z" transform="translate(-135.025 -119.017)" fill="#f4cacc"/>
        <g id="Group_7492" data-name="Group 7492" transform="translate(0 1.991)">
          <path id="Path_15862" data-name="Path 15862" d="M139.031,129.549s-4.4-1.851-5.862-.947a3.43,3.43,0,0,1-1.358.913l-.211.245a4.693,4.693,0,0,1,1.375-.469S133.137,127.547,139.031,129.549Z" transform="translate(-130.043 -128.353)" fill="#f4cacc"/>
          <path id="Path_15863" data-name="Path 15863" d="M126.068,133.695a3,3,0,0,0-1.768,1.589l.168.081a4.82,4.82,0,0,1,1.544-1.5C126.759,133.563,126.068,133.695,126.068,133.695Z" transform="translate(-124.3 -132.533)" fill="#f4cacc"/>
        </g>
      </g>
      <g id="Group_7495" data-name="Group 7495" transform="translate(0 4.199)">
        <path id="Path_15864" data-name="Path 15864" d="M101.823,110s1.6-.9.855-2.117a3.182,3.182,0,0,0-1.241-.94s.341,1.819,0,1.862-.235-2.053-.235-2.053A7.533,7.533,0,0,0,98.851,106s1.047,1.774.706,1.731-1.518-1.84-1.518-1.84-1.731-.32-2.011.706.171,1.54.429,1.6,1.9.043,1.862.256-1.156.557-1.774.362c0,0,.684,1.689,1.582,1.6s1.177-.642,1.731-.684.962.107.684.256-1.22.049-1.667.431-.812.616.021.789,2.331.064,2.631-.578Z" transform="translate(-95.94 -105.849)" fill="#f4cacc"/>
        <g id="Group_7494" data-name="Group 7494" transform="translate(0.879 1.073)">
          <path id="Path_15865" data-name="Path 15865" d="M100.06,110.88s4.491,1.454,5,3.079a3.406,3.406,0,0,0,.429,1.561v.32a4.688,4.688,0,0,0-.727-1.241S105.77,113.189,100.06,110.88Z" transform="translate(-100.06 -110.88)" fill="#f4cacc"/>
          <path id="Path_15866" data-name="Path 15866" d="M124.74,131.912a2.963,2.963,0,0,1,.3,2.333l-.179-.047a4.789,4.789,0,0,0-.19-2.12C124.309,131.366,124.74,131.912,124.74,131.912Z" transform="translate(-119.309 -127.27)" fill="#f4cacc"/>
        </g>
      </g>
      <g id="Group_7497" data-name="Group 7497" transform="translate(6.203)">
        <path id="Path_15867" data-name="Path 15867" d="M126.566,92.213s-2.339-1.309-1.247-3.088a4.624,4.624,0,0,1,1.808-1.371s-.5,2.65,0,2.712.343-2.994.343-2.994,2.463-1.186,3.429-1.092c0,0-1.527,2.589-1.03,2.525s2.213-2.68,2.213-2.68,2.525-.467,2.93,1.03-.249,2.245-.623,2.339-2.774.062-2.712.373,1.685.81,2.589.531c0,0-1,2.463-2.307,2.339s-1.714-.936-2.525-1-1.4.156-1,.373,1.776.072,2.431.629,1.186.9-.032,1.149-3.4.094-3.834-.842Z" transform="translate(-125.029 -86.157)" fill="#f8d6d8"/>
        <g id="Group_7496" data-name="Group 7496" transform="translate(0.301 1.568)">
          <path id="Path_15868" data-name="Path 15868" d="M137.237,93.51s-6.548,2.12-7.295,4.491a4.963,4.963,0,0,1-.623,2.275v.467a6.824,6.824,0,0,1,1.06-1.808S128.913,96.877,137.237,93.51Z" transform="translate(-128.706 -93.51)" fill="#f8d6d8"/>
          <path id="Path_15869" data-name="Path 15869" d="M127.051,124.166a4.314,4.314,0,0,0-.435,3.4l.26-.07a7,7,0,0,1,.275-3.09C127.682,123.372,127.051,124.166,127.051,124.166Z" transform="translate(-126.439 -117.4)" fill="#f8d6d8"/>
        </g>
      </g>
    </g>
    <g id="Group_7503" data-name="Group 7503" transform="translate(1.073 12.606)">
      <path id="Path_15870" data-name="Path 15870" d="M21.455,117.691v.173c0,.06-.019.111-.043.111H15.1c-.023,0-.043-.049-.043-.111v-.173c0-.06.019-.111.043-.111h6.31C21.436,117.58,21.455,117.629,21.455,117.691Z" transform="translate(-15.06 -117.58)" fill="#f6bec0"/>
      <path id="Path_15871" data-name="Path 15871" d="M26.278,117.691v.173c0,.06-.017.111-.041.111H21.231c-.021,0-.041-.049-.041-.111v-.173c0-.06.017-.111.041-.111h5.009C26.261,117.58,26.278,117.629,26.278,117.691Z" transform="translate(-19.883 -117.58)" fill="#f8d6d8"/>
      <rect id="Rectangle_5999" data-name="Rectangle 5999" width="4.48" height="6.529" transform="translate(0.32 0.392)" fill="#f3b9be"/>
      <rect id="Rectangle_6000" data-name="Rectangle 6000" width="4.48" height="6.529" transform="translate(1.576 0.392)" fill="#fff5f5"/>
      <g id="Group_7502" data-name="Group 7502" transform="translate(1.815 0.578)">
        <g id="Group_7499" data-name="Group 7499">
          <path id="Path_15872" data-name="Path 15872" d="M27.568,126.273h-4V120.29h4Zm-3.953-.043h3.911v-5.9H23.615Z" transform="translate(-23.57 -120.29)" fill="#f3b9be"/>
        </g>
        <g id="Group_7500" data-name="Group 7500" transform="translate(0.023 1.979)">
          <rect id="Rectangle_6001" data-name="Rectangle 6001" width="3.955" height="0.043" fill="#f3b9be"/>
        </g>
        <g id="Group_7501" data-name="Group 7501" transform="translate(0.023 3.998)">
          <rect id="Rectangle_6002" data-name="Rectangle 6002" width="3.955" height="0.043" fill="#f3b9be"/>
        </g>
        <path id="Path_15873" data-name="Path 15873" d="M31.907,121.628h-.734a.064.064,0,0,1-.064-.064h0a.064.064,0,0,1,.064-.064h.734a.064.064,0,0,1,.064.064h0A.064.064,0,0,1,31.907,121.628Z" transform="translate(-29.502 -121.242)" fill="#f3b9be"/>
        <path id="Path_15874" data-name="Path 15874" d="M31.907,130.878h-.734a.064.064,0,0,1-.064-.064h0a.064.064,0,0,1,.064-.064h.734a.064.064,0,0,1,.064.064h0A.063.063,0,0,1,31.907,130.878Z" transform="translate(-29.502 -128.52)" fill="#f3b9be"/>
        <path id="Path_15875" data-name="Path 15875" d="M31.907,140.528h-.734a.064.064,0,0,1-.064-.064h0a.064.064,0,0,1,.064-.064h.734a.064.064,0,0,1,.064.064h0A.063.063,0,0,1,31.907,140.528Z" transform="translate(-29.502 -136.112)" fill="#f3b9be"/>
      </g>
    </g>
    <g id="Group_7510" data-name="Group 7510" transform="translate(1.643 11.617)">
      <g id="Group_7505" data-name="Group 7505" transform="translate(0 0.527)">
        <g id="Group_7504" data-name="Group 7504">
          <path id="Path_15876" data-name="Path 15876" d="M19.369,115.881H18.06v-.461h1.314a.183.183,0,0,1,.183.183v.092A.187.187,0,0,1,19.369,115.881Z" transform="translate(-17.99 -115.418)" fill="#fceedb"/>
          <path id="Path_15877" data-name="Path 15877" d="M20.412,115.61v.07a.21.21,0,0,1-.028.1.2.2,0,0,1-.175.1H17.76a.029.029,0,0,1-.03-.03v-.011a.029.029,0,0,1,.03-.03h1.493a.277.277,0,0,0,.021-.032.171.171,0,0,0,.021-.087v-.087a.166.166,0,0,0-.006-.047.187.187,0,0,0-.034-.068H17.76a.029.029,0,0,1-.03-.03v-.011a.029.029,0,0,1,.03-.03h2.461a.19.19,0,0,1,.183.139A.129.129,0,0,1,20.412,115.61Z" transform="translate(-17.73 -115.418)" fill="#f6bec0"/>
          <path id="Path_15878" data-name="Path 15878" d="M20.4,115.549H19.289a.187.187,0,0,0-.034-.068H17.76a.029.029,0,0,1-.03-.03v-.011a.029.029,0,0,1,.03-.03h2.461A.193.193,0,0,1,20.4,115.549Z" transform="translate(-17.73 -115.41)" fill="#efb6b9"/>
        </g>
        <path id="Path_15879" data-name="Path 15879" d="M18.06,116.5l.181.009-.181,0Z" transform="translate(-17.99 -116.268)" fill="#f4dec6"/>
        <path id="Path_15880" data-name="Path 15880" d="M18.06,116.84l.431.009-.431,0Z" transform="translate(-17.99 -116.535)" fill="#f4dec6"/>
      </g>
      <g id="Group_7509" data-name="Group 7509" transform="translate(0.136)">
        <g id="Group_7507" data-name="Group 7507">
          <g id="Group_7506" data-name="Group 7506">
            <path id="Path_15881" data-name="Path 15881" d="M24.143,113.477h1.418v-.527H24.139a.209.209,0,0,0-.209.209v.1A.211.211,0,0,0,24.143,113.477Z" transform="translate(-22.744 -112.948)" fill="#fceedb"/>
            <path id="Path_15882" data-name="Path 15882" d="M19.588,113.147v.113a.133.133,0,0,0,.066.113.139.139,0,0,0,.066.017h1.544a.033.033,0,0,1,.032.032v.013a.033.033,0,0,1-.032.032H18.6a.227.227,0,0,1-.186-.1.224.224,0,0,1-.041-.13v-.09a.223.223,0,0,1,.021-.092.212.212,0,0,1,.192-.119h2.68a.033.033,0,0,1,.032.032v.013a.033.033,0,0,1-.032.032H19.716a.127.127,0,0,0-.094.041A.138.138,0,0,0,19.588,113.147Z" transform="translate(-18.37 -112.94)" fill="#f8d6d8"/>
          </g>
          <path id="Path_15883" data-name="Path 15883" d="M30.848,114.19l-.2.009.2,0Z" transform="translate(-28.031 -113.923)" fill="#f4dec6"/>
          <path id="Path_15884" data-name="Path 15884" d="M29.841,113.62l-.471.009.471,0Z" transform="translate(-27.024 -113.475)" fill="#f4dec6"/>
        </g>
        <g id="Group_7508" data-name="Group 7508" transform="translate(2.35 0.151)">
          <path id="Path_15885" data-name="Path 15885" d="M29.39,113.65a.091.091,0,0,1,.041.045s0,.011,0,.015c0,.036,0,.119,0,.119l.092-.041.092.041v-.113a.074.074,0,0,0-.023-.055.035.035,0,0,0-.026-.011Z" transform="translate(-29.39 -113.65)" fill="#f8d6d8"/>
          <path id="Path_15886" data-name="Path 15886" d="M29.39,113.65a.091.091,0,0,1,.041.045l.183,0a.06.06,0,0,0-.045-.047Z" transform="translate(-29.39 -113.65)" fill="#f6bec0"/>
        </g>
      </g>
    </g>
    <g id="Group_7511" data-name="Group 7511" transform="translate(5.235 11.474)">
      <path id="Path_15887" data-name="Path 15887" d="M36.4,112.27h-1.45a.641.641,0,0,0-.006.092v.141a.471.471,0,0,0-.3.006c-.115.07-.079.279.028.407a1.153,1.153,0,0,0,.452.213.731.731,0,0,0,.431.239.7.7,0,0,0,.117.011.733.733,0,0,0,.731-.731v-.284A.455.455,0,0,0,36.4,112.27Zm-1.678.5c-.047-.119-.015-.164.036-.173a.217.217,0,0,1,.188.1.752.752,0,0,0,.058.241C34.927,112.916,34.763,112.865,34.725,112.771Z" transform="translate(-34.577 -112.27)" fill="#f8d6d8"/>
      <path id="Path_15888" data-name="Path 15888" d="M38.1,117.171h.663l-.038-.09-.6-.021Z" transform="translate(-37.349 -116.039)" fill="#f8d6d8"/>
      <path id="Path_15889" data-name="Path 15889" d="M35.569,113.308c-.439-.507-.343-.753-.264-1.028h-.352a.64.64,0,0,0-.006.092v.141a.471.471,0,0,0-.3.006c-.115.07-.079.279.028.407a1.153,1.153,0,0,0,.452.213.735.735,0,0,0,.224.171l-.028.1h.224l.006-.036h0Zm-.844-.529c-.047-.119-.015-.164.036-.173a.217.217,0,0,1,.188.1.752.752,0,0,0,.058.241C34.927,112.924,34.763,112.873,34.725,112.779Z" transform="translate(-34.577 -112.278)" fill="#f8d6d8"/>
    </g>
  </g>
  <g id="gift_box" data-name="gift box" transform="translate(6.414)">
    <g id="box" transform="translate(1.262 15.901)">
      <rect id="Rectangle_6008" data-name="Rectangle 6008" width="21.707" height="14.126" transform="translate(0 0.081)" fill="#fff"/>
      <rect id="Rectangle_6003" data-name="Rectangle 6003" width="21.159" height="14.186" transform="translate(0.273 0)" fill="#f50057"/>
      <rect id="Rectangle_6004" data-name="Rectangle 6004" width="3.987" height="14.105" transform="translate(8.858 0.081)" fill="#b7044e"/>
    </g>
    <g id="lid" transform="translate(0 6.637)">
      <g id="ribbon" transform="translate(6.943)">
        <g id="Group_7514" data-name="Group 7514">
          <path id="Path_15891" data-name="Path 15891" d="M76.291,39.949a2.29,2.29,0,0,0-2.066-.565,4.124,4.124,0,0,0-2.181,1.181,2.541,2.541,0,0,0-.456.627,2.546,2.546,0,0,0-.452-.648h0a4.149,4.149,0,0,0-2.162-1.22,2.154,2.154,0,0,0-2.668,2.582,4.118,4.118,0,0,0,1.149,2.2c1.309,1.35,3.919.823,4.03.8l.032-.006.1.023c.111.026,2.712.6,4.043-.729a4.148,4.148,0,0,0,1.19-2.179A2.282,2.282,0,0,0,76.291,39.949Zm-5.248,4.179c-.631.085-2.2.2-2.985-.606a3.3,3.3,0,0,1-.923-1.744,1.477,1.477,0,0,1,.348-1.324,1.157,1.157,0,0,1,.426-.26,1.776,1.776,0,0,1,.908-.047,3.3,3.3,0,0,1,1.714.979C71.312,41.932,71.148,43.5,71.043,44.128Zm4.979-2.258a3.3,3.3,0,0,1-.953,1.727c-.8.793-2.365.65-2.994.554-.094-.629-.232-2.2.563-2.994a3.3,3.3,0,0,1,1.731-.949,1.767,1.767,0,0,1,.908.062,1.152,1.152,0,0,1,.42.269,1.487,1.487,0,0,1,.324,1.331Z" transform="translate(-66.269 -39.271)" fill="#fff"/>
        </g>
        <path id="Path_15892" data-name="Path 15892" d="M72.576,45.2l-.249.053c-.107.021-2.6.527-3.857-.766a3.952,3.952,0,0,1-1.1-2.1,2.061,2.061,0,0,1,2.55-2.476,3.964,3.964,0,0,1,2.07,1.166h0c1.252,1.292.67,3.774.644,3.879ZM68.9,40.739a1.149,1.149,0,0,0-.407.249,1.408,1.408,0,0,0-.333,1.267,3.153,3.153,0,0,0,.885,1.67c.746.77,2.252.663,2.855.58.1-.6.258-2.1-.49-2.872h0a3.171,3.171,0,0,0-1.64-.936A1.679,1.679,0,0,0,68.9,40.739Z" transform="translate(-67.107 -39.73)" fill="#b7044e"/>
        <path id="Path_15893" data-name="Path 15893" d="M89.493,45.459l-.055-.247c-.023-.107-.563-2.6.71-3.866h0a3.965,3.965,0,0,1,2.09-1.13,2.061,2.061,0,0,1,2.51,2.516,3.974,3.974,0,0,1-1.137,2.085c-1.273,1.267-3.761.723-3.868.7Zm3.747-4.395a1.684,1.684,0,0,0-.868-.06,3.148,3.148,0,0,0-1.657.908h0c-.761.757-.629,2.26-.539,2.864.6.092,2.1.228,2.866-.531a3.168,3.168,0,0,0,.913-1.653,1.407,1.407,0,0,0-.311-1.273,1.111,1.111,0,0,0-.4-.256Z" transform="translate(-84.393 -39.981)" fill="#b7044e"/>
      </g>
      <rect id="Rectangle_6009" data-name="Rectangle 6009" width="24.223" height="4.84" transform="translate(0 4.814)" fill="#fff"/>
      <rect id="Rectangle_6005" data-name="Rectangle 6005" width="21.159" height="4.292" transform="translate(1.535 5.358)" fill="#b7044e"/>
      <rect id="Rectangle_6006" data-name="Rectangle 6006" width="23.611" height="4.292" transform="translate(0.307 5.051)" fill="#f50057"/>
      <rect id="Rectangle_6007" data-name="Rectangle 6007" width="3.987" height="4.292" transform="translate(10.12 5.051)" fill="#b7044e"/>
    </g>
    <g id="bling" transform="translate(2.237)">
      <path id="Path_15894" data-name="Path 15894" d="M91,8.293V12.56a.15.15,0,0,0,.3,0V8.293A.15.15,0,0,0,91,8.293Z" transform="translate(-81.02 -8.148)" fill="#b7044e"/>
      <path id="Path_15895" data-name="Path 15895" d="M107.481,21.609a.156.156,0,0,0-.186.1l-.729,1.81c-.034.087-.07.175-.1.262a.153.153,0,0,0,.1.186.156.156,0,0,0,.186-.1l.729-1.81c.034-.087.07-.175.1-.262A.15.15,0,0,0,107.481,21.609Z" transform="translate(-93.18 -18.734)" fill="#b7044e"/>
      <path id="Path_15896" data-name="Path 15896" d="M72.006,21.976c-.034-.087-.07-.175-.1-.262a.153.153,0,0,0-.186-.1.151.151,0,0,0-.1.186c.243.6.484,1.207.727,1.812.034.087.07.175.1.262a.153.153,0,0,0,.186.1.151.151,0,0,0,.1-.186Q72.369,22.88,72.006,21.976Z" transform="translate(-65.76 -18.734)" fill="#b7044e"/>
      <path id="Path_15897" data-name="Path 15897" d="M46.464,49.944l-1.785-.8c-.085-.038-.171-.077-.256-.113a.153.153,0,0,0-.2.053.151.151,0,0,0,.053.2l1.785.8c.085.038.171.077.256.113a.153.153,0,0,0,.2-.053A.15.15,0,0,0,46.464,49.944Z" transform="translate(-44.199 -40.301)" fill="#b7044e"/>
      <path id="Path_15898" data-name="Path 15898" d="M130.823,49.539a.154.154,0,0,0-.2-.053c-.6.262-1.2.525-1.793.789l-.252.111a.151.151,0,0,0-.053.2.154.154,0,0,0,.2.053q.9-.393,1.793-.789l.252-.111A.149.149,0,0,0,130.823,49.539Z" transform="translate(-110.525 -40.657)" fill="#b7044e"/>
      <path id="Path_15899" data-name="Path 15899" d="M123.209,26.434c.136-.139-.077-.35-.211-.211l-2.619,2.663-.371.377c-.136.139.077.35.211.211l2.618-2.663C122.961,26.688,123.085,26.56,123.209,26.434Z" transform="translate(-103.809 -22.333)" fill="#b7044e"/>
      <path id="Path_15900" data-name="Path 15900" d="M49.091,26.811c-.126-.124-.252-.247-.377-.373s-.35.077-.211.211q1.331,1.311,2.659,2.623c.126.124.252.247.377.373s.35-.077.211-.211Q50.42,28.126,49.091,26.811Z" transform="translate(-47.55 -22.503)" fill="#b7044e"/>
    </g>
  </g>
  <path id="border" d="M40.6,149.536H3.711a.081.081,0,0,1-.081-.081v-.064a.081.081,0,0,1,.081-.081H40.6a.081.081,0,0,1,.081.081v.064A.081.081,0,0,1,40.6,149.536Z" transform="translate(-3.63 -119.209)" fill="#b7044e"/>
</svg>
