<svg xmlns="http://www.w3.org/2000/svg" width="41.724" height="26.724" viewBox="0 0 41.724 26.724"><g transform="translate(-7.638 -15.338)"><path d="M36,16.1A12.6,12.6,0,1,0,48.6,28.7,12.548,12.548,0,0,0,36,16.1" fill="#f6dcdc"/><path d="M23.4,28.7a12.7,12.7,0,1,0,1.3-5.5" fill="none" stroke="#e27a87" stroke-linecap="round" stroke-miterlimit="10" stroke-width="1.524"/><path d="M39.6,27.7l-1.1,1a2.529,2.529,0,0,1,1.3,2,3.434,3.434,0,0,1-3.4,3.4A2.007,2.007,0,0,1,34.7,32V29h1.8V27.6H34.7V25c0-2-1.3-3.1-2.1-3.1L31.9,23a1.887,1.887,0,0,1,1.3,2v2.6H30.8V29h2.4v2.9a3.524,3.524,0,0,0,3.2,3.6,4.882,4.882,0,0,0,4.8-4.9,2.906,2.906,0,0,0-1.6-2.9" fill="#e27a87"/><path d="M39.6,27.7l-1.1,1a2.529,2.529,0,0,1,1.3,2,3.434,3.434,0,0,1-3.4,3.4A2.007,2.007,0,0,1,34.7,32V29h1.8V27.6H34.7V25c0-2-1.3-3.1-2.1-3.1L31.9,23a1.887,1.887,0,0,1,1.3,2v2.6H30.8V29h2.4v2.9a3.524,3.524,0,0,0,3.2,3.6,4.882,4.882,0,0,0,4.8-4.9A2.906,2.906,0,0,0,39.6,27.7Z" fill="none" stroke="#e27a87" stroke-miterlimit="10" stroke-width="0.347"/><line x1="20.1" transform="translate(8.4 26.3)" stroke-width="1.524" stroke="#e27a87" stroke-linecap="round" stroke-linejoin="round" stroke-miterlimit="10" fill="none"/><line x1="9.7" transform="translate(10.6 19.5)" stroke-width="1.524" stroke="#e27a87" stroke-linecap="round" stroke-linejoin="round" stroke-miterlimit="10" fill="none"/><line x1="9.7" transform="translate(8.4 38.2)" stroke-width="1.524" stroke="#e27a87" stroke-linecap="round" stroke-linejoin="round" stroke-miterlimit="10" fill="none"/><line x1="7.7" transform="translate(16.2 32.8)" stroke-width="1.524" stroke="#e27a87" stroke-linecap="round" stroke-linejoin="round" stroke-miterlimit="10" fill="none"/></g></svg>