<svg xmlns="http://www.w3.org/2000/svg" width="82.147" height="32.119" viewBox="0 0 82.147 32.119">
  <g id="send_fav" transform="translate(-3266.853 7580.755)">
    <g id="Component_17_1" data-name="Component 17 – 1" transform="translate(3320.937 -7580.755)">
      <g id="Group_7130" data-name="Group 7130" transform="translate(0 -0.032)">
        <g id="contact-book" transform="translate(0 3.926)">
          <path id="Path_11765" data-name="Path 11765" d="M19.409,0H3.529A3.361,3.361,0,0,0,.169,3.36V4.812H-1.41a.672.672,0,0,0-.672.672.672.672,0,0,0,.672.672H.162v4.408H-1.41a.672.672,0,0,0-.672.672.672.672,0,0,0,.672.672H.162v4.408H-1.41a.672.672,0,0,0-.672.672.672.672,0,0,0,.672.672H.162v4.408H-1.41a.672.672,0,0,0-.672.672.672.672,0,0,0,.672.672H.162v1.452a3.362,3.362,0,0,0,3.36,3.36H19.4a3.361,3.361,0,0,0,3.36-3.36V3.36A3.355,3.355,0,0,0,19.409,0Zm2.016,24.865a2.022,2.022,0,0,1-2.016,2.016H3.529a2.022,2.022,0,0,1-2.016-2.016V23.413H3.086a.672.672,0,0,0,0-1.344H1.513V17.661H3.086a.672.672,0,0,0,0-1.344H1.513V11.908H3.086a.672.672,0,1,0,0-1.344H1.513V6.156H3.086a.672.672,0,1,0,0-1.344H1.513V3.36A2.022,2.022,0,0,1,3.529,1.344h15.88A2.022,2.022,0,0,1,21.425,3.36Zm0,0" transform="translate(2.082 0)" fill="#e2136e"/>
          <path id="Path_11766" data-name="Path 11766" d="M192.552,144.144a3.259,3.259,0,1,0-3.259-3.259A3.259,3.259,0,0,0,192.552,144.144Zm0-5.181a1.915,1.915,0,1,1-1.915,1.915A1.915,1.915,0,0,1,192.552,138.962Zm0,0" transform="translate(-179.004 -130.226)" fill="#e20d6e"/>
          <path id="Path_11767" data-name="Path 11767" d="M162.151,279a5.021,5.021,0,0,0-4.987,5.161.674.674,0,0,0,.672.672h8.629a.674.674,0,0,0,.672-.672A5.021,5.021,0,0,0,162.151,279Zm-3.589,4.489a3.62,3.62,0,0,1,7.177,0Zm0,0" transform="translate(-148.603 -264)" fill="#e20d6e"/>
        </g>
        <g id="favorite" transform="translate(14.438 0)">
          <g id="Group_7129" data-name="Group 7129" transform="translate(0 0)">
            <circle id="Ellipse_955" data-name="Ellipse 955" cx="7" cy="7" r="7" transform="translate(-0.375 0.032)" fill="#e2136e"/>
            <path id="Path_15108" data-name="Path 15108" d="M10.127,5.822,8.28,7.622l.436,2.543a.3.3,0,0,1-.43.313L6,9.277l-2.284,1.2a.3.3,0,0,1-.43-.313l.436-2.543-1.847-1.8a.3.3,0,0,1,.165-.506l2.553-.371L5.736,2.632a.309.309,0,0,1,.532,0L7.409,4.945l2.553.371a.3.3,0,0,1,.165.506Z" transform="translate(0.838 0.553)" fill="#fff"/>
          </g>
        </g>
      </g>
    </g>
    <g id="Send_Money" data-name="Send Money" transform="translate(3259.216 -7594.049)">
      <path id="Path_5052" data-name="Path 5052" d="M36.653,16.1A13.253,13.253,0,1,0,49.907,29.353,13.2,13.2,0,0,0,36.653,16.1" transform="translate(0.778 0)" fill="#f6dcdc"/>
      <path id="Path_5053" data-name="Path 5053" d="M23.4,29.353a13.357,13.357,0,1,0,1.367-5.785" transform="translate(0.778 0)" fill="none" stroke="#e27a87" stroke-linecap="round" stroke-miterlimit="10" stroke-width="1.524"/>
      <path id="Path_5054" data-name="Path 5054" d="M40.056,28,38.9,29.053a2.66,2.66,0,0,1,1.367,2.1,3.612,3.612,0,0,1-3.576,3.576A2.111,2.111,0,0,1,34.9,32.524V29.368H36.8V27.9H34.9V25.161c0-2.1-1.367-3.261-2.209-3.261l-.736,1.157a1.985,1.985,0,0,1,1.367,2.1V27.9H30.8v1.473h2.524v3.05a3.706,3.706,0,0,0,3.366,3.787,5.135,5.135,0,0,0,5.049-5.154A3.057,3.057,0,0,0,40.056,28" transform="translate(1.162 0.301)" fill="#e27a87"/>
      <path id="Path_5055" data-name="Path 5055" d="M40.056,28,38.9,29.053a2.66,2.66,0,0,1,1.367,2.1,3.612,3.612,0,0,1-3.576,3.576A2.111,2.111,0,0,1,34.9,32.524V29.368H36.8V27.9H34.9V25.161c0-2.1-1.367-3.261-2.209-3.261l-.736,1.157a1.985,1.985,0,0,1,1.367,2.1V27.9H30.8v1.473h2.524v3.05a3.706,3.706,0,0,0,3.366,3.787,5.135,5.135,0,0,0,5.049-5.154A3.057,3.057,0,0,0,40.056,28Z" transform="translate(1.162 0.301)" fill="none" stroke="#e27a87" stroke-miterlimit="10" stroke-width="0.347"/>
      <line id="Line_32" data-name="Line 32" x1="21.142" transform="translate(8.4 26.829)" fill="none" stroke="#e27a87" stroke-linecap="round" stroke-linejoin="round" stroke-miterlimit="10" stroke-width="1.524"/>
      <line id="Line_33" data-name="Line 33" x1="10.203" transform="translate(10.714 19.676)" fill="none" stroke="#e27a87" stroke-linecap="round" stroke-linejoin="round" stroke-miterlimit="10" stroke-width="1.524"/>
      <line id="Line_34" data-name="Line 34" x1="10.203" transform="translate(8.4 39.346)" fill="none" stroke="#e27a87" stroke-linecap="round" stroke-linejoin="round" stroke-miterlimit="10" stroke-width="1.524"/>
      <line id="Line_35" data-name="Line 35" x1="8.099" transform="translate(16.605 33.666)" fill="none" stroke="#e27a87" stroke-linecap="round" stroke-linejoin="round" stroke-miterlimit="10" stroke-width="1.524"/>
    </g>
  </g>
</svg>
