<svg id="completed-task" xmlns="http://www.w3.org/2000/svg" width="32.464" height="32.464" viewBox="0 0 32.464 32.464">
  <path id="Path_16010" data-name="Path 16010" d="M2.029,16H24.348a2.029,2.029,0,0,1,2.029,2.029V45.42a2.029,2.029,0,0,1-2.029,2.029H2.029A2.029,2.029,0,0,1,0,45.42V18.029A2.029,2.029,0,0,1,2.029,16Zm0,0" transform="translate(0 -14.986)" fill="#e2136e"/>
  <path id="Path_16011" data-name="Path 16011" d="M32,75.391V48H54.319V75.391H32Zm-.269-3.123" transform="translate(-29.971 -44.957)" fill="#fff"/>
  <path id="Path_16013" data-name="Path 16013" d="M128,4.058V0h10.145V4.058a2.029,2.029,0,0,1-2.029,2.029h-6.087A2.029,2.029,0,0,1,128,4.058Zm0,0" transform="translate(-119.884)" fill="#f0b6c8"/>
  <path id="Path_16014" data-name="Path 16014" d="M242.261,233.13a9.13,9.13,0,1,1-9.13-9.13A9.131,9.131,0,0,1,242.261,233.13Zm0,0" transform="translate(-209.797 -209.797)" fill="#e2136e"/>
  <path id="Path_16015" data-name="Path 16015" d="M301.579,329.049l-1.966-1.967a1.014,1.014,0,0,1,1.435-1.435l.657.656,4.595-3.83a1.015,1.015,0,0,1,1.3,1.559Zm0,0" transform="translate(-280.337 -301.807)" fill="#fff"/>
  <g id="Group_7113" data-name="Group 7113" transform="translate(6.087 8.116)">
    <path id="Path_16016" data-name="Path 16016" d="M161.014,128h8.116a1.014,1.014,0,0,1,0,2.029h-8.116a1.014,1.014,0,0,1,0-2.029Zm0,0" transform="translate(-155.942 -128)" fill="#e2136e"/>
    <path id="Path_16017" data-name="Path 16017" d="M96,128h2.029v2.029H96Zm0,0" transform="translate(-96 -128)" fill="#e2136e"/>
    <path id="Path_16018" data-name="Path 16018" d="M96,192h2.029v2.029H96Zm0,0" transform="translate(-96 -187.942)" fill="#e2136e"/>
    <path id="Path_16019" data-name="Path 16019" d="M96,256h2.029v2.029H96Zm0,0" transform="translate(-96 -247.884)" fill="#e2136e"/>
    <path id="Path_16020" data-name="Path 16020" d="M96,320h2.029v2.029H96Zm0,0" transform="translate(-96 -307.826)" fill="#e2136e"/>
    <path id="Path_16021" data-name="Path 16021" d="M161.014,192H167.1a1.014,1.014,0,0,1,0,2.029h-6.087a1.014,1.014,0,0,1,0-2.029Zm0,0" transform="translate(-155.942 -187.942)" fill="#e2136e"/>
    <path id="Path_16022" data-name="Path 16022" d="M161.014,256h2.029a1.014,1.014,0,1,1,0,2.029h-2.029a1.014,1.014,0,1,1,0-2.029Zm0,0" transform="translate(-155.942 -247.884)" fill="#e2136e"/>
  </g>
</svg>
