<svg id="survey_none" xmlns="http://www.w3.org/2000/svg" width="437.37" height="777.688" viewBox="0 0 437.37 777.688">
  <path id="Path_16047" data-name="Path 16047" d="M720.542,790.676H488.454a64.4,64.4,0,0,1-64.4-64.4V125.3a64.475,64.475,0,0,1,64.4-64.4H720.541a64.475,64.475,0,0,1,64.4,64.4V233.846h4v79.976h-4V726.275a64.4,64.4,0,0,1-64.4,64.4ZM488.454,62.9a62.472,62.472,0,0,0-62.4,62.4V726.275a62.4,62.4,0,0,0,62.4,62.4H720.541a62.4,62.4,0,0,0,62.4-62.4V311.822h4V235.846h-4V125.3a62.472,62.472,0,0,0-62.4-62.4Z" transform="translate(-380.851 -60.899)" fill="#e2136e"/>
  <path id="Path_16048" data-name="Path 16048" d="M723.1,774.183H489.9a48.406,48.406,0,0,1-48.35-48.35V125.743a48.406,48.406,0,0,1,48.35-48.35h29.777l-.56,1.377a21.507,21.507,0,0,0,19.9,29.613H671.978a21.507,21.507,0,0,0,19.9-29.613l-.56-1.377H723.1a48.406,48.406,0,0,1,48.35,48.35v600.09a48.405,48.405,0,0,1-48.35,48.35ZM489.9,79.393a46.4,46.4,0,0,0-46.35,46.35v600.09a46.4,46.4,0,0,0,46.35,46.35H723.1a46.4,46.4,0,0,0,46.35-46.35V125.743h0a46.4,46.4,0,0,0-46.35-46.35H694.246a23.508,23.508,0,0,1-22.267,30.99H539.018a23.508,23.508,0,0,1-22.268-30.99Z" transform="translate(-380.851 -60.899)" fill="#ccc"/>
  <path id="Path_16049" data-name="Path 16049" d="M797.1,451.665H401.974a21.147,21.147,0,0,1-21.123-21.123V303.8a21.147,21.147,0,0,1,21.123-21.123H797.1A21.147,21.147,0,0,1,818.221,303.8V430.542A21.147,21.147,0,0,1,797.1,451.665Z" transform="translate(-380.851 -60.899)" fill="#fff"/>
  <path id="Path_16050" data-name="Path 16050" d="M797.1,451.665H401.974a21.147,21.147,0,0,1-21.123-21.123V303.8a21.147,21.147,0,0,1,21.123-21.123H797.1A21.147,21.147,0,0,1,818.221,303.8V430.542A21.147,21.147,0,0,1,797.1,451.665Zm-395.124-166.5A18.659,18.659,0,0,0,383.336,303.8V430.542a18.659,18.659,0,0,0,18.638,18.638H797.1a18.659,18.659,0,0,0,18.638-18.638V303.8A18.659,18.659,0,0,0,797.1,285.166Z" transform="translate(-380.851 -60.899)" fill="#e2136e"/>
  <path id="Path_16051" data-name="Path 16051" d="M651.351,360.339H513.43a9.94,9.94,0,0,1,0-19.88H651.351a9.94,9.94,0,0,1,0,19.88Z" transform="translate(-380.851 -60.899)" fill="#e2136e"/>
  <path id="Path_16052" data-name="Path 16052" d="M779.331,393.887H513.43a9.94,9.94,0,1,1,0-19.88h265.9a9.94,9.94,0,0,1,0,19.881Z" transform="translate(-380.851 -60.899)" fill="#e2136e"/>
  <circle id="Ellipse_1334" data-name="Ellipse 1334" cx="37.276" cy="37.276" r="37.276" transform="translate(28.95 268.998)" fill="#e2136e"/>
  <path id="Path_16053" data-name="Path 16053" d="M779.316,434.269H744.525a9.94,9.94,0,0,1,0-19.88h34.791a9.94,9.94,0,0,1,0,19.881Z" transform="translate(-380.851 -60.899)" fill="#fff"/>
  <path id="Path_16054" data-name="Path 16054" d="M779.316,434.269H744.525a9.94,9.94,0,0,1,0-19.88h34.791a9.94,9.94,0,0,1,0,19.881Z" transform="translate(-380.851 -60.899)" fill="#ccc"/>
  <path id="Path_16055" data-name="Path 16055" d="M719.467,250.188H499.605a11.767,11.767,0,0,1-11.754-11.754V167.912A11.767,11.767,0,0,1,499.6,156.158H719.467a11.767,11.767,0,0,1,11.754,11.754v70.522a11.767,11.767,0,0,1-11.754,11.754ZM499.605,157.541a10.383,10.383,0,0,0-10.371,10.371v70.522A10.383,10.383,0,0,0,499.6,248.8H719.467a10.383,10.383,0,0,0,10.371-10.371V167.912a10.383,10.383,0,0,0-10.371-10.371Z" transform="translate(-380.851 -60.899)" fill="#ccc"/>
  <path id="Path_16056" data-name="Path 16056" d="M638.368,199.37H561.623a5.531,5.531,0,0,1,0-11.062h76.745a5.531,5.531,0,1,1,0,11.062Z" transform="translate(-380.851 -60.899)" fill="#e6e6e6"/>
  <path id="Path_16057" data-name="Path 16057" d="M709.581,218.038H561.623a5.531,5.531,0,0,1,0-11.062H709.581a5.531,5.531,0,1,1,0,11.062Z" transform="translate(-380.851 -60.899)" fill="#e6e6e6"/>
  <circle id="Ellipse_1335" data-name="Ellipse 1335" cx="20.742" cy="20.742" r="20.742" transform="translate(123.109 121.532)" fill="#e6e6e6"/>
  <path id="Path_16058" data-name="Path 16058" d="M709.573,240.508H690.214a5.531,5.531,0,0,1,0-11.062h19.359a5.531,5.531,0,0,1,0,11.062Z" transform="translate(-380.851 -60.899)" fill="#fff"/>
  <path id="Path_16059" data-name="Path 16059" d="M709.573,240.508H690.214a5.531,5.531,0,0,1,0-11.062h19.359a5.531,5.531,0,0,1,0,11.062Z" transform="translate(-380.851 -60.899)" fill="#ccc"/>
  <path id="Path_16060" data-name="Path 16060" d="M719.467,576.188H499.605a11.767,11.767,0,0,1-11.754-11.754V493.912A11.767,11.767,0,0,1,499.6,482.158H719.467a11.767,11.767,0,0,1,11.754,11.754v70.522a11.767,11.767,0,0,1-11.754,11.754ZM499.605,483.541a10.383,10.383,0,0,0-10.371,10.371v70.522A10.383,10.383,0,0,0,499.6,574.8H719.467a10.383,10.383,0,0,0,10.371-10.371V493.912a10.383,10.383,0,0,0-10.371-10.371Z" transform="translate(-380.851 -60.899)" fill="#ccc"/>
  <path id="Path_16061" data-name="Path 16061" d="M638.368,525.37H561.623a5.531,5.531,0,0,1,0-11.062h76.745a5.531,5.531,0,0,1,0,11.062Z" transform="translate(-380.851 -60.899)" fill="#e6e6e6"/>
  <path id="Path_16062" data-name="Path 16062" d="M709.581,544.038H561.623a5.531,5.531,0,1,1,0-11.062H709.581a5.531,5.531,0,0,1,0,11.062Z" transform="translate(-380.851 -60.899)" fill="#e6e6e6"/>
  <circle id="Ellipse_1336" data-name="Ellipse 1336" cx="20.742" cy="20.742" r="20.742" transform="translate(123.109 447.532)" fill="#e6e6e6"/>
  <path id="Path_16063" data-name="Path 16063" d="M709.573,566.508H690.214a5.531,5.531,0,0,1,0-11.062h19.359a5.531,5.531,0,1,1,0,11.062Z" transform="translate(-380.851 -60.899)" fill="#fff"/>
  <path id="Path_16064" data-name="Path 16064" d="M709.573,566.508H690.214a5.531,5.531,0,0,1,0-11.062h19.359a5.531,5.531,0,1,1,0,11.062Z" transform="translate(-380.851 -60.899)" fill="#ccc"/>
  <path id="Path_16065" data-name="Path 16065" d="M719.467,707.188H499.605a11.767,11.767,0,0,1-11.754-11.754V624.912A11.767,11.767,0,0,1,499.6,613.158H719.467a11.767,11.767,0,0,1,11.754,11.754v70.522a11.767,11.767,0,0,1-11.754,11.754ZM499.605,614.541a10.383,10.383,0,0,0-10.371,10.371v70.522A10.383,10.383,0,0,0,499.6,705.8H719.467a10.383,10.383,0,0,0,10.371-10.371V624.912a10.383,10.383,0,0,0-10.371-10.371Z" transform="translate(-380.851 -60.899)" fill="#ccc"/>
  <path id="Path_16066" data-name="Path 16066" d="M638.368,656.37H561.623a5.531,5.531,0,0,1,0-11.062h76.745a5.531,5.531,0,0,1,0,11.062Z" transform="translate(-380.851 -60.899)" fill="#e6e6e6"/>
  <path id="Path_16067" data-name="Path 16067" d="M709.581,675.038H561.623a5.531,5.531,0,1,1,0-11.062H709.581a5.531,5.531,0,0,1,0,11.062Z" transform="translate(-380.851 -60.899)" fill="#e6e6e6"/>
  <circle id="Ellipse_1337" data-name="Ellipse 1337" cx="20.742" cy="20.742" r="20.742" transform="translate(123.109 578.532)" fill="#e6e6e6"/>
  <path id="Path_16068" data-name="Path 16068" d="M709.573,697.508H690.214a5.531,5.531,0,0,1,0-11.062h19.359a5.531,5.531,0,1,1,0,11.062Z" transform="translate(-380.851 -60.899)" fill="#fff"/>
  <path id="Path_16069" data-name="Path 16069" d="M709.573,697.508H690.214a5.531,5.531,0,0,1,0-11.062h19.359a5.531,5.531,0,1,1,0,11.062Z" transform="translate(-380.851 -60.899)" fill="#ccc"/>
  <path id="Path_16070" data-name="Path 16070" d="M201.657,765.8h12.26l5.832-47.288H201.655Z" fill="#ffb8b8"/>
  <path id="Path_16071" data-name="Path 16071" d="M579.381,822.7h24.145a15.386,15.386,0,0,1,15.386,15.387v.5H579.382Z" transform="translate(-380.851 -60.899)" fill="#2f2e41"/>
  <path id="Path_16072" data-name="Path 16072" d="M152.657,765.8h12.26l5.832-47.288H152.655Z" fill="#ffb8b8"/>
  <path id="Path_16073" data-name="Path 16073" d="M530.381,822.7h24.145a15.386,15.386,0,0,1,15.386,15.387v.5H530.382Z" transform="translate(-380.851 -60.899)" fill="#2f2e41"/>
  <circle id="Ellipse_1338" data-name="Ellipse 1338" cx="24.561" cy="24.561" r="24.561" transform="translate(179.543 389.3)" fill="#ffb8b8"/>
  <path id="Path_16074" data-name="Path 16074" d="M601.471,816.5h-22.75a4.5,4.5,0,0,1-4.5-4.555l1.322-108.031a1.5,1.5,0,0,0-2.989-.2L559.313,812.54a4.5,4.5,0,0,1-4.467,3.956H531.877a4.5,4.5,0,0,1-4.486-4.851L542.558,617.57l.412-.045,72.629-7.844L605.966,812.21a4.5,4.5,0,0,1-4.5,4.286Z" transform="translate(-380.851 -60.899)" fill="#2f2e41"/>
  <path id="Path_16075" data-name="Path 16075" d="M543.442,629.484a4.5,4.5,0,0,1-4.484-4.358c-.4-12.271-1.076-54.732,6.822-85.905a40.924,40.924,0,0,1,37.793-30.839h0c17.714-.967,40.559,26.023,40.559,26.023l-8.943,96.558s-55.4-2.451-71.47-1.488Q543.58,629.484,543.442,629.484Z" transform="translate(-380.851 -60.899)" fill="#e2136e"/>
  <path id="Path_16076" data-name="Path 16076" d="M637.314,449.936a10.522,10.522,0,0,0,1.246,1.093l-2.578,49.526-10.724,5.491,6.171,17.268,19.93-7.875a8,8,0,0,0,5.026-8.181l-5.221-56.18a10.5,10.5,0,1,0-13.849-1.143Z" transform="translate(-380.851 -60.899)" fill="#ffb8b8"/>
  <path id="Path_16077" data-name="Path 16077" d="M636.185,502.4l7.544,21.439a4.5,4.5,0,0,1-3.389,5.912l-22.245,4.308a12.5,12.5,0,0,1-8.228-23.6l19.974-10.543a4.5,4.5,0,0,1,6.344,2.486Z" transform="translate(-380.851 -60.899)" fill="#e2136e"/>
  <path id="Path_16078" data-name="Path 16078" d="M530.927,449.936a10.519,10.519,0,0,1-1.246,1.093l2.578,49.526,10.724,5.491-6.171,17.268-19.93-7.876a8,8,0,0,1-5.026-8.181l5.221-56.18a10.5,10.5,0,1,1,13.849-1.143Z" transform="translate(-380.851 -60.899)" fill="#ffb8b8"/>
  <path id="Path_16079" data-name="Path 16079" d="M534.659,499.7a4.5,4.5,0,0,1,3.741.21l19.974,10.543a12.5,12.5,0,1,1-8.228,23.6L527.9,529.75a4.5,4.5,0,0,1-3.389-5.912l7.544-21.439a4.5,4.5,0,0,1,2.6-2.7Z" transform="translate(-380.851 -60.899)" fill="#e2136e"/>
  <path id="Path_16080" data-name="Path 16080" d="M594.494,478.946a16.143,16.143,0,0,1,9.041-15.168c7.466-3.854,12.156-12.075,10.1-19.582-2.631-9.609-15.709-15.841-26.305-12.535a48.566,48.566,0,0,0-8.261,3.839l-6.923,3.711a71.723,71.723,0,0,0-8.534,5.038,28.316,28.316,0,0,0-11.27,26.53c1.363,9.769,7.761,18.727,16.518,24.861a27.936,27.936,0,0,0,11.319,5.031c4.2.692,8.87-.094,11.939-2.7,4.8-4.079,4.3-10.911,2.75-16.616a12.088,12.088,0,0,1-.373-2.4Z" transform="translate(-380.851 -60.899)" fill="#2f2e41"/>
</svg>
