<svg id="survey_thankyou" xmlns="http://www.w3.org/2000/svg" width="574.17" height="411.084" viewBox="0 0 574.17 411.084">
  <path id="Path_16023" data-name="Path 16023" d="M870.11,364.922H555.916a16.7,16.7,0,0,0-16.68,16.68v50.919a16.7,16.7,0,0,0,16.68,16.68H870.11a16.7,16.7,0,0,0,16.68-16.68V381.6A16.7,16.7,0,0,0,870.11,364.922Z" transform="translate(-312.915 -364.458)" fill="#f2f2f2"/>
  <path id="Path_16024" data-name="Path 16024" d="M438.915,655.542h-125a1,1,0,0,1,0-2h125a1,1,0,0,1,0,2Z" transform="translate(-312.915 -244.458)" fill="#3f3d56"/>
  <path id="Path_16025" data-name="Path 16025" d="M420.561,342.436a9.377,9.377,0,0,0-1.922,14.249l-9.087,19.406L420,384.49,432.446,356.9a9.428,9.428,0,0,0-11.885-14.469Z" transform="translate(-312.915 -244.458)" fill="#ffb8b8"/>
  <path id="Path_16026" data-name="Path 16026" d="M368.339,350.311h0a13.058,13.058,0,0,1,17.583,3.942l18.595,27.842,6.455-14.231a4,4,0,0,1,4.835-2.166l9.743,3.044a4,4,0,0,1,2.6,5.1l-6.67,19.694a17.019,17.019,0,0,1-25.758,8.568h0a17.02,17.02,0,0,1-2.787-2.4l-27.4-29.279a13.058,13.058,0,0,1,2.81-20.117Z" transform="translate(-312.915 -244.458)" fill="#2f2e41"/>
  <path id="Path_16027" data-name="Path 16027" d="M428.492,321.543a1.882,1.882,0,0,1,1.835,1.929l-.161,6.463.324.03-.116,4.389-.317-.039-.575,23.152a3.265,3.265,0,0,1-2.922,3.166l-14.722,1.55a2.471,2.471,0,0,1-2.724-2.624l2.233-32.967a3.057,3.057,0,0,1,2.581-2.815l14.212-2.208h0a1.882,1.882,0,0,1,.351-.024Z" transform="translate(-312.915 -244.458)" fill="#3f3d56"/>
  <path id="Path_16028" data-name="Path 16028" d="M417.1,324.974l7.471-1.161a.619.619,0,0,0,.52-.544h0a.7.7,0,0,1,.589-.616l1.574-.244a1.485,1.485,0,0,1,1.713,1.5l-.809,33.567a1.7,1.7,0,0,1-1.545,1.648L411.9,360.435a1.309,1.309,0,0,1-1.423-1.383l1.985-32.663a2.113,2.113,0,0,1,1.785-1.96l1.659-.258A1.058,1.058,0,0,0,417.1,324.974Z" transform="translate(-312.915 -244.458)" fill="#fff"/>
  <path id="Path_16029" data-name="Path 16029" d="M69.522,398.946H80.954l5.437-44.1-16.873,0Z" fill="#ffb8b8"/>
  <path id="Path_16030" data-name="Path 16030" d="M379.987,640.136h35.93v13.882H393.869a13.882,13.882,0,0,1-13.882-13.882h0Z" transform="translate(483.047 1049.661) rotate(179.995)" fill="#2f2e41"/>
  <path id="Path_16031" data-name="Path 16031" d="M34.386,398.946H45.818l5.437-44.1-16.873,0Z" fill="#ffb8b8"/>
  <path id="Path_16032" data-name="Path 16032" d="M344.851,640.136h35.93v13.882H358.733a13.882,13.882,0,0,1-13.882-13.882h0Z" transform="translate(412.776 1049.664) rotate(179.995)" fill="#2f2e41"/>
  <circle id="Ellipse_1333" data-name="Ellipse 1333" cx="24.561" cy="24.561" r="24.561" transform="translate(43.306 41.745)" fill="#ffb8b8"/>
  <path id="Path_16033" data-name="Path 16033" d="M393.422,376.476a37.859,37.859,0,0,0-18.28-31.212c-6.345-3.739-13.291-5.2-18.817.328a38.355,38.355,0,0,0-7.836,11.761,50.505,50.505,0,0,0-.934,37.49l13.151,36.334,30.439,3.3a4,4,0,0,0,4.428-4.136Z" transform="translate(-312.915 -244.458)" fill="#e2136e"/>
  <path id="Path_16034" data-name="Path 16034" d="M362.638,426.7s-22.741,8.49-16.8,44.439c5.335,32.258,1.1,139.33.169,160.973a4,4,0,0,0,3.664,4.154l13.275,1.106a4,4,0,0,0,4.309-3.553l6.856-62.974a1,1,0,0,1,1.991.024l5.109,60.6a4,4,0,0,0,4.112,3.662l11.15-.353a4,4,0,0,0,3.871-4.129L393.78,430.9Z" transform="translate(-312.915 -244.458)" fill="#2f2e41"/>
  <path id="Path_16035" data-name="Path 16035" d="M385.711,309.145c8.214,3.369,18.7-.566,22.676-8.507s.828-18.695-6.794-23.247-18.581-2.219-23.688,5.044c-4.154-7.485-15.038-9.393-22.51-5.216s-11.543,12.924-12.025,21.471,2.116,16.966,5.285,24.918c5.127,12.863,21.633,19.788,34.4,14.435C377.211,329.336,378.365,316.593,385.711,309.145Z" transform="translate(-312.915 -244.458)" fill="#2f2e41"/>
  <path id="Path_395" data-name="Path 395" d="M418.812,345.414a1.008,1.008,0,0,1-.606-.2l-.011-.008-2.284-1.747a1.015,1.015,0,1,1,1.235-1.611l1.479,1.134,3.5-4.56a1.014,1.014,0,0,1,1.422-.188h0l-.022.03.022-.03a1.016,1.016,0,0,1,.188,1.423l-4.111,5.361a1.015,1.015,0,0,1-.807.4Z" transform="translate(-312.915 -244.458)" fill="#e2136e"/>
  <path id="Path_16036" data-name="Path 16036" d="M870.405,244.458H556.211a16.7,16.7,0,0,0-16.68,16.68v50.919a16.7,16.7,0,0,0,16.68,16.68H870.405a16.7,16.7,0,0,0,16.68-16.68V261.138A16.7,16.7,0,0,0,870.405,244.458Zm14.924,67.6a14.946,14.946,0,0,1-14.924,14.924H556.211a14.946,14.946,0,0,1-14.924-14.925V261.138a14.946,14.946,0,0,1,14.925-14.924H870.405a14.946,14.946,0,0,1,14.925,14.925Z" transform="translate(-312.915 -244.458)" fill="#3f3d56"/>
  <path id="Path_16037" data-name="Path 16037" d="M620.15,315.63A29.032,29.032,0,1,1,649.182,286.6,29.032,29.032,0,0,1,620.15,315.63Z" transform="translate(-312.915 -244.458)" fill="#e2136e"/>
  <path id="Path_16038" data-name="Path 16038" d="M827.536,310.3h-150.9a7.023,7.023,0,1,1,0-14.047h150.9a7.023,7.023,0,1,1,0,14.047Z" transform="translate(-312.915 -244.458)" fill="#ccc"/>
  <path id="Path_16039" data-name="Path 16039" d="M726.576,280.452H676.634a7.023,7.023,0,1,1,0-14.047h49.943a7.023,7.023,0,1,1,0,14.047Z" transform="translate(-312.915 -244.458)" fill="#ccc"/>
  <path id="Path_395-2" data-name="Path 395" d="M618.668,296.809a3.321,3.321,0,0,1-2-.664l-.036-.027-7.525-5.756a3.344,3.344,0,0,1,4.069-5.308l4.874,3.738,11.517-15.026a3.343,3.343,0,0,1,4.686-.619h0l-.071.1.073-.1a3.347,3.347,0,0,1,.618,4.687L621.331,295.5a3.345,3.345,0,0,1-2.66,1.3Z" transform="translate(-312.915 -244.458)" fill="#fff"/>
  <path id="Path_16040" data-name="Path 16040" d="M735.405,381.458H421.212a16.7,16.7,0,0,0-16.68,16.68v50.919a16.7,16.7,0,0,0,16.68,16.68H735.405a16.7,16.7,0,0,0,16.68-16.68V398.138a16.7,16.7,0,0,0-16.68-16.68Z" transform="translate(-312.915 -244.458)" fill="#fff"/>
  <path id="Path_16041" data-name="Path 16041" d="M735.405,381.458H421.212a16.7,16.7,0,0,0-16.68,16.68v50.919a16.7,16.7,0,0,0,16.68,16.68H735.405a16.7,16.7,0,0,0,16.68-16.68V398.138a16.7,16.7,0,0,0-16.68-16.68Zm14.924,67.6a14.946,14.946,0,0,1-14.924,14.925H421.212a14.946,14.946,0,0,1-14.925-14.925V398.138a14.946,14.946,0,0,1,14.924-14.924H735.405a14.946,14.946,0,0,1,14.925,14.924Z" transform="translate(-312.915 -244.458)" fill="#3f3d56"/>
  <path id="Path_16042" data-name="Path 16042" d="M485.15,452.63A29.032,29.032,0,1,1,514.182,423.6,29.032,29.032,0,0,1,485.15,452.63Z" transform="translate(-312.915 -244.458)" fill="#e2136e"/>
  <path id="Path_16043" data-name="Path 16043" d="M692.536,447.3h-150.9a7.023,7.023,0,0,1,0-14.047h150.9a7.023,7.023,0,1,1,0,14.047Z" transform="translate(-312.915 -244.458)" fill="#ccc"/>
  <path id="Path_16044" data-name="Path 16044" d="M591.576,417.452H541.634a7.023,7.023,0,0,1,0-14.047h49.943a7.023,7.023,0,1,1,0,14.047Z" transform="translate(-312.915 -244.458)" fill="#ccc"/>
  <path id="Path_395-3" data-name="Path 395" d="M483.668,433.809a3.321,3.321,0,0,1-2-.664l-.036-.027-7.525-5.756a3.344,3.344,0,0,1,4.069-5.308l4.874,3.738,11.517-15.026a3.343,3.343,0,0,1,4.686-.619h0l-.071.1.073-.1a3.347,3.347,0,0,1,.618,4.687L486.331,432.5a3.345,3.345,0,0,1-2.66,1.3Z" transform="translate(-312.915 -244.458)" fill="#fff"/>
  <path id="Path_16045" data-name="Path 16045" d="M411.023,392.944a9.377,9.377,0,0,0-12.8,6.557l-21.12,3.618-.932,13.371,29.754-5.528a9.428,9.428,0,0,0,5.094-18.018Z" transform="translate(-312.915 -244.458)" fill="#ffb8b8"/>
  <path id="Path_16046" data-name="Path 16046" d="M374.743,354.565h0a13.058,13.058,0,0,1,6.8,16.686L369.3,402.413l15.37-2.825a4,4,0,0,1,4.539,2.733l3.064,9.737a4,4,0,0,1-2.706,5.044l-19.977,5.768a17.019,17.019,0,0,1-21.74-16.256h0a17.018,17.018,0,0,1,.377-3.657l8.394-39.214a13.058,13.058,0,0,1,18.12-9.178Z" transform="translate(-312.915 -244.458)" fill="#2f2e41"/>
</svg>
