<svg xmlns="http://www.w3.org/2000/svg" width="82.535" height="35.752" viewBox="0 0 82.535 35.752">
  <g id="Group_7111" data-name="Group 7111" transform="translate(-3278.218 7738.968)">
    <g id="Ticket_Icon" data-name="Ticket Icon" transform="translate(3278.218 -7738.968)">
      <g id="Group_4859" data-name="Group 4859" transform="translate(0 0)">
        <path id="Path_5859" data-name="Path 5859" d="M60.443,79.427a1.459,1.459,0,0,1-.226-.024,1.336,1.336,0,0,1-.929-.56L57.359,76.2c-.191-.345.107-.762.226-.893l.024-.024.012-.024a3.743,3.743,0,0,0,.869-1.846,3.594,3.594,0,0,0-.655-2.727,3.727,3.727,0,0,0-2.393-1.465,3.214,3.214,0,0,0-.583-.048,3.818,3.818,0,0,0-1.453.3l-.024.012h0a1.4,1.4,0,0,1-.536.119.436.436,0,0,1-.393-.155l-1.941-2.667a1.38,1.38,0,0,1-.25-1.048v-.012a1.337,1.337,0,0,1,.56-.917L72.017,49.374a1.355,1.355,0,0,1,.81-.274,1.465,1.465,0,0,1,.238.024h.012A1.413,1.413,0,0,1,74,49.7l1.941,2.655c.214.381-.25.881-.25.893l-.012.024a3.63,3.63,0,0,0-.869,1.857,3.694,3.694,0,0,0,.655,2.715A3.6,3.6,0,0,0,77.875,59.3a4.623,4.623,0,0,0,.572.048,3.728,3.728,0,0,0,1.453-.3l.024-.012a.12.12,0,0,1,.036-.012,1.5,1.5,0,0,1,.5-.107.536.536,0,0,1,.429.167l1.929,2.643a1.369,1.369,0,0,1,.25,1.048v.012a1.431,1.431,0,0,1-.572.929L61.264,79.153a1.363,1.363,0,0,1-.822.274Z" transform="translate(-49.555 -48.427)" fill="#dfdec3"/>
        <g id="Group_4858" data-name="Group 4858" transform="translate(8.924 6.972)">
          <g id="Group_4853" data-name="Group 4853" transform="translate(0 6.799)">
            <g id="Group_4850" data-name="Group 4850">
              <line id="Line_83" data-name="Line 83" x2="1.453" y2="1.988" transform="translate(0.428 0.428)" fill="none"/>
              <path id="Path_5860" data-name="Path 5860" d="M121.283,161.948a.418.418,0,0,1-.345-.179l-1.453-1.988a.426.426,0,0,1,.691-.5l1.453,1.988a.423.423,0,0,1-.1.6A.4.4,0,0,1,121.283,161.948Z" transform="translate(-119.402 -159.102)" fill="#aaaf61"/>
            </g>
            <g id="Group_4851" data-name="Group 4851" transform="translate(2.858 3.906)">
              <line id="Line_84" data-name="Line 84" x2="1.453" y2="1.988" transform="translate(0.416 0.428)" fill="none"/>
              <path id="Path_5861" data-name="Path 5861" d="M145.271,194.748a.418.418,0,0,1-.345-.179l-1.441-1.988a.426.426,0,0,1,.691-.5l1.441,1.988a.423.423,0,0,1-.1.6A.52.52,0,0,1,145.271,194.748Z" transform="translate(-143.402 -191.902)" fill="#aaaf61"/>
            </g>
            <g id="Group_4852" data-name="Group 4852" transform="translate(5.703 7.796)">
              <line id="Line_85" data-name="Line 85" x2="1.453" y2="1.988" transform="translate(0.416 0.444)" fill="none"/>
              <path id="Path_5862" data-name="Path 5862" d="M169.171,227.422a.418.418,0,0,1-.345-.179l-1.441-1.988a.423.423,0,0,1,.1-.6.413.413,0,0,1,.6.1l1.441,1.988a.434.434,0,0,1-.1.6A.42.42,0,0,1,169.171,227.422Z" transform="translate(-167.302 -224.573)" fill="#aaaf61"/>
            </g>
          </g>
          <g id="Group_4857" data-name="Group 4857" transform="translate(8.871)">
            <g id="Group_4854" data-name="Group 4854">
              <line id="Line_86" data-name="Line 86" x2="1.441" y2="1.988" transform="translate(0.44 0.428)" fill="none"/>
              <path id="Path_5863" data-name="Path 5863" d="M195.783,104.848a.418.418,0,0,1-.345-.179l-1.453-1.988a.426.426,0,0,1,.691-.5l1.453,1.988a.423.423,0,0,1-.1.6A.374.374,0,0,1,195.783,104.848Z" transform="translate(-193.902 -102.002)" fill="#aaaf61"/>
            </g>
            <g id="Group_4855" data-name="Group 4855" transform="translate(2.858 3.906)">
              <line id="Line_87" data-name="Line 87" x2="1.441" y2="1.988" transform="translate(0.428 0.428)" fill="none"/>
              <path id="Path_5864" data-name="Path 5864" d="M219.771,137.648a.418.418,0,0,1-.345-.179l-1.441-1.988a.426.426,0,0,1,.691-.5l1.453,1.988a.423.423,0,0,1-.1.6A.429.429,0,0,1,219.771,137.648Z" transform="translate(-217.902 -134.802)" fill="#aaaf61"/>
            </g>
            <g id="Group_4856" data-name="Group 4856" transform="translate(5.692 7.811)">
              <line id="Line_88" data-name="Line 88" x2="1.441" y2="1.988" transform="translate(0.44 0.428)" fill="none"/>
              <path id="Path_5865" data-name="Path 5865" d="M243.583,170.448a.418.418,0,0,1-.345-.179l-1.453-1.988a.426.426,0,1,1,.691-.5l1.453,1.988a.423.423,0,0,1-.1.6A.4.4,0,0,1,243.583,170.448Z" transform="translate(-241.702 -167.602)" fill="#aaaf61"/>
            </g>
          </g>
        </g>
        <path id="Path_5866" data-name="Path 5866" d="M76.289,53.68a1.515,1.515,0,0,0-1.715-.262c-.012.012-.036.012-.048.024h-.012a3.024,3.024,0,0,1-1.655.214,2.925,2.925,0,0,1-1.953-1.191,3.036,3.036,0,0,1-.536-2.227,2.917,2.917,0,0,1,.7-1.512s.845-.893.321-1.727L69.43,44.309a2.06,2.06,0,0,0-1.369-.833,2.021,2.021,0,0,0-1.56.369L57.94,50.084l-1.584,1.155L45.318,59.276a2.11,2.11,0,0,0-.464,2.929L46.807,64.9c.643.75,1.75.214,1.75.214a2.913,2.913,0,0,1,1.655-.2A3.027,3.027,0,0,1,52.165,66.1a2.986,2.986,0,0,1-.179,3.739h0l-.012.012-.036.036a1.482,1.482,0,0,0-.274,1.7l1.941,2.667a2.06,2.06,0,0,0,1.369.833,2.137,2.137,0,0,0,1.56-.369l11.05-8.049,1.584-1.155,8.573-6.239a2.087,2.087,0,0,0,.833-1.369,2.021,2.021,0,0,0-.369-1.56Zm.917,3.429a.793.793,0,0,1,.143.607.818.818,0,0,1-.321.536l-8.573,6.239h0l-.881.643-.7.512h0L55.82,73.7a.793.793,0,0,1-.607.143.818.818,0,0,1-.536-.322l-1.607-2.2a.626.626,0,0,1,.024-.762,4.34,4.34,0,0,0,.893-2.012,4.272,4.272,0,0,0-5.739-4.656.613.613,0,0,1-.738-.214l-1.607-2.2a.782.782,0,0,1-.143-.607.818.818,0,0,1,.321-.536l11.05-8.049,1.584-1.155,8.573-6.239a.83.83,0,0,1,1.143.179l1.607,2.2a.643.643,0,0,1-.024.774,4.274,4.274,0,0,0-.131,5.191,4.3,4.3,0,0,0,2.786,1.7,4.152,4.152,0,0,0,2.191-.238.633.633,0,0,1,.738.214Z" transform="translate(-44.456 -43.445)" fill="#aaaf61"/>
      </g>
      <g id="Group_4869" data-name="Group 4869" transform="translate(1.958 17.188)">
        <path id="Path_5867" data-name="Path 5867" d="M67.769,210.794a1.342,1.342,0,0,1-.964-.4,1.288,1.288,0,0,1-.4-.953v-3.179c.048-.369.512-.524.667-.56a.271.271,0,0,0,.048-.012l-.012-1.322.036,1.322a3.549,3.549,0,0,0,1.75-.964,3.479,3.479,0,0,0,1.048-2.536,3.6,3.6,0,0,0-1.048-2.524,3.45,3.45,0,0,0-1.75-.964h-.024s-.643-.131-.691-.536v-3.2a1.331,1.331,0,0,1,.393-.953l.012-.012a1.277,1.277,0,0,1,.941-.393H93.262a1.325,1.325,0,0,1,.941.393l.012.012a1.292,1.292,0,0,1,.393.964v3.2c-.048.4-.691.536-.691.536h-.024a3.539,3.539,0,0,0-1.75.964A3.619,3.619,0,0,0,91.1,202.2a3.537,3.537,0,0,0,1.06,2.548,3.745,3.745,0,0,0,1.75.964l.036-1.322-.024,1.322a.271.271,0,0,0,.048.012c.155.036.619.191.667.56v3.179a1.3,1.3,0,0,1-.393.953,1.362,1.362,0,0,1-.964.4h-25.5Z" transform="translate(-65.745 -192.909)" fill="#dfdec3"/>
        <g id="Group_4868" data-name="Group 4868" transform="translate(9.204 2.893)">
          <g id="Group_4863" data-name="Group 4863" transform="translate(0 0.262)">
            <g id="Group_4860" data-name="Group 4860">
              <line id="Line_89" data-name="Line 89" y2="2.393" transform="translate(0.417 0.417)" fill="none"/>
              <path id="Path_5868" data-name="Path 5868" d="M138.367,217.44a.4.4,0,0,1-.167-.333v-2.393a.422.422,0,0,1,.417-.417.407.407,0,0,1,.417.417v2.393a.422.422,0,0,1-.417.417A.449.449,0,0,1,138.367,217.44Z" transform="translate(-138.2 -214.296)" fill="#aaaf61"/>
            </g>
            <g id="Group_4861" data-name="Group 4861" transform="translate(0.012 4.703)">
              <line id="Line_90" data-name="Line 90" y2="2.393" transform="translate(0.405 0.405)" fill="none"/>
              <path id="Path_5869" data-name="Path 5869" d="M138.467,256.928a.4.4,0,0,1-.167-.333v-2.381a.422.422,0,0,1,.417-.417.407.407,0,0,1,.417.417v2.381a.422.422,0,0,1-.417.417A.478.478,0,0,1,138.467,256.928Z" transform="translate(-138.3 -253.796)" fill="#aaaf61"/>
            </g>
            <g id="Group_4862" data-name="Group 4862" transform="translate(0.012 9.395)">
              <line id="Line_91" data-name="Line 91" y2="2.393" transform="translate(0.405 0.417)" fill="none"/>
              <path id="Path_5870" data-name="Path 5870" d="M138.467,296.332A.4.4,0,0,1,138.3,296v-2.381a.422.422,0,0,1,.417-.417.414.414,0,0,1,.417.417V296a.43.43,0,0,1-.417.417A.42.42,0,0,1,138.467,296.332Z" transform="translate(-138.3 -293.2)" fill="#aaaf61"/>
            </g>
          </g>
          <g id="Group_4867" data-name="Group 4867" transform="translate(10.871)">
            <g id="Group_4864" data-name="Group 4864">
              <line id="Line_92" data-name="Line 92" x1="0.012" y2="2.381" transform="translate(0.405 0.417)" fill="none"/>
              <path id="Path_5871" data-name="Path 5871" d="M229.667,215.24a.4.4,0,0,1-.167-.333v-2.393a.422.422,0,0,1,.417-.417.407.407,0,0,1,.417.417v2.393a.417.417,0,0,1-.667.333Z" transform="translate(-229.5 -212.096)" fill="#aaaf61"/>
            </g>
            <g id="Group_4865" data-name="Group 4865" transform="translate(0 4.704)">
              <line id="Line_93" data-name="Line 93" x1="0.012" y2="2.393" transform="translate(0.405 0.405)" fill="none"/>
              <path id="Path_5872" data-name="Path 5872" d="M229.667,254.732a.4.4,0,0,1-.167-.333v-2.381a.417.417,0,0,1,.834,0v2.393a.422.422,0,0,1-.417.417A.46.46,0,0,1,229.667,254.732Z" transform="translate(-229.5 -251.6)" fill="#aaaf61"/>
            </g>
            <g id="Group_4866" data-name="Group 4866" transform="translate(0 9.383)">
              <line id="Line_94" data-name="Line 94" x1="0.012" y2="2.381" transform="translate(0.405 0.429)" fill="none"/>
              <path id="Path_5873" data-name="Path 5873" d="M229.667,294.043a.4.4,0,0,1-.167-.333v-2.393a.417.417,0,0,1,.834,0v2.393a.417.417,0,0,1-.667.333Z" transform="translate(-229.5 -290.9)" fill="#aaaf61"/>
            </g>
          </g>
        </g>
        <path id="Path_5874" data-name="Path 5874" d="M90.453,201.124c-.071-.845-.953-1.119-1.191-1.179-.012,0-.036-.012-.048-.012H89.2a2.892,2.892,0,0,1-1.417-.786,2.855,2.855,0,0,1-.857-2.048,2.941,2.941,0,0,1,.857-2.06,2.892,2.892,0,0,1,1.417-.786s1.179-.214,1.25-1.167v-3.239a2.053,2.053,0,0,0-2.036-2.048H62.936a2.053,2.053,0,0,0-2.036,2.048v3.239c.071.953,1.25,1.167,1.25,1.167a2.892,2.892,0,0,1,1.417.786,2.941,2.941,0,0,1,.857,2.06,2.835,2.835,0,0,1-.857,2.048,2.892,2.892,0,0,1-1.417.786h-.012c-.012,0-.036.012-.048.012-.238.06-1.131.333-1.191,1.179v3.2a1.962,1.962,0,0,0,.607,1.441,2.026,2.026,0,0,0,1.441.6H88.417a2.026,2.026,0,0,0,1.441-.6,1.989,1.989,0,0,0,.607-1.441Zm-1.238,3.215a.755.755,0,0,1-.238.56.826.826,0,0,1-.56.238H62.936a.775.775,0,0,1-.56-.238.755.755,0,0,1-.238-.56v-2.655a.625.625,0,0,1,.452-.6,4.064,4.064,0,0,0,1.857-1.072,4.207,4.207,0,0,0,1.214-2.929,4.107,4.107,0,0,0-1.214-2.929,4.042,4.042,0,0,0-1.846-1.072.612.612,0,0,1-.464-.6v-2.655a.731.731,0,0,1,.238-.56.756.756,0,0,1,.56-.238H88.417a.756.756,0,0,1,.56.238.775.775,0,0,1,.238.56v2.655a.622.622,0,0,1-.464.6,4.042,4.042,0,0,0-1.846,1.072,4.127,4.127,0,0,0-1.215,2.929,4.186,4.186,0,0,0,1.215,2.929,4.126,4.126,0,0,0,1.857,1.072.6.6,0,0,1,.452.6Z" transform="translate(-60.9 -187.8)" fill="#aaaf61"/>
      </g>
    </g>
    <g id="_01_travel_with_fill" data-name="01_travel_with fill" transform="translate(3280.108 -7779.732)">
      <circle id="Ellipse_808" data-name="Ellipse 808" cx="12.012" cy="12.012" r="12.012" transform="translate(49.554 46.711)" fill="#ffebb9"/>
      <g id="Group_5809" data-name="Group 5809" transform="translate(44.892 40.989)">
        <g id="Group_5780" data-name="Group 5780" transform="translate(4.836 28.679)">
          <path id="Path_11762" data-name="Path 11762" d="M62.88,136.932l-.03-.03c-.363-.3-.726-.635-1.059-.968a.53.53,0,0,0-.756,0,.566.566,0,0,0,0,.787,12.622,12.622,0,0,0,1.15,1.029.567.567,0,0,0,.787-.03A.642.642,0,0,0,62.88,136.932Z" transform="translate(-60.875 -135.775)" fill="#fdb617"/>
        </g>
        <g id="Group_5782" data-name="Group 5782" transform="translate(0.121 13.623)">
          <g id="Group_5781" data-name="Group 5781">
            <path id="Path_11763" data-name="Path 11763" d="M46.262,86.039a.565.565,0,0,0-.7.333c0,.03-.03.091-.03.121a13.1,13.1,0,0,0-.242,1.513.546.546,0,0,0,.454.605h.061a.554.554,0,0,0,.545-.484c.061-.484.151-.938.242-1.422A.487.487,0,0,0,46.262,86.039Z" transform="translate(-45.29 -86.013)" fill="#fdb617"/>
          </g>
        </g>
        <g id="Group_5784" data-name="Group 5784" transform="translate(2.312 25.489)">
          <g id="Group_5783" data-name="Group 5783">
            <path id="Path_11764" data-name="Path 11764" d="M54.338,126.705c-.272-.393-.545-.787-.787-1.21a.541.541,0,0,0-.756-.182h0a.541.541,0,0,0-.182.756h0c.272.424.545.877.847,1.271a.535.535,0,0,0,.756.091A.565.565,0,0,0,54.338,126.705Z" transform="translate(-52.532 -125.232)" fill="#fdb617"/>
          </g>
        </g>
        <g id="Group_5786" data-name="Group 5786" transform="translate(0.675 21.762)">
          <g id="Group_5785" data-name="Group 5785">
            <path id="Path_11765" data-name="Path 11765" d="M48.658,114.664c-.182-.454-.333-.908-.484-1.362a.524.524,0,0,0-.666-.363h0a.548.548,0,0,0-.363.666,13.881,13.881,0,0,0,.514,1.452.558.558,0,0,0,.726.3A.565.565,0,0,0,48.658,114.664Z" transform="translate(-47.122 -112.914)" fill="#fdb617"/>
          </g>
        </g>
        <g id="Group_5788" data-name="Group 5788" transform="translate(1.11 9.845)">
          <g id="Group_5787" data-name="Group 5787">
            <path id="Path_11766" data-name="Path 11766" d="M49.964,73.579a.543.543,0,0,0-.726.242,14.183,14.183,0,0,0-.635,1.392.537.537,0,0,0,1,.393h0c.182-.454.363-.877.575-1.3A.489.489,0,0,0,49.964,73.579Z" transform="translate(-48.561 -73.526)" fill="#fdb617"/>
          </g>
        </g>
        <g id="Group_5790" data-name="Group 5790" transform="translate(0 17.761)">
          <g id="Group_5789" data-name="Group 5789">
            <path id="Path_11767" data-name="Path 11767" d="M46.1,101.631h0c-.061-.484-.091-.968-.121-1.422a.525.525,0,0,0-.575-.514.542.542,0,0,0-.514.575,13.247,13.247,0,0,0,.121,1.543.578.578,0,0,0,.514.484h.091A.647.647,0,0,0,46.1,101.631Z" transform="translate(-44.892 -99.692)" fill="#fdb617"/>
          </g>
        </g>
        <g id="Group_5791" data-name="Group 5791" transform="translate(13.131 0.969)">
          <path id="Path_11768" data-name="Path 11768" d="M90.9,44.677a.546.546,0,0,0-.605-.484c-.514.061-1.029.121-1.513.212a.548.548,0,1,0,.121,1.089h.091c.484-.091.938-.151,1.422-.212A.569.569,0,0,0,90.9,44.677Z" transform="translate(-88.29 -44.191)" fill="#fdb617"/>
        </g>
        <g id="Group_5793" data-name="Group 5793" transform="translate(3.044 6.427)">
          <g id="Group_5792" data-name="Group 5792">
            <path id="Path_11769" data-name="Path 11769" d="M56.812,62.374a.541.541,0,0,0-.787.061c-.333.393-.666.787-.968,1.21a.537.537,0,0,0,.121.756.61.61,0,0,0,.333.091h0a.644.644,0,0,0,.454-.212,10.493,10.493,0,0,1,.908-1.119A.6.6,0,0,0,56.812,62.374Z" transform="translate(-54.951 -62.232)" fill="#fdb617"/>
          </g>
        </g>
        <g id="Group_5794" data-name="Group 5794" transform="translate(17.246 0.908)">
          <path id="Path_11770" data-name="Path 11770" d="M103.982,44.145a13.479,13.479,0,0,0-1.513-.151.545.545,0,0,0-.061,1.089c.484.03.968.091,1.422.151h.091a.525.525,0,0,0,.575-.514A.544.544,0,0,0,103.982,44.145Z" transform="translate(-101.892 -43.992)" fill="#fdb617"/>
        </g>
        <g id="Group_5795" data-name="Group 5795" transform="translate(5.882 3.74)">
          <path id="Path_11771" data-name="Path 11771" d="M66.47,53.578a.5.5,0,0,0-.726-.121c-.424.3-.817.605-1.21.938a.537.537,0,0,0,.7.817c.363-.3.756-.605,1.15-.877A.557.557,0,0,0,66.47,53.578Z" transform="translate(-64.332 -53.351)" fill="#fdb617"/>
        </g>
        <g id="Group_5797" data-name="Group 5797" transform="translate(9.305 1.836)">
          <g id="Group_5796" data-name="Group 5796">
            <path id="Path_11772" data-name="Path 11772" d="M77.4,52.7Z" transform="translate(-76.869 -50.992)" fill="#fdb617"/>
            <path id="Path_11773" data-name="Path 11773" d="M78.112,47.463a.568.568,0,0,0-.666-.393.106.106,0,0,0-.061.03,11.8,11.8,0,0,0-1.422.605.555.555,0,0,0-.272.726.539.539,0,0,0,.484.3.712.712,0,0,0,.242-.061,10.237,10.237,0,0,1,1.331-.545A.522.522,0,0,0,78.112,47.463Z" transform="translate(-75.645 -47.057)" fill="#fdb617"/>
          </g>
        </g>
        <g id="Group_5798" data-name="Group 5798" transform="translate(15.797 33.374)">
          <path id="Path_11774" data-name="Path 11774" d="M99.672,151.808a.542.542,0,0,0-.575-.514,11.275,11.275,0,0,1-1.422.03.56.56,0,1,0-.03,1.12H98.1c.363,0,.726,0,1.059-.03A.589.589,0,0,0,99.672,151.808Z" transform="translate(-97.1 -151.292)" fill="#fdb617"/>
        </g>
        <g id="Group_5799" data-name="Group 5799" transform="translate(31.564 21.2)">
          <path id="Path_11775" data-name="Path 11775" d="M150.328,111.07a.539.539,0,0,0-.666.393c-.121.454-.272.908-.424,1.362a.578.578,0,0,0,.333.7.565.565,0,0,0,.7-.333h0a13.371,13.371,0,0,0,.454-1.452A.518.518,0,0,0,150.328,111.07Z" transform="translate(-149.213 -111.057)" fill="#fdb617"/>
        </g>
        <g id="Group_5800" data-name="Group 5800" transform="translate(32.001 13.048)">
          <path id="Path_11776" data-name="Path 11776" d="M152.031,86.016c-.091-.514-.182-1-.3-1.513a.547.547,0,0,0-1.059.272c.121.454.212.938.3,1.392a.551.551,0,0,0,.545.454h.091A.5.5,0,0,0,152.031,86.016Z" transform="translate(-150.656 -84.114)" fill="#fdb617"/>
        </g>
        <g id="Group_5801" data-name="Group 5801" transform="translate(3.938 0)">
          <path id="Path_11777" data-name="Path 11777" d="M89.673,49.676a.662.662,0,0,0-.091-.151l-.968-1a.476.476,0,0,0-.514-.121l-1.755.514-2.027-2.178L88.887,44.2a.53.53,0,0,0,.272-.7.661.661,0,0,0-.091-.151l-1.3-1.3a.541.541,0,0,0-.514-.121l-5.809,1.755L79.477,41.6a1.775,1.775,0,0,0-2-.484h-.03a2.15,2.15,0,0,0-1.18,1.18,2.228,2.228,0,0,0-.121.424l-.212-.091a.555.555,0,1,0-.333,1.059c.272.091.575.182.847.3a3.206,3.206,0,0,0,.3.363l2.057,1.967-.605,1.936a12.779,12.779,0,1,0,2.723,2.6l.938-1.694,2.178,2.027-.514,1.725a.6.6,0,0,0,.121.545l1.089,1.089a.538.538,0,0,0,.726-.182h0l1.422-2.6,2.572-1.392A.554.554,0,0,0,89.673,49.676Zm-27.2.726a11.673,11.673,0,0,1,8.29-3.419,5.83,5.83,0,0,1,.726.03c2.057,1.906,1.452,3.631.061,5.2a24.958,24.958,0,0,1-2.632,2.421,12.129,12.129,0,0,0-3.086,3.268c-.575,1.271-.151,2.421,2.118,3.419a6.98,6.98,0,0,1,2,1.18h-.03a4.706,4.706,0,0,1-1.725.3c-2.753.121-4.72-1.634-6.233-3-1.089-.968-2-1.785-2.935-1.785A11.727,11.727,0,0,1,62.473,50.4Zm20.03,8.29h0a11.747,11.747,0,0,1-8.079,11.165,3.945,3.945,0,0,1,.454-2.481,9.263,9.263,0,0,1,2.178-2.421c3.358-2.814,3.54-4.387,3.691-5.567.091-.756.151-1.331,1.664-2.148A11.7,11.7,0,0,1,82.5,58.693Zm-.666-3.933a11.983,11.983,0,0,1,.393,1.392c-2.3,1.18-2.39,2-2.542,3.116-.121,1.029-.272,2.36-3.328,4.9a10.031,10.031,0,0,0-2.451,2.723,4.919,4.919,0,0,0-.545,3.268A11.747,11.747,0,0,1,59.3,61.325a13.384,13.384,0,0,1-.3-2.209c.575,0,1.331.7,2.239,1.513,1.664,1.483,3.812,3.389,6.989,3.268a5.379,5.379,0,0,0,2.178-.424,1.069,1.069,0,0,0,.605-.7.987.987,0,0,0-.272-.938,6.588,6.588,0,0,0-2.39-1.483c-1.543-.7-1.876-1.331-1.573-2.027a11.422,11.422,0,0,1,2.784-2.9,27.069,27.069,0,0,0,2.723-2.542c1.513-1.725,2.3-3.631.756-5.688a12.083,12.083,0,0,1,4.75,2.148L76.935,52.1a.6.6,0,0,0,.121.545S78.418,54,78.448,54a.538.538,0,0,0,.726-.182h0l1.059-1.906A8.841,8.841,0,0,1,81.837,54.759Zm4.871-4.085-.484.242a.921.921,0,0,0-.242.242l-.242.484-.908,1.634-.272-.3.514-1.755a.533.533,0,0,0-.182-.575l-2.874-2.723a.53.53,0,0,0-.756,0v.03c-.03.03-2.632,4.69-2.632,4.69l-.575-.575,1.755-5.809a.533.533,0,0,0-.182-.575l-2.3-2.148a.8.8,0,0,1-.212-.877,1.181,1.181,0,0,1,.605-.605h.03a.749.749,0,0,1,.847.212l2.178,2.3a.525.525,0,0,0,.545.151l5.84-1.755.575.575-4.539,2.6a.541.541,0,0,0-.212.726h0c.03.03,2.814,3,2.814,3a.525.525,0,0,0,.545.151l1.755-.514.272.272Z" transform="translate(-57.905 -40.989)" fill="#fdb617"/>
        </g>
        <g id="Group_5802" data-name="Group 5802" transform="translate(29.73 24.983)">
          <path id="Path_11778" data-name="Path 11778" d="M144.77,123.632h0a.549.549,0,0,0-.756.212c-.242.424-.484.817-.756,1.21a.542.542,0,0,0,.877.635c.272-.424.545-.877.817-1.3A.568.568,0,0,0,144.77,123.632Z" transform="translate(-143.151 -123.559)" fill="#fdb617"/>
        </g>
        <g id="Group_5803" data-name="Group 5803" transform="translate(32.465 17.068)">
          <path id="Path_11779" data-name="Path 11779" d="M152.8,97.4a.542.542,0,0,0-.545.545v.091c0,.484-.03.968-.06,1.422a.546.546,0,0,0,.484.605h.061a.536.536,0,0,0,.545-.514,13.161,13.161,0,0,0,.061-1.543v-.061A.542.542,0,0,0,152.8,97.4Z" transform="translate(-152.19 -97.4)" fill="#fdb617"/>
        </g>
        <g id="Group_5804" data-name="Group 5804" transform="translate(11.746 32.775)">
          <path id="Path_11780" data-name="Path 11780" d="M85.827,149.672a10.379,10.379,0,0,1-1.392-.333.545.545,0,0,0-.363,1.029c.03,0,.03,0,.06.03a13.231,13.231,0,0,0,1.483.363h.091a.548.548,0,0,0,.121-1.089Z" transform="translate(-83.713 -149.313)" fill="#fdb617"/>
        </g>
        <g id="Group_5805" data-name="Group 5805" transform="translate(19.839 32.594)">
          <path id="Path_11781" data-name="Path 11781" d="M112.954,149.072a.531.531,0,0,0-.666-.333h0a10.433,10.433,0,0,1-1.392.363.558.558,0,0,0,.242,1.089c.484-.121,1-.242,1.483-.393A.572.572,0,0,0,112.954,149.072Z" transform="translate(-110.462 -148.713)" fill="#fdb617"/>
        </g>
        <g id="Group_5806" data-name="Group 5806" transform="translate(8.007 31.154)">
          <path id="Path_11782" data-name="Path 11782" d="M73.457,144.725c-.424-.212-.847-.454-1.271-.7a.55.55,0,1,0-.575.938,14.864,14.864,0,0,0,1.362.726.555.555,0,0,0,.726-.272A.494.494,0,0,0,73.457,144.725Z" transform="translate(-71.356 -143.956)" fill="#fdb617"/>
        </g>
        <g id="Group_5807" data-name="Group 5807" transform="translate(27.059 28.27)">
          <path id="Path_11783" data-name="Path 11783" d="M136.282,134.567a.531.531,0,0,0-.756.03h0a10.631,10.631,0,0,1-1.029,1,.557.557,0,0,0,.756.817c.363-.333.756-.7,1.089-1.059A.6.6,0,0,0,136.282,134.567Z" transform="translate(-134.322 -134.422)" fill="#fdb617"/>
        </g>
        <g id="Group_5808" data-name="Group 5808" transform="translate(23.671 30.875)">
          <path id="Path_11784" data-name="Path 11784" d="M125.448,143.295a.541.541,0,0,0-.756-.182.03.03,0,0,0-.03.03h0c-.393.242-.817.484-1.241.726a.541.541,0,0,0,.484.968c.454-.242.908-.484,1.331-.756A.565.565,0,0,0,125.448,143.295Z" transform="translate(-123.126 -143.032)" fill="#fdb617"/>
        </g>
      </g>
      <path id="Path_11785" data-name="Path 11785" d="M130.868,53l-.484.242a.921.921,0,0,0-.242.242l-.242.484-.908,1.634-.272-.3.514-1.755a.533.533,0,0,0-.182-.575l-2.874-2.723a.53.53,0,0,0-.756,0v.03c-.03.03-2.632,4.69-2.632,4.69l-.575-.575,1.755-5.809a.533.533,0,0,0-.182-.575l-2.3-2.148a.8.8,0,0,1-.212-.877,1.181,1.181,0,0,1,.605-.605h.03a.749.749,0,0,1,.847.212l2.178,2.3a.525.525,0,0,0,.545.151l5.84-1.755.575.575-4.539,2.6a.541.541,0,0,0-.212.726h0c.03.03,2.814,3,2.814,3a.525.525,0,0,0,.545.151l1.755-.514.272.272Z" transform="translate(-53.236 -2.325)" fill="#ffebb9"/>
    </g>
  </g>
</svg>
