<svg xmlns="http://www.w3.org/2000/svg" width="51.644" height="37.85" viewBox="0 0 51.644 37.85">
  <g id="_01_transfer_money" data-name="01_transfer money" transform="translate(-157.097 -188.163)">
    <path id="Path_11200" data-name="Path 11200" d="M186.078,200.2a16.946,16.946,0,1,0,16.945,16.946A16.965,16.965,0,0,0,186.078,200.2Z" transform="translate(-10.057 -10.053)" fill="#f4dcde"/>
    <g id="Group_4853" data-name="Group 4853" transform="translate(157.097 188.163)">
      <g id="Group_4852" data-name="Group 4852" transform="translate(0 0)">
        <g id="Group_4850" data-name="Group 4850">
          <g id="Group_4848" data-name="Group 4848">
            <path id="Path_11201" data-name="Path 11201" d="M176.021,226.013a18.925,18.925,0,1,1,18.924-18.925A18.947,18.947,0,0,1,176.021,226.013Zm0-35.871a16.946,16.946,0,1,0,16.945,16.946A16.965,16.965,0,0,0,176.021,190.142Z" transform="translate(-157.097 -188.163)" fill="#d76a92"/>
          </g>
          <g id="Group_4849" data-name="Group 4849" transform="translate(11.314 8.717)">
            <path id="Path_11202" data-name="Path 11202" d="M238.926,249.637l-1.737,1.52a3.463,3.463,0,0,1,1.955,3.042,5.049,5.049,0,0,1-5,5c-1.3,0-2.391-1.305-2.391-3.259v-4.346h2.606v-2.171h-2.606v-3.693c0-3.043-1.955-4.562-3.258-4.562l-1.087,1.519a2.841,2.841,0,0,1,1.956,3.043v3.693h-3.477v2.171h3.477v4.346a5.069,5.069,0,0,0,4.779,5.214,7.046,7.046,0,0,0,6.95-7.172,4.252,4.252,0,0,0-2.172-4.343" transform="translate(-225.892 -241.167)" fill="#d76a92"/>
          </g>
        </g>
        <g id="Group_4851" data-name="Group 4851" transform="translate(36.119 8.212)">
          <path id="Path_11203" data-name="Path 11203" d="M376.72,241.516h4.521v-3.422l11,10.847-11,10.579v-3.511H376.72Z" transform="translate(-376.72 -238.094)" fill="#d76a92"/>
        </g>
      </g>
    </g>
  </g>
</svg>
