<svg xmlns="http://www.w3.org/2000/svg" width="53.486" height="29.998" viewBox="0 0 53.486 29.998">
  <g id="ubp" transform="translate(-3300 7735)">
    <g id="parking-meter" transform="translate(3330.49 -7735)">
      <path id="Path_15504" data-name="Path 15504" d="M161.353,366.676a.676.676,0,1,1-.676-.676A.676.676,0,0,1,161.353,366.676Zm0,0" transform="translate(-149.179 -341.246)" fill="#e2136e"/>
      <path id="Path_15506" data-name="Path 15506" d="M123.382,206h-2.705a.676.676,0,0,0-.676.676v2.705a.676.676,0,0,0,.676.676h2.705a.676.676,0,0,0,.676-.676v-2.705A.676.676,0,0,0,123.382,206Zm-.676,2.705h-1.353v-1.353h1.353Zm0,0" transform="translate(-111.884 -192.067)" fill="#e2136e"/>
      <path id="Path_15515" data-name="Path 15515" d="M123.382,206h-2.705a.676.676,0,0,0-.676.676v2.705a.676.676,0,0,0,.676.676h2.705a.676.676,0,0,0,.676-.676v-2.705A.676.676,0,0,0,123.382,206Zm-.676,2.705h-1.353v-1.353h1.353Zm0,0" transform="translate(-111.884 -186.656)" fill="#e2136e"/>
      <path id="Path_15514" data-name="Path 15514" d="M123.382,206h-2.705a.676.676,0,0,0-.676.676v2.705a.676.676,0,0,0,.676.676h2.705a.676.676,0,0,0,.676-.676v-2.705A.676.676,0,0,0,123.382,206Zm-.676,2.705h-1.353v-1.353h1.353Zm0,0" transform="translate(-117.507 -192.067)" fill="#e2136e"/>
      <path id="Path_15507" data-name="Path 15507" d="M43.382,286H40.676a.676.676,0,0,0-.676.676v2.705a.676.676,0,0,0,.676.676h2.705a.676.676,0,0,0,.676-.676v-2.705A.676.676,0,0,0,43.382,286Zm-.676,2.705H41.353v-1.353h1.353Zm0,0" transform="translate(-37.295 -266.657)" fill="#e2136e"/>
      <path id="Path_15509" data-name="Path 15509" d="M206.087,206h-5.411a.676.676,0,0,0-.676.676v8.116a.676.676,0,0,0,.676.676h5.411a.676.676,0,0,0,.676-.676v-8.116A.676.676,0,0,0,206.087,206Zm-.676,1.353v2.705h-4.058v-2.705Zm-4.058,6.763v-2.705h4.058v2.705Zm0,0" transform="translate(-186.473 -192.067)" fill="#e2136e"/>
      <path id="Path_15510" data-name="Path 15510" d="M40.676,49.875H56.909a.676.676,0,0,0,.676-.676V40.676A.676.676,0,0,0,56.909,40H40.676a.676.676,0,0,0-.676.676V49.2A.676.676,0,0,0,40.676,49.875Zm16.232-1.353-.676-6.542v6.542h.676Zm-7.067-2.883" transform="translate(-37.295 -37.295)" fill="#e2136e"/>
      <path id="Path_15511" data-name="Path 15511" d="M14.88,28.812h3.382a2.031,2.031,0,0,0,2.029-2.029v-.676h.676A2.031,2.031,0,0,0,23,24.078V2.029A2.031,2.031,0,0,0,20.967,0H2.029A2.031,2.031,0,0,0,0,2.029V24.078a2.031,2.031,0,0,0,2.029,2.029h.676v.676a2.031,2.031,0,0,0,2.029,2.029H14.88Zm-2.062.439v0Zm-8.76-2.468v-.676h4.4a.676.676,0,1,0,0-1.353H2.029a.677.677,0,0,1-.676-.676V2.029a.677.677,0,0,1,.676-.676H20.967a.677.677,0,0,1,.676.676V24.078a.677.677,0,0,1-.676.676H14.541a.676.676,0,1,0,0,1.353h4.4v.676a.677.677,0,0,1-.676.676H4.734A.677.677,0,0,1,4.058,26.783Zm0,0" fill="#e2136e"/>
      <path id="Path_15512" data-name="Path 15512" d="M91.127,104.892ZM90.278,103" transform="translate(-71.826 -97.056)" fill="#fff"/>
      <rect id="Rectangle_3627" data-name="Rectangle 3627" width="14.058" height="4.217" rx="0.5" transform="translate(4.217 4.217)" fill="#fff"/>
    </g>
    <g id="pay_bill" transform="translate(3072 -7839)">
      <path id="Path_16081" data-name="Path 16081" d="M28.575,46.9c-.258-.086-.515-.172-.859-.258A2.375,2.375,0,0,1,26.6,45.7h4.723a.266.266,0,0,0-.086.172A2.98,2.98,0,0,1,29.606,46.9c-.086,0-.086.086-.172.086h-.859Z" transform="translate(209.129 87.012)" fill="#5a7468" fill-rule="evenodd"/>
      <path id="Path_16082" data-name="Path 16082" d="M28.678,44.46H25.071a.711.711,0,0,1-.771-.86c.086-.429.344-.6.859-.6H32.2a.853.853,0,0,1,.859.6.711.711,0,0,1-.773.859H28.678" transform="translate(209.456 87.393)" fill="#5a7468" fill-rule="evenodd"/>
      <path id="Path_16083" data-name="Path 16083" d="M28.68,39.36H25.073a.7.7,0,0,1-.773-.687.683.683,0,0,1,.773-.773H32.2c.515,0,.859.258.859.687a.793.793,0,0,1-.859.773H28.68" transform="translate(209.454 88.113)" fill="#5a7468" fill-rule="evenodd"/>
      <path id="Path_16084" data-name="Path 16084" d="M28.68,40.5h3.607a.68.68,0,0,1,.687.429.807.807,0,0,1-.086.773.975.975,0,0,1-.687.258H25.073a.721.721,0,0,1-.773-.773.7.7,0,0,1,.773-.687H28.68" transform="translate(209.454 87.746)" fill="#5a7468" fill-rule="evenodd"/>
      <path id="Path_16085" data-name="Path 16085" d="M1.519.721,6.027-.261,10.954.988l3.5,4.465.61,4.332-1.14,3.874L9.8,20.346H2.394L-.361,15.071l-2.573-3.279V6.617L-.993,3.43Z" transform="translate(232 105)" fill="#d1ddd7"/>
      <path id="Path_16086" data-name="Path 16086" d="M28,25.472H26.03c-.429,0-.515-.086-.344-.515.6-2.233,1.2-4.38,1.8-6.613.086-.258.172-.344.429-.344H31.7a1.948,1.948,0,0,1,.344.086c.086.086,0,.258-.086.344-.859,1.288-1.718,2.662-2.576,3.951-.086.086-.086.172-.172.344h1.8c.515,0,.515.172.344.515-.429.773-.859,1.46-1.288,2.233-1.031,1.8-2.061,3.521-3.092,5.325a.084.084,0,0,1-.086.086c-.086.086-.172.086-.258.172,0-.086-.086-.258-.086-.344.172-.773.429-1.46.6-2.233l.773-2.834A.266.266,0,0,1,28,25.473" transform="translate(209.27 90.923)" fill="#5a7468" fill-rule="evenodd"/>
      <path id="Path_16087" data-name="Path 16087" d="M17.6,22.344a10.087,10.087,0,0,1,20.01-1.8,10.747,10.747,0,0,1-2.147,8.33,9.193,9.193,0,0,1-1.2,1.374,9.464,9.464,0,0,0-1.718,2.4c-.086.258-.258.429-.344.687a.691.691,0,0,1-.945.258.7.7,0,0,1-.344-.859,11.948,11.948,0,0,1,2.147-3.263,10.963,10.963,0,0,0,3.092-5.153,8.694,8.694,0,1,0-17-3.607A9.054,9.054,0,0,0,20.692,27.5a11.727,11.727,0,0,0,1.632,1.975,11.948,11.948,0,0,1,2.147,3.263.6.6,0,0,1-.344.859.75.75,0,0,1-.945-.344c-.258-.515-.515-1.031-.773-1.46a4.865,4.865,0,0,0-1.03-1.293,11.921,11.921,0,0,1-3.435-5.84,12.114,12.114,0,0,1-.344-2.319" transform="translate(210.4 91.732)" fill="#5a7468" fill-rule="evenodd"/>
    </g>
  </g>
</svg>
