<svg xmlns="http://www.w3.org/2000/svg" xmlns:xlink="http://www.w3.org/1999/xlink" width="138.027" height="144.252" viewBox="0 0 138.027 144.252">
  <defs>
    <filter id="Path_15621" x="47.374" y="95.933" width="37.931" height="38.142" filterUnits="userSpaceOnUse">
      <feOffset dx="2" dy="3" input="SourceAlpha"/>
      <feGaussianBlur stdDeviation="2.5" result="blur"/>
      <feFlood flood-opacity="0.31"/>
      <feComposite operator="in" in2="blur"/>
      <feComposite in="SourceGraphic"/>
    </filter>
  </defs>
  <g id="vid" transform="translate(-3643.078 7503)" opacity="0.51">
    <path id="Path_15616" data-name="Path 15616" d="M90.923,156.064l37-46.233a12.422,12.422,0,0,0,5.983,3.021A13.114,13.114,0,0,0,149.1,102.228a13.419,13.419,0,0,0-4.632-13.071L157.08,73.392l71.87,61.424-66.157,82.671Z" transform="translate(3552.155 -7576.392)" fill="#f2f2f2"/>
    <circle id="Ellipse_1270" data-name="Ellipse 1270" cx="2.834" cy="2.834" r="2.834" transform="translate(3659.321 -7494.904)" fill="none"/>
    <circle id="Ellipse_1272" data-name="Ellipse 1272" cx="2.834" cy="2.834" r="2.834" transform="translate(3745.492 -7487.799)" fill="none"/>
    <circle id="Ellipse_1273" data-name="Ellipse 1273" cx="10.43" cy="10.43" r="10.43" transform="translate(3678.619 -7486.598)" fill="#f2f2f2"/>
    <path id="Path_15617" data-name="Path 15617" d="M295.384,182.771H249.178a9.822,9.822,0,0,0-9.582,7.662L216.249,293.99a7.939,7.939,0,0,0,7.354,9.675l47.5,2.34a10.488,10.488,0,0,0,10.836-8.608l13.244-73.216.985.282,2.534-13.877-1.014-.254,3.7-20.437a6.048,6.048,0,0,0-6-7.124Z" transform="translate(3455.594 -7664.767)" fill="#3f3d56"/>
    <path id="Path_15618" data-name="Path 15618" d="M274.333,194.4h-5.394a6.788,6.788,0,0,0-6.632,5.341L239.9,302.45a4.206,4.206,0,0,0,3.834,5.094l47.346,3.1a5.447,5.447,0,0,0,5.717-4.47l19.122-106.163a4.771,4.771,0,0,0-4.7-5.617h-5.117a2.252,2.252,0,0,0-2.174,1.666h0a1.988,1.988,0,0,1-1.92,1.471H277.721a3.4,3.4,0,0,1-3.388-3.137Z" transform="translate(3436.522 -7674.16)" fill="#e2136e"/>
    <rect id="Rectangle_5842" data-name="Rectangle 5842" width="48.992" height="0.241" transform="translate(3695.771 -7453.216)" fill="#2f2e41"/>
    <rect id="Rectangle_5843" data-name="Rectangle 5843" width="49.475" height="0.241" transform="translate(3693.84 -7445.372)" fill="#2f2e41"/>
    <path id="Path_15619" data-name="Path 15619" d="M186.151,243.041l-1.113-1.484.193-.145.962,1.283,3.707-3.033.153.187Z" transform="translate(3555.519 -7696.638)" fill="#2f2e41"/>
    <path id="Path_15620" data-name="Path 15620" d="M219.455,425.273l-1.113-1.484.193-.145.962,1.283,3.707-3.033.153.187Z" transform="translate(3515.819 -7843.877)" fill="#2f2e41"/>
    <rect id="Rectangle_5844" data-name="Rectangle 5844" width="51.297" height="0.241" transform="matrix(-1, -0.021, 0.021, -1, 3739.693, -7417.255)" fill="#2f2e41"/>
    <rect id="Rectangle_5845" data-name="Rectangle 5845" width="52.264" height="0.241" transform="translate(3739.089 -7410.016) rotate(-178.677)" fill="#2f2e41"/>
    <g id="Group_6939" data-name="Group 6939" transform="translate(3695.952 -7402.567)">
      <g transform="matrix(1, 0, 0, 1, -52.87, -100.43)" filter="url(#Path_15621)">
        <path id="Path_15621-2" data-name="Path 15621" d="M437.865,608.07a11.464,11.464,0,0,1-22.928,0c0-.144,0-.286.008-.428a11.463,11.463,0,1,1,22.921.428Z" transform="translate(-362.06 -495.96)" fill="#d97d9a"/>
      </g>
      <path id="Polygon_1" data-name="Polygon 1" d="M6.6,1.408a1,1,0,0,1,1.71,0l5.673,9.344a1,1,0,0,1-.855,1.519H1.777a1,1,0,0,1-.855-1.519Z" transform="translate(1.061 6.943) rotate(-21)" fill="#fff"/>
    </g>
  </g>
</svg>
