<svg xmlns="http://www.w3.org/2000/svg" width="118.343" height="82.665" viewBox="0 0 118.343 82.665">
  <g id="Group_6914" data-name="Group 6914" transform="translate(-84.6 -85.1)">
    <path id="Path_15206" data-name="Path 15206" d="M200.506,97.968a14.828,14.828,0,0,0-10.431-10.431c-9.261-2.437-46.3-2.437-46.3-2.437s-37.043,0-46.3,2.437A14.828,14.828,0,0,0,87.037,97.968C84.6,107.228,84.6,126.432,84.6,126.432s0,19.3,2.437,28.465a14.828,14.828,0,0,0,10.431,10.431c9.261,2.437,46.3,2.437,46.3,2.437s37.043,0,46.3-2.437A14.828,14.828,0,0,0,200.506,154.9c2.437-9.261,2.437-28.465,2.437-28.465S202.943,107.228,200.506,97.968Z" fill="#ee3124"/>
    <path id="Path_15207" data-name="Path 15207" d="M133.1,144.881l30.8-17.742L133.1,109.3Z" transform="translate(-1.221 -0.609)" fill="#fff"/>
  </g>
</svg>
